<?xml version="1.0" encoding="utf-8" standalone="no"?>
<!DOCTYPE svg PUBLIC "-//W3C//DTD SVG 1.1//EN"
  "http://www.w3.org/Graphics/SVG/1.1/DTD/svg11.dtd">
<svg xmlns:xlink="http://www.w3.org/1999/xlink" width="576pt" height="432pt" viewBox="0 0 576 432" xmlns="http://www.w3.org/2000/svg" version="1.1">
 <metadata>
  <rdf:RDF xmlns:dc="http://purl.org/dc/elements/1.1/" xmlns:cc="http://creativecommons.org/ns#" xmlns:rdf="http://www.w3.org/1999/02/22-rdf-syntax-ns#">
   <cc:Work>
    <dc:type rdf:resource="http://purl.org/dc/dcmitype/StillImage"/>
    <dc:date>2024-11-13T21:44:41.571955</dc:date>
    <dc:format>image/svg+xml</dc:format>
    <dc:creator>
     <cc:Agent>
      <dc:title>Matplotlib v3.8.3, https://matplotlib.org/</dc:title>
     </cc:Agent>
    </dc:creator>
   </cc:Work>
  </rdf:RDF>
 </metadata>
 <defs>
  <style type="text/css">*{stroke-linejoin: round; stroke-linecap: butt}</style>
 </defs>
 <g id="figure_1">
  <g id="patch_1">
   <path d="M 0 432 
L 576 432 
L 576 0 
L 0 0 
z
" style="fill: #ffffff"/>
  </g>
  <g id="axes_1">
   <g id="patch_2">
    <path d="M 72 384.48 
L 518.4 384.48 
L 518.4 51.84 
L 72 51.84 
z
" style="fill: #ffffff"/>
   </g>
   <g id="matplotlib.axis_1">
    <g id="xtick_1">
     <g id="line2d_1">
      <defs>
       <path id="m010105840f" d="M 0 0 
L 0 3.5 
" style="stroke: #000000; stroke-width: 0.8"/>
      </defs>
      <g>
       <use xlink:href="#m010105840f" x="72" y="384.48" style="stroke: #000000; stroke-width: 0.8"/>
      </g>
     </g>
     <g id="text_1">
      <!-- −2.0 -->
      <g transform="translate(59.858594 399.078438) scale(0.1 -0.1)">
       <defs>
        <path id="DejaVuSans-2212" d="M 678 2272 
L 4684 2272 
L 4684 1741 
L 678 1741 
L 678 2272 
z
" transform="scale(0.015625)"/>
        <path id="DejaVuSans-32" d="M 1228 531 
L 3431 531 
L 3431 0 
L 469 0 
L 469 531 
Q 828 903 1448 1529 
Q 2069 2156 2228 2338 
Q 2531 2678 2651 2914 
Q 2772 3150 2772 3378 
Q 2772 3750 2511 3984 
Q 2250 4219 1831 4219 
Q 1534 4219 1204 4116 
Q 875 4013 500 3803 
L 500 4441 
Q 881 4594 1212 4672 
Q 1544 4750 1819 4750 
Q 2544 4750 2975 4387 
Q 3406 4025 3406 3419 
Q 3406 3131 3298 2873 
Q 3191 2616 2906 2266 
Q 2828 2175 2409 1742 
Q 1991 1309 1228 531 
z
" transform="scale(0.015625)"/>
        <path id="DejaVuSans-2e" d="M 684 794 
L 1344 794 
L 1344 0 
L 684 0 
L 684 794 
z
" transform="scale(0.015625)"/>
        <path id="DejaVuSans-30" d="M 2034 4250 
Q 1547 4250 1301 3770 
Q 1056 3291 1056 2328 
Q 1056 1369 1301 889 
Q 1547 409 2034 409 
Q 2525 409 2770 889 
Q 3016 1369 3016 2328 
Q 3016 3291 2770 3770 
Q 2525 4250 2034 4250 
z
M 2034 4750 
Q 2819 4750 3233 4129 
Q 3647 3509 3647 2328 
Q 3647 1150 3233 529 
Q 2819 -91 2034 -91 
Q 1250 -91 836 529 
Q 422 1150 422 2328 
Q 422 3509 836 4129 
Q 1250 4750 2034 4750 
z
" transform="scale(0.015625)"/>
       </defs>
       <use xlink:href="#DejaVuSans-2212"/>
       <use xlink:href="#DejaVuSans-32" x="83.789062"/>
       <use xlink:href="#DejaVuSans-2e" x="147.412109"/>
       <use xlink:href="#DejaVuSans-30" x="179.199219"/>
      </g>
     </g>
    </g>
    <g id="xtick_2">
     <g id="line2d_2">
      <g>
       <use xlink:href="#m010105840f" x="127.8" y="384.48" style="stroke: #000000; stroke-width: 0.8"/>
      </g>
     </g>
     <g id="text_2">
      <!-- −1.5 -->
      <g transform="translate(115.658594 399.078438) scale(0.1 -0.1)">
       <defs>
        <path id="DejaVuSans-31" d="M 794 531 
L 1825 531 
L 1825 4091 
L 703 3866 
L 703 4441 
L 1819 4666 
L 2450 4666 
L 2450 531 
L 3481 531 
L 3481 0 
L 794 0 
L 794 531 
z
" transform="scale(0.015625)"/>
        <path id="DejaVuSans-35" d="M 691 4666 
L 3169 4666 
L 3169 4134 
L 1269 4134 
L 1269 2991 
Q 1406 3038 1543 3061 
Q 1681 3084 1819 3084 
Q 2600 3084 3056 2656 
Q 3513 2228 3513 1497 
Q 3513 744 3044 326 
Q 2575 -91 1722 -91 
Q 1428 -91 1123 -41 
Q 819 9 494 109 
L 494 744 
Q 775 591 1075 516 
Q 1375 441 1709 441 
Q 2250 441 2565 725 
Q 2881 1009 2881 1497 
Q 2881 1984 2565 2268 
Q 2250 2553 1709 2553 
Q 1456 2553 1204 2497 
Q 953 2441 691 2322 
L 691 4666 
z
" transform="scale(0.015625)"/>
       </defs>
       <use xlink:href="#DejaVuSans-2212"/>
       <use xlink:href="#DejaVuSans-31" x="83.789062"/>
       <use xlink:href="#DejaVuSans-2e" x="147.412109"/>
       <use xlink:href="#DejaVuSans-35" x="179.199219"/>
      </g>
     </g>
    </g>
    <g id="xtick_3">
     <g id="line2d_3">
      <g>
       <use xlink:href="#m010105840f" x="183.6" y="384.48" style="stroke: #000000; stroke-width: 0.8"/>
      </g>
     </g>
     <g id="text_3">
      <!-- −1.0 -->
      <g transform="translate(171.458594 399.078438) scale(0.1 -0.1)">
       <use xlink:href="#DejaVuSans-2212"/>
       <use xlink:href="#DejaVuSans-31" x="83.789062"/>
       <use xlink:href="#DejaVuSans-2e" x="147.412109"/>
       <use xlink:href="#DejaVuSans-30" x="179.199219"/>
      </g>
     </g>
    </g>
    <g id="xtick_4">
     <g id="line2d_4">
      <g>
       <use xlink:href="#m010105840f" x="239.4" y="384.48" style="stroke: #000000; stroke-width: 0.8"/>
      </g>
     </g>
     <g id="text_4">
      <!-- −0.5 -->
      <g transform="translate(227.258594 399.078438) scale(0.1 -0.1)">
       <use xlink:href="#DejaVuSans-2212"/>
       <use xlink:href="#DejaVuSans-30" x="83.789062"/>
       <use xlink:href="#DejaVuSans-2e" x="147.412109"/>
       <use xlink:href="#DejaVuSans-35" x="179.199219"/>
      </g>
     </g>
    </g>
    <g id="xtick_5">
     <g id="line2d_5">
      <g>
       <use xlink:href="#m010105840f" x="295.2" y="384.48" style="stroke: #000000; stroke-width: 0.8"/>
      </g>
     </g>
     <g id="text_5">
      <!-- 0.0 -->
      <g transform="translate(287.248437 399.078438) scale(0.1 -0.1)">
       <use xlink:href="#DejaVuSans-30"/>
       <use xlink:href="#DejaVuSans-2e" x="63.623047"/>
       <use xlink:href="#DejaVuSans-30" x="95.410156"/>
      </g>
     </g>
    </g>
    <g id="xtick_6">
     <g id="line2d_6">
      <g>
       <use xlink:href="#m010105840f" x="351" y="384.48" style="stroke: #000000; stroke-width: 0.8"/>
      </g>
     </g>
     <g id="text_6">
      <!-- 0.5 -->
      <g transform="translate(343.048437 399.078438) scale(0.1 -0.1)">
       <use xlink:href="#DejaVuSans-30"/>
       <use xlink:href="#DejaVuSans-2e" x="63.623047"/>
       <use xlink:href="#DejaVuSans-35" x="95.410156"/>
      </g>
     </g>
    </g>
    <g id="xtick_7">
     <g id="line2d_7">
      <g>
       <use xlink:href="#m010105840f" x="406.8" y="384.48" style="stroke: #000000; stroke-width: 0.8"/>
      </g>
     </g>
     <g id="text_7">
      <!-- 1.0 -->
      <g transform="translate(398.848437 399.078438) scale(0.1 -0.1)">
       <use xlink:href="#DejaVuSans-31"/>
       <use xlink:href="#DejaVuSans-2e" x="63.623047"/>
       <use xlink:href="#DejaVuSans-30" x="95.410156"/>
      </g>
     </g>
    </g>
    <g id="xtick_8">
     <g id="line2d_8">
      <g>
       <use xlink:href="#m010105840f" x="462.6" y="384.48" style="stroke: #000000; stroke-width: 0.8"/>
      </g>
     </g>
     <g id="text_8">
      <!-- 1.5 -->
      <g transform="translate(454.648437 399.078438) scale(0.1 -0.1)">
       <use xlink:href="#DejaVuSans-31"/>
       <use xlink:href="#DejaVuSans-2e" x="63.623047"/>
       <use xlink:href="#DejaVuSans-35" x="95.410156"/>
      </g>
     </g>
    </g>
    <g id="xtick_9">
     <g id="line2d_9">
      <g>
       <use xlink:href="#m010105840f" x="518.4" y="384.48" style="stroke: #000000; stroke-width: 0.8"/>
      </g>
     </g>
     <g id="text_9">
      <!-- 2.0 -->
      <g transform="translate(510.448437 399.078438) scale(0.1 -0.1)">
       <use xlink:href="#DejaVuSans-32"/>
       <use xlink:href="#DejaVuSans-2e" x="63.623047"/>
       <use xlink:href="#DejaVuSans-30" x="95.410156"/>
      </g>
     </g>
    </g>
    <g id="text_10">
     <!-- z-axis -->
     <g transform="translate(280.754687 412.756563) scale(0.1 -0.1)">
      <defs>
       <path id="DejaVuSans-7a" d="M 353 3500 
L 3084 3500 
L 3084 2975 
L 922 459 
L 3084 459 
L 3084 0 
L 275 0 
L 275 525 
L 2438 3041 
L 353 3041 
L 353 3500 
z
" transform="scale(0.015625)"/>
       <path id="DejaVuSans-2d" d="M 313 2009 
L 1997 2009 
L 1997 1497 
L 313 1497 
L 313 2009 
z
" transform="scale(0.015625)"/>
       <path id="DejaVuSans-61" d="M 2194 1759 
Q 1497 1759 1228 1600 
Q 959 1441 959 1056 
Q 959 750 1161 570 
Q 1363 391 1709 391 
Q 2188 391 2477 730 
Q 2766 1069 2766 1631 
L 2766 1759 
L 2194 1759 
z
M 3341 1997 
L 3341 0 
L 2766 0 
L 2766 531 
Q 2569 213 2275 61 
Q 1981 -91 1556 -91 
Q 1019 -91 701 211 
Q 384 513 384 1019 
Q 384 1609 779 1909 
Q 1175 2209 1959 2209 
L 2766 2209 
L 2766 2266 
Q 2766 2663 2505 2880 
Q 2244 3097 1772 3097 
Q 1472 3097 1187 3025 
Q 903 2953 641 2809 
L 641 3341 
Q 956 3463 1253 3523 
Q 1550 3584 1831 3584 
Q 2591 3584 2966 3190 
Q 3341 2797 3341 1997 
z
" transform="scale(0.015625)"/>
       <path id="DejaVuSans-78" d="M 3513 3500 
L 2247 1797 
L 3578 0 
L 2900 0 
L 1881 1375 
L 863 0 
L 184 0 
L 1544 1831 
L 300 3500 
L 978 3500 
L 1906 2253 
L 2834 3500 
L 3513 3500 
z
" transform="scale(0.015625)"/>
       <path id="DejaVuSans-69" d="M 603 3500 
L 1178 3500 
L 1178 0 
L 603 0 
L 603 3500 
z
M 603 4863 
L 1178 4863 
L 1178 4134 
L 603 4134 
L 603 4863 
z
" transform="scale(0.015625)"/>
       <path id="DejaVuSans-73" d="M 2834 3397 
L 2834 2853 
Q 2591 2978 2328 3040 
Q 2066 3103 1784 3103 
Q 1356 3103 1142 2972 
Q 928 2841 928 2578 
Q 928 2378 1081 2264 
Q 1234 2150 1697 2047 
L 1894 2003 
Q 2506 1872 2764 1633 
Q 3022 1394 3022 966 
Q 3022 478 2636 193 
Q 2250 -91 1575 -91 
Q 1294 -91 989 -36 
Q 684 19 347 128 
L 347 722 
Q 666 556 975 473 
Q 1284 391 1588 391 
Q 1994 391 2212 530 
Q 2431 669 2431 922 
Q 2431 1156 2273 1281 
Q 2116 1406 1581 1522 
L 1381 1569 
Q 847 1681 609 1914 
Q 372 2147 372 2553 
Q 372 3047 722 3315 
Q 1072 3584 1716 3584 
Q 2034 3584 2315 3537 
Q 2597 3491 2834 3397 
z
" transform="scale(0.015625)"/>
      </defs>
      <use xlink:href="#DejaVuSans-7a"/>
      <use xlink:href="#DejaVuSans-2d" x="52.490234"/>
      <use xlink:href="#DejaVuSans-61" x="88.574219"/>
      <use xlink:href="#DejaVuSans-78" x="149.853516"/>
      <use xlink:href="#DejaVuSans-69" x="209.033203"/>
      <use xlink:href="#DejaVuSans-73" x="236.816406"/>
     </g>
    </g>
   </g>
   <g id="matplotlib.axis_2">
    <g id="ytick_1">
     <g id="line2d_10">
      <defs>
       <path id="m604cf4a1e7" d="M 0 0 
L -3.5 0 
" style="stroke: #000000; stroke-width: 0.8"/>
      </defs>
      <g>
       <use xlink:href="#m604cf4a1e7" x="72" y="384.48" style="stroke: #000000; stroke-width: 0.8"/>
      </g>
     </g>
     <g id="text_11">
      <!-- −2.0 -->
      <g transform="translate(40.717187 388.279219) scale(0.1 -0.1)">
       <use xlink:href="#DejaVuSans-2212"/>
       <use xlink:href="#DejaVuSans-32" x="83.789062"/>
       <use xlink:href="#DejaVuSans-2e" x="147.412109"/>
       <use xlink:href="#DejaVuSans-30" x="179.199219"/>
      </g>
     </g>
    </g>
    <g id="ytick_2">
     <g id="line2d_11">
      <g>
       <use xlink:href="#m604cf4a1e7" x="72" y="342.9" style="stroke: #000000; stroke-width: 0.8"/>
      </g>
     </g>
     <g id="text_12">
      <!-- −1.5 -->
      <g transform="translate(40.717187 346.699219) scale(0.1 -0.1)">
       <use xlink:href="#DejaVuSans-2212"/>
       <use xlink:href="#DejaVuSans-31" x="83.789062"/>
       <use xlink:href="#DejaVuSans-2e" x="147.412109"/>
       <use xlink:href="#DejaVuSans-35" x="179.199219"/>
      </g>
     </g>
    </g>
    <g id="ytick_3">
     <g id="line2d_12">
      <g>
       <use xlink:href="#m604cf4a1e7" x="72" y="301.32" style="stroke: #000000; stroke-width: 0.8"/>
      </g>
     </g>
     <g id="text_13">
      <!-- −1.0 -->
      <g transform="translate(40.717187 305.119219) scale(0.1 -0.1)">
       <use xlink:href="#DejaVuSans-2212"/>
       <use xlink:href="#DejaVuSans-31" x="83.789062"/>
       <use xlink:href="#DejaVuSans-2e" x="147.412109"/>
       <use xlink:href="#DejaVuSans-30" x="179.199219"/>
      </g>
     </g>
    </g>
    <g id="ytick_4">
     <g id="line2d_13">
      <g>
       <use xlink:href="#m604cf4a1e7" x="72" y="259.74" style="stroke: #000000; stroke-width: 0.8"/>
      </g>
     </g>
     <g id="text_14">
      <!-- −0.5 -->
      <g transform="translate(40.717187 263.539219) scale(0.1 -0.1)">
       <use xlink:href="#DejaVuSans-2212"/>
       <use xlink:href="#DejaVuSans-30" x="83.789062"/>
       <use xlink:href="#DejaVuSans-2e" x="147.412109"/>
       <use xlink:href="#DejaVuSans-35" x="179.199219"/>
      </g>
     </g>
    </g>
    <g id="ytick_5">
     <g id="line2d_14">
      <g>
       <use xlink:href="#m604cf4a1e7" x="72" y="218.16" style="stroke: #000000; stroke-width: 0.8"/>
      </g>
     </g>
     <g id="text_15">
      <!-- 0.0 -->
      <g transform="translate(49.096875 221.959219) scale(0.1 -0.1)">
       <use xlink:href="#DejaVuSans-30"/>
       <use xlink:href="#DejaVuSans-2e" x="63.623047"/>
       <use xlink:href="#DejaVuSans-30" x="95.410156"/>
      </g>
     </g>
    </g>
    <g id="ytick_6">
     <g id="line2d_15">
      <g>
       <use xlink:href="#m604cf4a1e7" x="72" y="176.58" style="stroke: #000000; stroke-width: 0.8"/>
      </g>
     </g>
     <g id="text_16">
      <!-- 0.5 -->
      <g transform="translate(49.096875 180.379219) scale(0.1 -0.1)">
       <use xlink:href="#DejaVuSans-30"/>
       <use xlink:href="#DejaVuSans-2e" x="63.623047"/>
       <use xlink:href="#DejaVuSans-35" x="95.410156"/>
      </g>
     </g>
    </g>
    <g id="ytick_7">
     <g id="line2d_16">
      <g>
       <use xlink:href="#m604cf4a1e7" x="72" y="135" style="stroke: #000000; stroke-width: 0.8"/>
      </g>
     </g>
     <g id="text_17">
      <!-- 1.0 -->
      <g transform="translate(49.096875 138.799219) scale(0.1 -0.1)">
       <use xlink:href="#DejaVuSans-31"/>
       <use xlink:href="#DejaVuSans-2e" x="63.623047"/>
       <use xlink:href="#DejaVuSans-30" x="95.410156"/>
      </g>
     </g>
    </g>
    <g id="ytick_8">
     <g id="line2d_17">
      <g>
       <use xlink:href="#m604cf4a1e7" x="72" y="93.42" style="stroke: #000000; stroke-width: 0.8"/>
      </g>
     </g>
     <g id="text_18">
      <!-- 1.5 -->
      <g transform="translate(49.096875 97.219219) scale(0.1 -0.1)">
       <use xlink:href="#DejaVuSans-31"/>
       <use xlink:href="#DejaVuSans-2e" x="63.623047"/>
       <use xlink:href="#DejaVuSans-35" x="95.410156"/>
      </g>
     </g>
    </g>
    <g id="ytick_9">
     <g id="line2d_18">
      <g>
       <use xlink:href="#m604cf4a1e7" x="72" y="51.84" style="stroke: #000000; stroke-width: 0.8"/>
      </g>
     </g>
     <g id="text_19">
      <!-- 2.0 -->
      <g transform="translate(49.096875 55.639219) scale(0.1 -0.1)">
       <use xlink:href="#DejaVuSans-32"/>
       <use xlink:href="#DejaVuSans-2e" x="63.623047"/>
       <use xlink:href="#DejaVuSans-30" x="95.410156"/>
      </g>
     </g>
    </g>
    <g id="text_20">
     <!-- x-axis -->
     <g transform="translate(34.6375 232.940469) rotate(-90) scale(0.1 -0.1)">
      <use xlink:href="#DejaVuSans-78"/>
      <use xlink:href="#DejaVuSans-2d" x="59.179688"/>
      <use xlink:href="#DejaVuSans-61" x="95.263672"/>
      <use xlink:href="#DejaVuSans-78" x="156.542969"/>
      <use xlink:href="#DejaVuSans-69" x="215.722656"/>
      <use xlink:href="#DejaVuSans-73" x="243.505859"/>
     </g>
    </g>
   </g>
   <g id="LineCollection_1">
    <path d="M 408.301778 218.515008 
L 408.303613 218.364565 
L 408.334209 220.694278 
L 408.334209 220.694278 
L 408.44179 222.818008 
L 408.44179 222.818008 
L 408.345675 229.678006 
L 409.23913 236.989053 
L 410.014071 244.347595 
L 410.611422 251.723505 
L 410.975259 259.105678 
L 411.065044 266.492611 
L 410.842782 273.878828 
L 410.274936 281.255919 
L 409.327615 288.611047 
L 407.967241 295.929184 
L 406.163278 303.193891 
L 403.887174 310.384367 
L 401.11303 317.477411 
L 397.81734 324.445094 
L 393.978189 331.255236 
L 389.576646 337.873146 
L 384.597331 344.259207 
L 379.030087 350.369759 
L 372.871159 356.155645 
L 366.123696 361.563829 
L 358.800637 366.537328 
L 350.925188 371.017179 
L 342.534008 374.943463 
L 333.679976 378.256153 
L 324.430349 380.899666 
L 314.867851 382.825887 
L 305.089186 383.99734 
L 295.2 384.48 
L 295.2 384.48 
" clip-path="url(#p24edfa99d5)" style="fill: none; stroke: #808080; stroke-width: 0.8"/>
    <path d="M 397.107685 340.538457 
L 392.692151 347.152463 
L 387.709819 353.538738 
L 382.152982 359.655203 
L 376.019016 365.456121 
L 369.311401 370.892619 
L 362.042918 375.912452 
L 354.23735 380.460035 
L 345.927273 384.48 
L 345.927273 384.48 
" clip-path="url(#p24edfa99d5)" style="fill: none; stroke: #808080; stroke-width: 0.8"/>
    <path d="M 412.202768 237.632474 
L 414.020035 244.881504 
L 415.680005 252.161923 
L 417.119175 259.468393 
L 418.307139 266.801701 
L 419.217537 274.160164 
L 419.820369 281.536205 
L 420.085243 288.922402 
L 419.985995 296.310818 
L 419.497598 303.691095 
L 418.597524 311.04987 
L 417.26525 318.371587 
L 415.479718 325.63914 
L 413.221161 332.833014 
L 410.471313 339.931536 
L 407.213059 346.909123 
L 403.431699 353.737869 
L 399.115214 360.387758 
L 394.254149 366.825221 
L 388.842397 373.013573 
L 382.877836 378.913121 
L 376.363636 384.48 
L 376.363636 384.48 
" clip-path="url(#p24edfa99d5)" style="fill: none; stroke: #808080; stroke-width: 0.8"/>
    <path d="M 422.856825 270.536122 
L 424.192536 277.85809 
L 425.225816 285.206639 
L 425.93099 292.576133 
L 426.285695 299.959776 
L 426.268354 307.348385 
L 425.860682 314.730784 
L 425.04514 322.094361 
L 423.803319 329.425305 
L 422.116469 336.706472 
L 419.967723 343.919545 
L 417.342315 351.044202 
L 414.227635 358.058591 
L 410.611461 364.938317 
L 406.482395 371.655144 
L 401.832035 378.179674 
L 396.654545 384.48 
L 396.654545 384.48 
" clip-path="url(#p24edfa99d5)" style="fill: none; stroke: #808080; stroke-width: 0.8"/>
    <path d="M 432.242991 290.337222 
L 433.407981 297.676098 
L 434.239847 305.039335 
L 434.721233 312.419514 
L 434.835037 319.807905 
L 434.56446 327.194154 
L 433.895293 334.566479 
L 432.815195 341.912035 
L 431.309176 349.215546 
L 429.363142 356.46074 
L 426.964628 363.630047 
L 424.102395 370.704507 
L 420.76562 377.662224 
L 416.945455 384.48 
L 416.945455 384.48 
" clip-path="url(#p24edfa99d5)" style="fill: none; stroke: #808080; stroke-width: 0.8"/>
    <path d="M 438.366057 348.582084 
L 436.985366 355.899577 
L 435.178734 363.165268 
L 432.934262 370.362737 
L 430.24153 377.474136 
L 427.090909 384.48 
L 427.090909 384.48 
" clip-path="url(#p24edfa99d5)" style="fill: none; stroke: #808080; stroke-width: 0.8"/>
    <path d="M 423.939891 247.321764 
L 427.612429 254.184447 
L 431.103303 261.098708 
L 434.3912 268.067861 
L 437.463918 275.093087 
L 440.300329 282.173646 
L 442.880345 289.308244 
L 445.19021 296.494419 
L 447.215385 303.728591 
L 448.942433 311.005457 
L 450.362382 318.319285 
L 451.463201 325.663818 
L 452.230033 333.031464 
L 452.651497 340.414431 
L 452.71733 347.80395 
L 452.418608 355.190247 
L 451.745914 362.562879 
L 450.689171 369.910733 
L 449.237714 377.220965 
L 447.381818 384.48 
L 447.381818 384.48 
" clip-path="url(#p24edfa99d5)" style="fill: none; stroke: #808080; stroke-width: 0.8"/>
    <path d="M 454.015105 296.911002 
L 456.773313 304.009505 
L 459.26855 311.162068 
L 461.491473 318.364273 
L 463.430564 325.611644 
L 465.077517 332.899279 
L 466.421011 340.221246 
L 467.452297 347.571325 
L 468.165134 354.942591 
L 468.552623 362.327443 
L 468.605624 369.717885 
L 468.315164 377.105195 
L 467.672727 384.48 
L 467.672727 384.48 
" clip-path="url(#p24edfa99d5)" style="fill: none; stroke: #808080; stroke-width: 0.8"/>
    <path d="M 473.500991 340.31786 
L 474.987551 347.624935 
L 476.175663 354.962036 
L 477.060459 362.322918 
L 477.634482 369.701101 
L 477.889753 377.089407 
L 477.818182 384.48 
L 477.818182 384.48 
" clip-path="url(#p24edfa99d5)" style="fill: none; stroke: #808080; stroke-width: 0.8"/>
    <path d="M 437.181742 252.932392 
L 442.2435 259.286879 
L 447.1482 265.708569 
L 451.885457 272.19973 
L 456.445081 278.761471 
L 460.817553 285.393964 
L 464.994202 292.096598 
L 468.967255 298.868109 
L 472.72751 305.706865 
L 476.265995 312.610807 
L 479.575788 319.577332 
L 482.652149 326.603388 
L 485.487671 333.685614 
L 488.075088 340.82041 
L 490.410113 348.003454 
L 492.488215 355.230122 
L 494.302706 362.495934 
L 495.848838 369.796348 
L 497.119884 377.126198 
L 498.109091 384.48 
L 498.109091 384.48 
" clip-path="url(#p24edfa99d5)" style="fill: none; stroke: #808080; stroke-width: 0.8"/>
    <path d="M 466.006799 281.295034 
L 470.901014 287.722281 
L 475.618019 294.223031 
L 480.151692 300.796088 
L 484.496246 307.439874 
L 488.646327 314.152467 
L 492.597059 320.931647 
L 496.344064 327.774944 
L 499.882286 334.679752 
L 503.205974 341.643333 
L 506.310332 348.662734 
L 509.192373 355.734751 
L 511.846948 362.856031 
L 514.269156 370.023143 
L 516.454882 377.232385 
L 518.4 384.48 
L 518.4 384.48 
" clip-path="url(#p24edfa99d5)" style="fill: none; stroke: #808080; stroke-width: 0.8"/>
    <path d="M 477.976575 287.47587 
L 483.16598 293.774715 
L 488.189589 300.147539 
L 493.044988 306.592055 
L 497.727494 313.107146 
L 502.232638 319.691332 
L 506.556212 326.342832 
L 510.694302 333.059624 
L 514.643317 339.839479 
L 518.4 346.68 
L 518.4 346.68 
" clip-path="url(#p24edfa99d5)" style="fill: none; stroke: #808080; stroke-width: 0.8"/>
    <path d="M 417.239993 225.791748 
L 424.225299 230.967333 
L 431.222058 236.186901 
L 438.137654 241.472098 
L 444.983082 246.814225 
L 451.735296 252.22458 
L 458.397221 257.69647 
L 464.952606 263.241332 
L 471.397355 268.858005 
L 477.72831 274.546302 
L 483.936405 280.310404 
L 490.015323 286.150199 
L 495.968101 292.061683 
L 501.787072 298.046828 
L 507.46577 304.106435 
L 513.003543 310.238355 
L 518.4 316.44 
L 518.4 316.44 
" clip-path="url(#p24edfa99d5)" style="fill: none; stroke: #808080; stroke-width: 0.8"/>
    <path d="M 469.308696 257.204505 
L 476.597649 262.2157 
L 483.798928 267.296714 
L 490.910608 272.448149 
L 497.929821 277.669456 
L 504.852601 282.96232 
L 511.677389 288.32533 
L 518.4 293.76 
L 518.4 293.76 
" clip-path="url(#p24edfa99d5)" style="fill: none; stroke: #808080; stroke-width: 0.8"/>
    <path d="M 426.94634 226.8717 
L 435.448659 230.653184 
L 443.937359 234.457511 
L 452.397348 238.302101 
L 460.820762 242.19553 
L 469.202252 246.143238 
L 477.536425 250.149892 
L 485.818843 254.216198 
L 494.047834 258.340715 
L 502.22185 262.525612 
L 510.339285 266.772664 
L 518.4 271.08 
L 518.4 271.08 
" clip-path="url(#p24edfa99d5)" style="fill: none; stroke: #808080; stroke-width: 0.8"/>
    <path d="M 455.655053 233.824909 
L 464.703758 236.848948 
L 473.726239 239.919493 
L 482.720967 243.034712 
L 491.686805 246.194947 
L 500.622591 249.401941 
L 509.52729 252.656752 
L 518.4 255.96 
L 518.4 255.96 
" clip-path="url(#p24edfa99d5)" style="fill: none; stroke: #808080; stroke-width: 0.8"/>
    <path d="M 411.884348 218.716606 
L 411.884348 218.716606 
L 420.929575 219.941494 
L 430.670164 221.220041 
L 440.41386 222.484728 
L 450.170801 223.769827 
L 459.928788 225.066293 
L 469.685109 226.38185 
L 479.438056 227.720191 
L 489.185312 229.078156 
L 498.928483 230.457823 
L 508.666591 231.858225 
L 518.4 233.28 
L 518.4 233.28 
" clip-path="url(#p24edfa99d5)" style="fill: none; stroke: #808080; stroke-width: 0.8"/>
    <path d="M 439.10181 218.16 
L 449.001524 218.16 
L 458.90904 218.16 
L 468.820542 218.16 
L 478.734325 218.16 
L 488.649531 218.16 
L 498.565715 218.16 
L 508.482598 218.16 
L 518.4 218.16 
L 518.4 218.16 
" clip-path="url(#p24edfa99d5)" style="fill: none; stroke: #808080; stroke-width: 0.8"/>
    <path d="M 469.03446 214.087784 
L 478.909139 213.411874 
L 488.784402 212.724415 
L 498.657777 212.026729 
L 508.529293 211.31874 
L 518.4 210.6 
L 518.4 210.6 
" clip-path="url(#p24edfa99d5)" style="fill: none; stroke: #808080; stroke-width: 0.8"/>
    <path d="M 432.416318 213.243207 
L 442.001831 211.376615 
L 451.584038 209.496453 
L 461.159607 207.581616 
L 470.725161 205.640748 
L 480.28187 203.669038 
L 489.827876 201.668005 
L 499.363596 199.635951 
L 508.887945 197.572723 
L 518.4 195.48 
L 518.4 195.48 
" clip-path="url(#p24edfa99d5)" style="fill: none; stroke: #808080; stroke-width: 0.8"/>
    <path d="M 473.726239 196.400507 
L 482.720967 193.285288 
L 491.686805 190.125053 
L 500.622591 186.918059 
L 509.52729 183.663248 
L 518.4 180.36 
L 518.4 180.36 
" clip-path="url(#p24edfa99d5)" style="fill: none; stroke: #808080; stroke-width: 0.8"/>
    <path d="M 418.476891 213.23526 
L 426.94634 209.4483 
L 435.448659 205.666816 
L 443.937359 201.862489 
L 452.397348 198.017899 
L 460.820762 194.12447 
L 469.202252 190.176762 
L 477.536425 186.170108 
L 485.818843 182.103802 
L 494.047834 177.979285 
L 502.22185 173.794388 
L 510.339285 169.547336 
L 518.4 165.24 
L 518.4 165.24 
" clip-path="url(#p24edfa99d5)" style="fill: none; stroke: #808080; stroke-width: 0.8"/>
    <path d="M 474.106484 179.718432 
L 481.689235 174.954948 
L 489.195489 170.125082 
L 496.621444 165.226241 
L 503.966289 160.25962 
L 511.226021 155.223923 
L 518.4 150.12 
L 518.4 150.12 
" clip-path="url(#p24edfa99d5)" style="fill: none; stroke: #808080; stroke-width: 0.8"/>
    <path d="M 450.83025 189.010649 
L 458.027905 183.928506 
L 465.137038 178.777764 
L 472.155967 173.557381 
L 479.07939 168.266582 
L 485.902106 162.902725 
L 492.621237 157.46648 
L 499.233884 151.958369 
L 505.735911 146.37702 
L 512.125076 140.723909 
L 518.4 135 
L 518.4 135 
" clip-path="url(#p24edfa99d5)" style="fill: none; stroke: #808080; stroke-width: 0.8"/>
    <path d="M 490.015323 150.169801 
L 495.968101 144.258317 
L 501.787072 138.273172 
L 507.46577 132.213565 
L 513.003543 126.081645 
L 518.4 119.88 
L 518.4 119.88 
" clip-path="url(#p24edfa99d5)" style="fill: none; stroke: #808080; stroke-width: 0.8"/>
    <path d="M 451.441118 179.028996 
L 457.482864 173.169355 
L 463.397903 167.238554 
L 469.184067 161.236898 
L 474.827369 155.159862 
L 480.319095 149.005977 
L 485.657094 142.776966 
L 490.839623 136.47527 
L 495.862579 130.102044 
L 500.719381 123.657736 
L 505.404921 117.143504 
L 509.915738 110.561132 
L 514.248488 103.912588 
L 518.4 97.2 
L 518.4 97.2 
" clip-path="url(#p24edfa99d5)" style="fill: none; stroke: #808080; stroke-width: 0.8"/>
    <path d="M 497.272139 115.943824 
L 501.301474 109.190209 
L 505.13364 102.372925 
L 508.763637 95.494387 
L 512.186745 88.557347 
L 515.399671 81.564875 
L 518.4 74.52 
L 518.4 74.52 
" clip-path="url(#p24edfa99d5)" style="fill: none; stroke: #808080; stroke-width: 0.8"/>
    <path d="M 418.495203 206.137074 
L 424.200116 200.110762 
L 429.856606 194.051131 
L 435.404251 187.935065 
L 440.834732 181.756758 
L 446.135333 175.512076 
L 451.287104 169.196748 
L 456.272419 162.807866 
L 461.087446 156.347151 
L 465.72544 149.815074 
L 470.178036 143.211674 
L 474.437671 136.537778 
L 478.497564 129.794823 
L 482.351671 122.984736 
L 485.992081 116.109647 
L 489.411486 109.172023 
L 492.605272 102.174889 
L 495.570111 95.121792 
L 498.300687 88.016494 
L 500.791331 80.862526 
L 503.037193 73.663758 
L 505.033332 66.424156 
L 506.774311 59.148059 
L 508.254545 51.84 
L 508.254545 51.84 
" clip-path="url(#p24edfa99d5)" style="fill: none; stroke: #808080; stroke-width: 0.8"/>
    <path d="M 476.06896 110.165148 
L 478.526029 103.005134 
L 480.718154 95.797409 
L 482.63928 88.546638 
L 484.283362 81.258253 
L 485.644052 73.937739 
L 486.715989 66.590378 
L 487.491756 59.222257 
L 487.963636 51.84 
L 487.963636 51.84 
" clip-path="url(#p24edfa99d5)" style="fill: none; stroke: #808080; stroke-width: 0.8"/>
    <path d="M 436.646296 173.990887 
L 440.555286 167.200778 
L 444.258425 160.346996 
L 447.743719 153.429606 
L 451.000886 146.449626 
L 454.015105 139.408998 
L 456.773313 132.310495 
L 459.26855 125.157932 
L 461.491473 117.955727 
L 463.430564 110.708356 
L 465.077517 103.420721 
L 466.421011 96.098754 
L 467.452297 88.748675 
L 468.165134 81.377409 
L 468.552623 73.992557 
L 468.605624 66.602115 
L 468.315164 59.214805 
L 467.672727 51.84 
L 467.672727 51.84 
" clip-path="url(#p24edfa99d5)" style="fill: none; stroke: #808080; stroke-width: 0.8"/>
    <path d="M 457.364947 110.767104 
L 458.579173 103.432928 
L 459.471347 96.072671 
L 460.030921 88.693839 
L 460.248439 81.305194 
L 460.116259 73.915597 
L 459.625021 66.534408 
L 458.765156 59.172078 
L 457.527273 51.84 
L 457.527273 51.84 
" clip-path="url(#p24edfa99d5)" style="fill: none; stroke: #808080; stroke-width: 0.8"/>
    <path d="M 418.699256 196.306572 
L 422.204135 189.399962 
L 425.548517 182.449218 
L 428.718894 175.44993 
L 431.68811 168.400453 
L 434.427396 161.299773 
L 436.919196 154.14783 
L 439.144789 146.946838 
L 441.083477 139.700086 
L 442.722094 132.411661 
L 444.045066 125.088121 
L 445.041964 117.73612 
L 445.699456 110.362611 
L 446.003514 102.97595 
L 445.940195 95.585795 
L 445.498079 88.203036 
L 444.666987 80.839428 
L 443.435635 73.507324 
L 441.793823 66.219711 
L 439.730568 58.991982 
L 437.236364 51.84 
L 437.236364 51.84 
" clip-path="url(#p24edfa99d5)" style="fill: none; stroke: #808080; stroke-width: 0.8"/>
    <path d="M 433.407981 138.643902 
L 434.239847 131.280665 
L 434.721233 123.900486 
L 434.835037 116.512095 
L 434.56446 109.125846 
L 433.895293 101.753521 
L 432.815195 94.407965 
L 431.309176 87.104454 
L 429.363142 79.85926 
L 426.964628 72.689953 
L 424.102395 65.615493 
L 420.76562 58.657776 
L 416.945455 51.84 
L 416.945455 51.84 
" clip-path="url(#p24edfa99d5)" style="fill: none; stroke: #808080; stroke-width: 0.8"/>
    <path d="M 424.192536 158.46191 
L 425.225816 151.113361 
L 425.93099 143.743867 
L 426.285695 136.360224 
L 426.268354 128.971615 
L 425.860682 121.589216 
L 425.04514 114.225639 
L 423.803319 106.894695 
L 422.116469 99.613528 
L 419.967723 92.400455 
L 417.342315 85.275798 
L 414.227635 78.261409 
L 410.611461 71.381683 
L 406.482395 64.664856 
L 401.832035 58.140326 
L 396.654545 51.84 
L 396.654545 51.84 
" clip-path="url(#p24edfa99d5)" style="fill: none; stroke: #808080; stroke-width: 0.8"/>
    <path d="M 414.020035 191.438496 
L 415.680005 184.158077 
L 417.119175 176.851607 
L 418.307139 169.518299 
L 419.217537 162.159836 
L 419.820369 154.783795 
L 420.085243 147.397598 
L 419.985995 140.009182 
L 419.497598 132.628905 
L 418.597524 125.27013 
L 417.26525 117.948413 
L 415.479718 110.68086 
L 413.221161 103.486986 
L 410.471313 96.388464 
L 407.213059 89.410877 
L 403.431699 82.582131 
L 399.115214 75.932242 
L 394.254149 69.494779 
L 388.842397 63.306427 
L 382.877836 57.406879 
L 376.363636 51.84 
L 376.363636 51.84 
" clip-path="url(#p24edfa99d5)" style="fill: none; stroke: #808080; stroke-width: 0.8"/>
    <path d="M 398.715448 91.918633 
L 394.3138 85.300256 
L 389.350928 78.906545 
L 383.819616 72.77746 
L 377.718174 66.957055 
L 371.050321 61.493296 
L 363.828416 56.436949 
L 356.072727 51.84 
L 356.072727 51.84 
" clip-path="url(#p24edfa99d5)" style="fill: none; stroke: #808080; stroke-width: 0.8"/>
    <path d="M 411.364146 141.663107 
L 409.995746 134.345163 
L 408.17749 127.081968 
L 405.882815 119.894386 
L 403.087765 112.80627 
L 399.770396 105.845065 
L 395.911569 99.040413 
L 391.494724 92.426885 
L 386.506994 86.043436 
L 380.93998 79.932883 
L 374.790306 74.141382 
L 368.061651 68.720009 
L 360.766618 63.721979 
L 352.929251 59.204265 
L 344.584748 55.225042 
L 335.781818 51.84 
L 335.781818 51.84 
" clip-path="url(#p24edfa99d5)" style="fill: none; stroke: #808080; stroke-width: 0.8"/>
    <path d="M 350.925188 65.302821 
L 342.534008 61.376537 
L 333.679976 58.063847 
L 324.430349 55.420334 
L 314.867851 53.494113 
L 305.089186 52.32266 
L 295.2 51.84 
L 295.2 51.84 
" clip-path="url(#p24edfa99d5)" style="fill: none; stroke: #808080; stroke-width: 0.8"/>
    <path d="M 387.706883 321.189271 
L 383.018182 327.697797 
L 377.733472 333.946444 
L 371.841843 339.884465 
L 365.339613 345.456763 
L 358.233163 350.601549 
L 350.541293 355.253694 
L 342.296988 359.347008 
L 333.550395 362.813452 
L 324.371723 365.588395 
L 314.848438 367.615547 
L 305.085662 368.850554 
L 295.2 369.36 
" clip-path="url(#p24edfa99d5)" style="fill: none; stroke: #808080; stroke-width: 0.8"/>
    <path d="M 399.467062 132.214277 
L 396.447389 125.177553 
L 392.896298 118.279898 
L 388.789243 111.557226 
L 384.105175 105.048053 
L 378.827385 98.796248 
L 372.946383 92.851886 
L 366.459819 87.269582 
L 359.374233 82.108913 
L 351.707406 77.43196 
L 343.493328 73.304963 
L 334.78103 69.793733 
L 325.636364 66.96 
L 316.142306 64.858286 
L 306.398535 63.533456 
L 296.519159 62.978071 
" clip-path="url(#p24edfa99d5)" style="fill: none; stroke: #808080; stroke-width: 0.8"/>
    <path d="M 343.394972 81.012581 
L 334.741167 77.422749 
L 325.636364 74.52 
L 316.165322 72.363344 
L 306.431683 71.001219 
L 296.554696 70.429682 
" clip-path="url(#p24edfa99d5)" style="fill: none; stroke: #808080; stroke-width: 0.8"/>
    <path d="M 400.477276 269.434775 
L 398.489585 276.672329 
L 396.08564 283.839104 
L 393.223502 290.912474 
L 389.865934 297.862212 
L 385.977117 304.655889 
L 381.525215 311.254501 
L 376.483564 317.612396 
L 370.831676 323.677841 
L 364.557063 329.39278 
L 357.658077 334.692088 
L 350.147108 339.504415 
L 342.050258 343.756149 
L 333.414261 347.371132 
L 324.309446 350.275719 
L 314.827664 352.403985 
L 305.081899 353.703429 
L 295.2 354.24 
" clip-path="url(#p24edfa99d5)" style="fill: none; stroke: #808080; stroke-width: 0.8"/>
    <path d="M 407.919989 214.203171 
L 407.919989 214.203171 
L 406.451061 207.308217 
L 406.099417 199.956035 
L 405.631398 192.579466 
L 404.973091 185.207595 
L 404.070228 177.85251 
L 402.871505 170.521383 
L 401.329213 163.223684 
L 399.39982 155.97707 
L 397.042299 148.80125 
L 394.218023 141.720148 
L 390.891103 134.762135 
L 387.027706 127.95935 
L 382.598384 121.350857 
L 377.578793 114.982003 
L 371.950396 108.904001 
L 365.702206 103.172959 
L 358.83374 97.85216 
L 351.355912 93.009472 
L 343.295675 88.717704 
L 334.700669 85.050983 
L 325.636364 82.08 
L 316.189 79.868302 
L 306.465879 78.468556 
L 296.591369 77.880722 
" clip-path="url(#p24edfa99d5)" style="fill: none; stroke: #808080; stroke-width: 0.8"/>
    <path d="M 343.196386 96.419074 
L 334.659922 92.677855 
L 325.636364 89.64 
L 316.213117 87.373791 
L 306.500724 85.936686 
L 296.628857 85.33253 
" clip-path="url(#p24edfa99d5)" style="fill: none; stroke: #808080; stroke-width: 0.8"/>
    <path d="M 388.419435 281.566447 
L 384.622884 288.389489 
L 380.302342 295.036241 
L 375.419512 301.46264 
L 369.942135 307.61718 
L 363.847674 313.439377 
L 357.123578 318.861499 
L 349.77179 323.807944 
L 341.810441 328.198013 
L 333.279962 331.947479 
L 324.247243 334.97236 
L 314.806758 337.196139 
L 305.078065 338.557155 
L 295.2 339.12 
" clip-path="url(#p24edfa99d5)" style="fill: none; stroke: #808080; stroke-width: 0.8"/>
    <path d="M 377.377112 128.123248 
L 371.988826 121.925635 
L 365.981719 116.053398 
L 359.346102 110.570984 
L 352.084252 105.549286 
L 344.216471 101.065786 
L 335.781818 97.2 
L 326.839968 94.030235 
" clip-path="url(#p24edfa99d5)" style="fill: none; stroke: #808080; stroke-width: 0.8"/>
    <path d="M 344.15755 108.69567 
L 335.781818 104.76 
L 326.883027 101.524489 
L 317.548086 99.068186 
L 307.888467 97.45713 
L 298.036921 96.738206 
" clip-path="url(#p24edfa99d5)" style="fill: none; stroke: #808080; stroke-width: 0.8"/>
    <path d="M 400.138911 237.725817 
L 397.480311 244.834137 
L 394.598375 251.896503 
L 391.434146 258.894705 
L 387.92064 265.803614 
L 384.007962 272.591221 
L 379.641656 279.222137 
L 374.769352 285.654013 
L 369.346063 291.836078 
L 363.336544 297.708091 
L 356.715788 303.200611 
L 349.471831 308.234862 
L 341.611541 312.724117 
L 333.164902 316.576212 
L 324.192695 319.697537 
L 314.788064 322.000876 
L 305.074615 323.414523 
L 295.2 324 
" clip-path="url(#p24edfa99d5)" style="fill: none; stroke: #808080; stroke-width: 0.8"/>
    <path d="M 399.979706 192.314375 
L 397.720064 185.126512 
L 395.187647 177.987648 
L 392.324666 170.915071 
L 389.078609 163.934992 
L 385.400243 157.07677 
L 381.237876 150.37417 
L 376.546546 143.868884 
L 371.287344 137.610204 
L 365.427747 131.655122 
L 358.947076 126.070434 
L 351.836021 120.930382 
L 344.104036 116.317735 
L 335.781818 112.32 
L 326.923021 109.024776 
L 317.61378 106.51622 
L 307.967072 104.865584 
L 298.119588 104.12398 
" clip-path="url(#p24edfa99d5)" style="fill: none; stroke: #808080; stroke-width: 0.8"/>
    <path d="M 369.23441 284.111963 
L 363.212634 289.977383 
L 356.599979 295.475678 
L 349.376898 300.526969 
L 341.543678 305.04241 
L 333.123359 308.926121 
L 324.172165 312.080224 
L 314.780823 314.412371 
L 305.073252 315.845817 
L 295.2 316.44 
" clip-path="url(#p24edfa99d5)" style="fill: none; stroke: #808080; stroke-width: 0.8"/>
    <path d="M 344.059051 123.928951 
L 335.781818 119.88 
L 326.957964 116.533615 
L 317.671771 113.979152 
L 308.036818 112.293214 
L 298.193093 111.531084 
" clip-path="url(#p24edfa99d5)" style="fill: none; stroke: #808080; stroke-width: 0.8"/>
    <path d="M 388.204022 178.091476 
L 384.127714 171.35852 
L 379.645061 164.771069 
L 374.697624 158.370864 
L 369.23441 152.208037 
L 363.212634 146.342617 
L 356.599979 140.844322 
L 349.376898 135.793031 
L 341.543678 131.27759 
L 333.123359 127.393879 
L 324.172165 124.239776 
L 314.780823 121.907629 
L 305.073252 120.474183 
L 295.2 119.88 
" clip-path="url(#p24edfa99d5)" style="fill: none; stroke: #808080; stroke-width: 0.8"/>
    <path d="M 379.949864 264.092312 
L 374.86263 270.431048 
L 369.301542 276.545344 
L 363.217287 282.375445 
L 356.571785 287.852253 
L 349.33803 292.895541 
L 341.50871 297.415085 
L 333.098989 301.311672 
L 324.159065 304.483385 
L 314.775937 306.833269 
L 305.07231 308.279878 
L 295.2 308.88 
" clip-path="url(#p24edfa99d5)" style="fill: none; stroke: #808080; stroke-width: 0.8"/>
    <path d="M 369.301542 159.774656 
L 363.217287 153.944555 
L 356.571785 148.467747 
L 349.33803 143.424459 
L 341.50871 138.904915 
L 333.098989 135.008328 
L 324.159065 131.836615 
L 314.775937 129.486731 
L 305.07231 128.040122 
L 295.2 127.44 
" clip-path="url(#p24edfa99d5)" style="fill: none; stroke: #808080; stroke-width: 0.8"/>
    <path d="M 356.656306 280.360299 
L 349.3733 285.364621 
L 341.517568 289.859371 
L 333.097844 293.744606 
L 324.156244 296.914152 
L 314.77441 299.267022 
L 305.071953 300.717643 
L 295.2 301.32 
" clip-path="url(#p24edfa99d5)" style="fill: none; stroke: #808080; stroke-width: 0.8"/>
    <path d="M 356.656306 155.959701 
L 349.3733 150.955379 
L 341.517568 146.460629 
L 333.097844 142.575394 
L 324.156244 139.405848 
L 314.77441 137.052978 
L 305.071953 135.602357 
L 295.2 135 
" clip-path="url(#p24edfa99d5)" style="fill: none; stroke: #808080; stroke-width: 0.8"/>
    <path d="M 387.054595 243.862635 
L 381.731096 250.093539 
L 376.122264 256.182006 
L 370.147537 262.074567 
L 363.751194 267.716095 
L 356.883313 273.039834 
L 349.503599 277.965555 
L 341.584835 282.399594 
L 333.127678 286.240674 
L 324.167154 289.381547 
L 314.777335 291.717784 
L 305.072385 293.16033 
L 295.2 293.76 
" clip-path="url(#p24edfa99d5)" style="fill: none; stroke: #808080; stroke-width: 0.8"/>
    <path d="M 396.654545 225.72 
L 396.654545 225.72 
L 389.484968 230.773554 
L 382.300552 235.844827 
L 374.951626 240.7968 
L 367.412232 245.590049 
L 359.624891 250.160155 
L 351.534093 254.429777 
L 343.098579 258.309643 
L 334.30147 261.709832 
L 325.142948 264.52608 
L 315.658184 266.655492 
L 305.921515 268.005951 
L 296.044033 268.573645 
" clip-path="url(#p24edfa99d5)" style="fill: none; stroke: #808080; stroke-width: 0.8"/>
    <path d="M 401.171889 218.16 
L 401.171889 218.16 
L 396.654545 218.16 
L 396.654545 218.16 
L 386.884195 218.16 
L 377.010026 218.16 
L 367.111207 218.16 
L 357.202755 218.16 
L 347.289507 218.16 
L 337.373522 218.16 
L 327.45584 218.16 
L 317.537046 218.16 
L 307.617545 218.16 
L 297.697667 218.16 
" clip-path="url(#p24edfa99d5)" style="fill: none; stroke: #808080; stroke-width: 0.8"/>
    <path d="M 396.654545 210.6 
L 396.654545 210.6 
L 389.484968 205.546446 
L 382.300552 200.475173 
L 374.951626 195.5232 
L 367.412232 190.729951 
L 359.624891 186.159845 
L 351.534093 181.890223 
L 343.098579 178.010357 
L 334.30147 174.610168 
L 325.142948 171.79392 
L 315.658184 169.664508 
L 305.921515 168.314049 
L 296.044033 167.746355 
" clip-path="url(#p24edfa99d5)" style="fill: none; stroke: #808080; stroke-width: 0.8"/>
    <path d="M 387.054595 192.457365 
L 381.731096 186.226461 
L 376.122264 180.137994 
L 370.147537 174.245433 
L 363.751194 168.603905 
L 356.883313 163.280166 
L 349.503599 158.354445 
L 341.584835 153.920406 
L 333.127678 150.079326 
L 324.167154 146.938453 
L 314.777335 144.602216 
L 305.072385 143.15967 
L 295.2 142.56 
" clip-path="url(#p24edfa99d5)" style="fill: none; stroke: #808080; stroke-width: 0.8"/>
    <path d="M 386.509091 225.72 
L 377.607452 228.933117 
L 368.632574 232.055373 
L 359.566381 235.037623 
L 350.385285 237.823328 
L 341.067261 240.347479 
L 331.597017 242.534172 
L 321.97189 244.301343 
L 312.208687 245.576324 
L 302.344641 246.298152 
" clip-path="url(#p24edfa99d5)" style="fill: none; stroke: #808080; stroke-width: 0.8"/>
    <path d="M 386.509091 210.6 
L 377.607452 207.386883 
L 368.632574 204.264627 
L 359.566381 201.282377 
L 350.385285 198.496672 
L 341.067261 195.972521 
L 331.597017 193.785828 
L 321.97189 192.018657 
L 312.208687 190.743676 
L 302.344641 190.021848 
" clip-path="url(#p24edfa99d5)" style="fill: none; stroke: #808080; stroke-width: 0.8"/>
    <path d="M 350.117217 263.699154 
L 341.93835 267.867036 
L 333.307277 271.49172 
L 324.243019 274.467909 
L 314.800991 276.690388 
L 305.07655 278.06709 
L 295.2 278.64 
" clip-path="url(#p24edfa99d5)" style="fill: none; stroke: #808080; stroke-width: 0.8"/>
    <path d="M 376.363636 187.92 
L 369.817254 182.374137 
L 362.927042 177.06285 
L 355.63805 172.057396 
L 347.902801 167.439838 
L 339.696164 163.302814 
L 331.014274 159.749972 
L 321.885502 156.891709 
L 312.379869 154.83235 
L 302.608436 153.657206 
" clip-path="url(#p24edfa99d5)" style="fill: none; stroke: #808080; stroke-width: 0.8"/>
    <path d="M 366.218182 225.72 
L 356.552832 227.357012 
L 346.84697 228.866964 
L 337.095965 230.212303 
L 327.296493 231.34829 
L 317.449915 232.226663 
L 307.563586 232.807679 
L 297.65229 233.061325 
" clip-path="url(#p24edfa99d5)" style="fill: none; stroke: #808080; stroke-width: 0.8"/>
    <path d="M 366.218182 210.6 
L 356.552832 208.962988 
L 346.84697 207.453036 
L 337.095965 206.107697 
L 327.296493 204.97171 
L 317.449915 204.093337 
L 307.563586 203.512321 
L 297.65229 203.258675 
" clip-path="url(#p24edfa99d5)" style="fill: none; stroke: #808080; stroke-width: 0.8"/>
    <path d="M 360.684808 240.718051 
L 351.987123 244.263726 
L 343.073397 247.496071 
L 333.918722 250.328264 
L 324.51716 252.66554 
L 314.891134 254.41773 
L 305.092729 255.505992 
L 295.2 255.96 
" clip-path="url(#p24edfa99d5)" style="fill: none; stroke: #808080; stroke-width: 0.8"/>
    <path d="M 345.927273 187.92 
L 336.92639 184.826389 
L 327.656159 182.214631 
L 318.131628 180.17928 
L 308.397603 178.809712 
L 298.529922 178.171849 
" clip-path="url(#p24edfa99d5)" style="fill: none; stroke: #808080; stroke-width: 0.8"/>
   </g>
   <g id="patch_3">
    <path d="M 400.258532 319.283974 
Q 399.861859 320.122613 399.847623 320.15271 
" clip-path="url(#p24edfa99d5)" style="fill: none; stroke: #808080; stroke-width: 0.8; stroke-linecap: round"/>
    <path d="M 403.365894 317.391955 
L 399.847623 320.15271 
L 399.749981 315.68164 
z
" clip-path="url(#p24edfa99d5)" style="fill: #808080; stroke: #808080; stroke-width: 0.8; stroke-linecap: round"/>
   </g>
   <g id="patch_4">
    <path d="M 380.700359 361.028956 
Q 380.619956 361.104993 381.189405 360.566463 
" clip-path="url(#p24edfa99d5)" style="fill: none; stroke: #808080; stroke-width: 0.8; stroke-linecap: round"/>
    <path d="M 385.469843 359.271146 
L 381.189405 360.566463 
L 382.721415 356.364922 
z
" clip-path="url(#p24edfa99d5)" style="fill: #808080; stroke: #808080; stroke-width: 0.8; stroke-linecap: round"/>
   </g>
   <g id="patch_5">
    <path d="M 418.239085 313.019726 
Q 418.085236 313.865227 418.091509 313.830751 
" clip-path="url(#p24edfa99d5)" style="fill: none; stroke: #808080; stroke-width: 0.8; stroke-linecap: round"/>
    <path d="M 420.775289 310.253415 
L 418.091509 313.830751 
L 416.839909 309.537326 
z
" clip-path="url(#p24edfa99d5)" style="fill: #808080; stroke: #808080; stroke-width: 0.8; stroke-linecap: round"/>
   </g>
   <g id="patch_6">
    <path d="M 424.711037 324.0667 
Q 424.567633 324.913267 424.573612 324.877969 
" clip-path="url(#p24edfa99d5)" style="fill: none; stroke: #808080; stroke-width: 0.8; stroke-linecap: round"/>
    <path d="M 427.213582 321.268182 
L 424.573612 324.877969 
L 423.269765 320.600121 
z
" clip-path="url(#p24edfa99d5)" style="fill: #808080; stroke: #808080; stroke-width: 0.8; stroke-linecap: round"/>
   </g>
   <g id="patch_7">
    <path d="M 433.604701 336.542749 
Q 433.479973 337.391003 433.485363 337.354345 
" clip-path="url(#p24edfa99d5)" style="fill: none; stroke: #808080; stroke-width: 0.8; stroke-linecap: round"/>
    <path d="M 436.045993 333.687851 
L 433.485363 337.354345 
L 432.088546 333.105944 
z
" clip-path="url(#p24edfa99d5)" style="fill: #808080; stroke: #808080; stroke-width: 0.8; stroke-linecap: round"/>
   </g>
   <g id="patch_8">
    <path d="M 434.583642 365.073581 
Q 434.32007 365.918792 434.322771 365.91013 
" clip-path="url(#p24edfa99d5)" style="fill: none; stroke: #808080; stroke-width: 0.8; stroke-linecap: round"/>
    <path d="M 437.422898 362.6869 
L 434.322771 365.91013 
L 433.604263 361.49609 
z
" clip-path="url(#p24edfa99d5)" style="fill: #808080; stroke: #808080; stroke-width: 0.8; stroke-linecap: round"/>
   </g>
   <g id="patch_9">
    <path d="M 449.323074 312.966049 
Q 449.487741 313.81421 449.481941 313.784338 
" clip-path="url(#p24edfa99d5)" style="fill: none; stroke: #808080; stroke-width: 0.8; stroke-linecap: round"/>
    <path d="M 450.682933 309.476483 
L 449.481941 313.784338 
L 446.756252 310.238832 
z
" clip-path="url(#p24edfa99d5)" style="fill: #808080; stroke: #808080; stroke-width: 0.8; stroke-linecap: round"/>
   </g>
   <g id="patch_10">
    <path d="M 466.698471 342.198733 
Q 466.817562 343.047509 466.812375 343.010535 
" clip-path="url(#p24edfa99d5)" style="fill: none; stroke: #808080; stroke-width: 0.8; stroke-linecap: round"/>
    <path d="M 468.23718 338.771439 
L 466.812375 343.010535 
L 464.275981 339.327233 
z
" clip-path="url(#p24edfa99d5)" style="fill: #808080; stroke: #808080; stroke-width: 0.8; stroke-linecap: round"/>
   </g>
   <g id="patch_11">
    <path d="M 477.215456 364.315172 
Q 477.281463 365.163591 477.278094 365.120277 
" clip-path="url(#p24edfa99d5)" style="fill: none; stroke: #808080; stroke-width: 0.8; stroke-linecap: round"/>
    <path d="M 478.961805 360.977197 
L 477.278094 365.120277 
L 474.973856 361.28746 
z
" clip-path="url(#p24edfa99d5)" style="fill: #808080; stroke: #808080; stroke-width: 0.8; stroke-linecap: round"/>
   </g>
   <g id="patch_12">
    <path d="M 477.124149 314.417069 
Q 477.52252 315.255569 477.537066 315.286185 
" clip-path="url(#p24edfa99d5)" style="fill: none; stroke: #808080; stroke-width: 0.8; stroke-linecap: round"/>
    <path d="M 477.62703 310.814954 
L 477.537066 315.286185 
L 474.014059 312.531475 
z
" clip-path="url(#p24edfa99d5)" style="fill: #808080; stroke: #808080; stroke-width: 0.8; stroke-linecap: round"/>
   </g>
   <g id="patch_13">
    <path d="M 497.254534 329.551719 
Q 497.683854 330.389533 497.70528 330.431345 
" clip-path="url(#p24edfa99d5)" style="fill: none; stroke: #808080; stroke-width: 0.8; stroke-linecap: round"/>
    <path d="M 497.661036 325.959428 
L 497.70528 330.431345 
L 494.1012 327.78359 
z
" clip-path="url(#p24edfa99d5)" style="fill: #808080; stroke: #808080; stroke-width: 0.8; stroke-linecap: round"/>
   </g>
   <g id="patch_14">
    <path d="M 498.85598 314.756408 
Q 499.418023 315.577823 499.474984 315.661071 
" clip-path="url(#p24edfa99d5)" style="fill: none; stroke: #808080; stroke-width: 0.8; stroke-linecap: round"/>
    <path d="M 498.866783 311.230485 
L 499.474984 315.661071 
L 495.565595 313.489281 
z
" clip-path="url(#p24edfa99d5)" style="fill: #808080; stroke: #808080; stroke-width: 0.8; stroke-linecap: round"/>
   </g>
   <g id="patch_15">
    <path d="M 472.884264 270.193978 
Q 472.980978 270.280874 472.412371 269.769986 
" clip-path="url(#p24edfa99d5)" style="fill: none; stroke: #808080; stroke-width: 0.8; stroke-linecap: round"/>
    <path d="M 470.773648 265.608906 
L 472.412371 269.769986 
L 468.100273 268.584317 
z
" clip-path="url(#p24edfa99d5)" style="fill: #808080; stroke: #808080; stroke-width: 0.8; stroke-linecap: round"/>
   </g>
   <g id="patch_16">
    <path d="M 492.518035 273.643849 
Q 492.668501 273.755774 492.101315 273.333867 
" clip-path="url(#p24edfa99d5)" style="fill: none; stroke: #808080; stroke-width: 0.8; stroke-linecap: round"/>
    <path d="M 490.085564 269.341782 
L 492.101315 273.333867 
L 487.698196 272.551217 
z
" clip-path="url(#p24edfa99d5)" style="fill: #808080; stroke: #808080; stroke-width: 0.8; stroke-linecap: round"/>
   </g>
   <g id="patch_17">
    <path d="M 471.005005 247.009912 
Q 471.285539 247.144778 470.759962 246.892107 
" clip-path="url(#p24edfa99d5)" style="fill: none; stroke: #808080; stroke-width: 0.8; stroke-linecap: round"/>
    <path d="M 468.021486 243.356467 
L 470.759962 246.892107 
L 466.288364 246.961504 
z
" clip-path="url(#p24edfa99d5)" style="fill: #808080; stroke: #808080; stroke-width: 0.8; stroke-linecap: round"/>
   </g>
   <g id="patch_18">
    <path d="M 484.60782 243.699781 
Q 484.961484 243.824438 484.471587 243.651762 
" clip-path="url(#p24edfa99d5)" style="fill: none; stroke: #808080; stroke-width: 0.8; stroke-linecap: round"/>
    <path d="M 481.363933 240.435788 
L 484.471587 243.651762 
L 480.034216 244.208301 
z
" clip-path="url(#p24edfa99d5)" style="fill: #808080; stroke: #808080; stroke-width: 0.8; stroke-linecap: round"/>
   </g>
   <g id="patch_19">
    <path d="M 461.915304 225.334158 
Q 462.37136 225.395653 461.94101 225.337624 
" clip-path="url(#p24edfa99d5)" style="fill: none; stroke: #808080; stroke-width: 0.8; stroke-linecap: round"/>
    <path d="M 458.24415 222.821033 
L 461.94101 225.337624 
L 457.709622 226.785157 
z
" clip-path="url(#p24edfa99d5)" style="fill: #808080; stroke: #808080; stroke-width: 0.8; stroke-linecap: round"/>
   </g>
   <g id="patch_20">
    <path d="M 480.733827 218.16 
Q 481.211918 218.16 480.795583 218.16 
" clip-path="url(#p24edfa99d5)" style="fill: none; stroke: #808080; stroke-width: 0.8; stroke-linecap: round"/>
    <path d="M 476.795583 216.16 
L 480.795583 218.16 
L 476.795583 220.16 
z
" clip-path="url(#p24edfa99d5)" style="fill: #808080; stroke: #808080; stroke-width: 0.8; stroke-linecap: round"/>
   </g>
   <g id="patch_21">
    <path d="M 490.775468 212.583719 
Q 491.251543 212.550078 490.835415 212.579483 
" clip-path="url(#p24edfa99d5)" style="fill: none; stroke: #808080; stroke-width: 0.8; stroke-linecap: round"/>
    <path d="M 486.704389 210.866408 
L 490.835415 212.579483 
L 486.986339 214.856459 
z
" clip-path="url(#p24edfa99d5)" style="fill: #808080; stroke: #808080; stroke-width: 0.8; stroke-linecap: round"/>
   </g>
   <g id="patch_22">
    <path d="M 472.680366 205.237356 
Q 473.111834 205.148337 472.667324 205.240047 
" clip-path="url(#p24edfa99d5)" style="fill: none; stroke: #808080; stroke-width: 0.8; stroke-linecap: round"/>
    <path d="M 468.34571 204.089546 
L 472.667324 205.240047 
L 469.153954 208.007037 
z
" clip-path="url(#p24edfa99d5)" style="fill: #808080; stroke: #808080; stroke-width: 0.8; stroke-linecap: round"/>
   </g>
   <g id="patch_23">
    <path d="M 493.567334 189.450144 
Q 493.919812 189.323642 493.430438 189.499275 
" clip-path="url(#p24edfa99d5)" style="fill: none; stroke: #808080; stroke-width: 0.8; stroke-linecap: round"/>
    <path d="M 488.989968 188.968026 
L 493.430438 189.499275 
L 490.341157 192.732901 
z
" clip-path="url(#p24edfa99d5)" style="fill: #808080; stroke: #808080; stroke-width: 0.8; stroke-linecap: round"/>
   </g>
   <g id="patch_24">
    <path d="M 471.005005 189.310088 
Q 471.285539 189.175222 470.759962 189.427893 
" clip-path="url(#p24edfa99d5)" style="fill: none; stroke: #808080; stroke-width: 0.8; stroke-linecap: round"/>
    <path d="M 466.288364 189.358496 
L 470.759962 189.427893 
L 468.021486 192.963533 
z
" clip-path="url(#p24edfa99d5)" style="fill: #808080; stroke: #808080; stroke-width: 0.8; stroke-linecap: round"/>
   </g>
   <g id="patch_25">
    <path d="M 498.274751 164.108266 
Q 498.454185 163.986932 497.892687 164.36662 
" clip-path="url(#p24edfa99d5)" style="fill: none; stroke: #808080; stroke-width: 0.8; stroke-linecap: round"/>
    <path d="M 493.458828 164.950482 
L 497.892687 164.36662 
L 495.699462 168.264024 
z
" clip-path="url(#p24edfa99d5)" style="fill: #808080; stroke: #808080; stroke-width: 0.8; stroke-linecap: round"/>
   </g>
   <g id="patch_26">
    <path d="M 487.453936 161.647186 
Q 487.579277 161.545777 487.009275 162.006948 
" clip-path="url(#p24edfa99d5)" style="fill: none; stroke: #808080; stroke-width: 0.8; stroke-linecap: round"/>
    <path d="M 482.641635 162.968053 
L 487.009275 162.006948 
L 485.157575 166.077723 
z
" clip-path="url(#p24edfa99d5)" style="fill: #808080; stroke: #808080; stroke-width: 0.8; stroke-linecap: round"/>
   </g>
   <g id="patch_27">
    <path d="M 503.154063 136.814487 
Q 503.207264 136.757718 502.648854 137.353585 
" clip-path="url(#p24edfa99d5)" style="fill: none; stroke: #808080; stroke-width: 0.8; stroke-linecap: round"/>
    <path d="M 498.454312 138.904655 
L 502.648854 137.353585 
L 501.372986 141.63986 
z
" clip-path="url(#p24edfa99d5)" style="fill: #808080; stroke: #808080; stroke-width: 0.8; stroke-linecap: round"/>
   </g>
   <g id="patch_28">
    <path d="M 486.929952 141.229235 
Q 486.954414 141.19949 486.410747 141.860562 
" clip-path="url(#p24edfa99d5)" style="fill: none; stroke: #808080; stroke-width: 0.8; stroke-linecap: round"/>
    <path d="M 482.325279 143.679614 
L 486.410747 141.860562 
L 485.414708 146.220367 
z
" clip-path="url(#p24edfa99d5)" style="fill: #808080; stroke: #808080; stroke-width: 0.8; stroke-linecap: round"/>
   </g>
   <g id="patch_29">
    <path d="M 506.067726 100.602911 
Q 506.508183 99.768284 506.531188 99.72469 
" clip-path="url(#p24edfa99d5)" style="fill: none; stroke: #808080; stroke-width: 0.8; stroke-linecap: round"/>
    <path d="M 502.895486 102.328854 
L 506.531188 99.72469 
L 506.433098 104.19575 
z
" clip-path="url(#p24edfa99d5)" style="fill: #808080; stroke: #808080; stroke-width: 0.8; stroke-linecap: round"/>
   </g>
   <g id="patch_30">
    <path d="M 475.470486 134.822407 
Q 475.969052 133.994354 476.006259 133.932557 
" clip-path="url(#p24edfa99d5)" style="fill: none; stroke: #808080; stroke-width: 0.8; stroke-linecap: round"/>
    <path d="M 472.229602 136.32773 
L 476.006259 133.932557 
L 475.656403 138.390987 
z
" clip-path="url(#p24edfa99d5)" style="fill: #808080; stroke: #808080; stroke-width: 0.8; stroke-linecap: round"/>
   </g>
   <g id="patch_31">
    <path d="M 484.649446 79.28872 
Q 484.806576 78.443358 484.800256 78.477361 
" clip-path="url(#p24edfa99d5)" style="fill: none; stroke: #808080; stroke-width: 0.8; stroke-linecap: round"/>
    <path d="M 482.102961 82.044517 
L 484.800256 78.477361 
L 486.035603 82.775491 
z
" clip-path="url(#p24edfa99d5)" style="fill: #808080; stroke: #808080; stroke-width: 0.8; stroke-linecap: round"/>
   </g>
   <g id="patch_32">
    <path d="M 462.007491 116.027105 
Q 462.234255 115.179573 462.229839 115.196076 
" clip-path="url(#p24edfa99d5)" style="fill: none; stroke: #808080; stroke-width: 0.8; stroke-linecap: round"/>
    <path d="M 459.263933 118.543225 
L 462.229839 115.196076 
L 463.128015 119.57709 
z
" clip-path="url(#p24edfa99d5)" style="fill: #808080; stroke: #808080; stroke-width: 0.8; stroke-linecap: round"/>
   </g>
   <g id="patch_33">
    <path d="M 460.089868 86.691545 
Q 460.114774 85.845531 460.11336 85.893556 
" clip-path="url(#p24edfa99d5)" style="fill: none; stroke: #808080; stroke-width: 0.8; stroke-linecap: round"/>
    <path d="M 457.996519 89.832971 
L 460.11336 85.893556 
L 461.994787 89.950678 
z
" clip-path="url(#p24edfa99d5)" style="fill: #808080; stroke: #808080; stroke-width: 0.8; stroke-linecap: round"/>
   </g>
   <g id="patch_34">
    <path d="M 444.314248 123.102937 
Q 444.428881 122.257529 444.423334 122.298437 
" clip-path="url(#p24edfa99d5)" style="fill: none; stroke: #808080; stroke-width: 0.8; stroke-linecap: round"/>
    <path d="M 441.904007 125.993432 
L 444.423334 122.298437 
L 445.867735 126.530896 
z
" clip-path="url(#p24edfa99d5)" style="fill: #808080; stroke: #808080; stroke-width: 0.8; stroke-linecap: round"/>
   </g>
   <g id="patch_35">
    <path d="M 433.604701 99.777251 
Q 433.479973 98.928997 433.485363 98.965655 
" clip-path="url(#p24edfa99d5)" style="fill: none; stroke: #808080; stroke-width: 0.8; stroke-linecap: round"/>
    <path d="M 432.088546 103.214056 
L 433.485363 98.965655 
L 436.045993 102.632149 
z
" clip-path="url(#p24edfa99d5)" style="fill: #808080; stroke: #808080; stroke-width: 0.8; stroke-linecap: round"/>
   </g>
   <g id="patch_36">
    <path d="M 423.351131 104.942858 
Q 423.155512 104.098485 423.161762 104.12546 
" clip-path="url(#p24edfa99d5)" style="fill: none; stroke: #808080; stroke-width: 0.8; stroke-linecap: round"/>
    <path d="M 422.116148 108.473643 
L 423.161762 104.12546 
L 426.012939 107.570861 
z
" clip-path="url(#p24edfa99d5)" style="fill: #808080; stroke: #808080; stroke-width: 0.8; stroke-linecap: round"/>
   </g>
   <g id="patch_37">
    <path d="M 418.239085 123.300274 
Q 418.085236 122.454773 418.091509 122.489249 
" clip-path="url(#p24edfa99d5)" style="fill: none; stroke: #808080; stroke-width: 0.8; stroke-linecap: round"/>
    <path d="M 416.839909 126.782674 
L 418.091509 122.489249 
L 420.775289 126.066585 
z
" clip-path="url(#p24edfa99d5)" style="fill: #808080; stroke: #808080; stroke-width: 0.8; stroke-linecap: round"/>
   </g>
   <g id="patch_38">
    <path d="M 382.374695 71.399092 
Q 382.294719 71.3228 382.861927 71.863882 
" clip-path="url(#p24edfa99d5)" style="fill: none; stroke: #808080; stroke-width: 0.8; stroke-linecap: round"/>
    <path d="M 384.375733 76.072016 
L 382.861927 71.863882 
L 387.136718 73.177717 
z
" clip-path="url(#p24edfa99d5)" style="fill: #808080; stroke: #808080; stroke-width: 0.8; stroke-linecap: round"/>
   </g>
   <g id="patch_39">
    <path d="M 390.264839 90.852841 
Q 390.248793 90.832304 390.78344 91.516563 
" clip-path="url(#p24edfa99d5)" style="fill: none; stroke: #808080; stroke-width: 0.8; stroke-linecap: round"/>
    <path d="M 391.670249 95.899891 
L 390.78344 91.516563 
L 394.822188 93.437113 
z
" clip-path="url(#p24edfa99d5)" style="fill: #808080; stroke: #808080; stroke-width: 0.8; stroke-linecap: round"/>
   </g>
   <g id="patch_40">
    <path d="M 331.760498 57.515266 
Q 331.368171 57.403141 331.835839 57.536799 
" clip-path="url(#p24edfa99d5)" style="fill: none; stroke: #808080; stroke-width: 0.8; stroke-linecap: round"/>
    <path d="M 335.132263 60.558982 
L 331.835839 57.536799 
L 336.23144 56.71297 
z
" clip-path="url(#p24edfa99d5)" style="fill: #808080; stroke: #808080; stroke-width: 0.8; stroke-linecap: round"/>
   </g>
   <g id="patch_41">
    <path d="M 356.524276 351.635107 
Q 356.313493 351.762591 356.868045 351.427191 
" clip-path="url(#p24edfa99d5)" style="fill: none; stroke: #808080; stroke-width: 0.8; stroke-linecap: round"/>
    <path d="M 361.325769 351.068449 
L 356.868045 351.427191 
L 359.255686 347.645766 
z
" clip-path="url(#p24edfa99d5)" style="fill: #808080; stroke: #808080; stroke-width: 0.8; stroke-linecap: round"/>
   </g>
   <g id="patch_42">
    <path d="M 364.844112 86.092809 
Q 364.687913 85.979043 365.254704 86.391856 
" clip-path="url(#p24edfa99d5)" style="fill: none; stroke: #808080; stroke-width: 0.8; stroke-linecap: round"/>
    <path d="M 367.310551 90.363442 
L 365.254704 86.391856 
L 369.665481 87.13013 
z
" clip-path="url(#p24edfa99d5)" style="fill: #808080; stroke: #808080; stroke-width: 0.8; stroke-linecap: round"/>
   </g>
   <g id="patch_43">
    <path d="M 323.689436 74.076664 
Q 323.271419 73.981477 323.725505 74.084877 
" clip-path="url(#p24edfa99d5)" style="fill: none; stroke: #808080; stroke-width: 0.8; stroke-linecap: round"/>
    <path d="M 327.181613 76.923066 
L 323.725505 74.084877 
L 328.069721 73.022904 
z
" clip-path="url(#p24edfa99d5)" style="fill: #808080; stroke: #808080; stroke-width: 0.8; stroke-linecap: round"/>
   </g>
   <g id="patch_44">
    <path d="M 369.351872 325.025652 
Q 369.262846 325.106737 369.835079 324.585545 
" clip-path="url(#p24edfa99d5)" style="fill: none; stroke: #808080; stroke-width: 0.8; stroke-linecap: round"/>
    <path d="M 374.139049 323.370702 
L 369.835079 324.585545 
L 371.445586 320.413464 
z
" clip-path="url(#p24edfa99d5)" style="fill: #808080; stroke: #808080; stroke-width: 0.8; stroke-linecap: round"/>
   </g>
   <g id="patch_45">
    <path d="M 385.913887 126.297546 
Q 385.363466 125.476325 385.311024 125.398082 
" clip-path="url(#p24edfa99d5)" style="fill: none; stroke: #808080; stroke-width: 0.8; stroke-linecap: round"/>
    <path d="M 385.876703 129.834297 
L 385.311024 125.398082 
L 389.199404 127.607267 
z
" clip-path="url(#p24edfa99d5)" style="fill: #808080; stroke: #808080; stroke-width: 0.8; stroke-linecap: round"/>
   </g>
   <g id="patch_46">
    <path d="M 323.690058 89.17193 
Q 323.280932 89.073539 323.741438 89.184287 
" clip-path="url(#p24edfa99d5)" style="fill: none; stroke: #808080; stroke-width: 0.8; stroke-linecap: round"/>
    <path d="M 327.162903 92.064143 
L 323.741438 89.184287 
L 328.098202 88.175028 
z
" clip-path="url(#p24edfa99d5)" style="fill: #808080; stroke: #808080; stroke-width: 0.8; stroke-linecap: round"/>
   </g>
   <g id="patch_47">
    <path d="M 355.461528 319.979763 
Q 355.282564 320.100174 355.845693 319.721289 
" clip-path="url(#p24edfa99d5)" style="fill: none; stroke: #808080; stroke-width: 0.8; stroke-linecap: round"/>
    <path d="M 360.280897 319.147737 
L 355.845693 319.721289 
L 358.047974 315.828994 
z
" clip-path="url(#p24edfa99d5)" style="fill: #808080; stroke: #808080; stroke-width: 0.8; stroke-linecap: round"/>
   </g>
   <g id="patch_48">
    <path d="M 357.704385 109.435707 
Q 357.531495 109.316151 358.094268 109.705318 
" clip-path="url(#p24edfa99d5)" style="fill: none; stroke: #808080; stroke-width: 0.8; stroke-linecap: round"/>
    <path d="M 360.246711 113.625393 
L 358.094268 109.705318 
L 362.521794 110.335408 
z
" clip-path="url(#p24edfa99d5)" style="fill: #808080; stroke: #808080; stroke-width: 0.8; stroke-linecap: round"/>
   </g>
   <g id="patch_49">
    <path d="M 324.945844 101.014758 
Q 324.547233 100.909871 325.013605 101.032588 
" clip-path="url(#p24edfa99d5)" style="fill: none; stroke: #808080; stroke-width: 0.8; stroke-linecap: round"/>
    <path d="M 328.372994 103.984623 
L 325.013605 101.032588 
L 329.390866 100.116298 
z
" clip-path="url(#p24edfa99d5)" style="fill: #808080; stroke: #808080; stroke-width: 0.8; stroke-linecap: round"/>
   </g>
   <g id="patch_50">
    <path d="M 367.917041 293.232401 
Q 367.844717 293.30307 368.412126 292.748645 
" clip-path="url(#p24edfa99d5)" style="fill: none; stroke: #808080; stroke-width: 0.8; stroke-linecap: round"/>
    <path d="M 372.670848 291.383623 
L 368.412126 292.748645 
L 369.875342 288.522654 
z
" clip-path="url(#p24edfa99d5)" style="fill: #808080; stroke: #808080; stroke-width: 0.8; stroke-linecap: round"/>
   </g>
   <g id="patch_51">
    <path d="M 369.882529 136.182496 
Q 369.82147 136.120442 370.387735 136.695935 
" clip-path="url(#p24edfa99d5)" style="fill: none; stroke: #808080; stroke-width: 0.8; stroke-linecap: round"/>
    <path d="M 371.767614 140.949866 
L 370.387735 136.695935 
L 374.618808 138.144389 
z
" clip-path="url(#p24edfa99d5)" style="fill: #808080; stroke: #808080; stroke-width: 0.8; stroke-linecap: round"/>
   </g>
   <g id="patch_52">
    <path d="M 339.730514 305.878697 
Q 339.439082 306.013115 339.95985 305.772921 
" clip-path="url(#p24edfa99d5)" style="fill: none; stroke: #808080; stroke-width: 0.8; stroke-linecap: round"/>
    <path d="M 344.429768 305.913741 
L 339.95985 305.772921 
L 342.754456 302.281478 
z
" clip-path="url(#p24edfa99d5)" style="fill: #808080; stroke: #808080; stroke-width: 0.8; stroke-linecap: round"/>
   </g>
   <g id="patch_53">
    <path d="M 325.030898 116.003514 
Q 324.63702 115.895166 325.105536 116.024046 
" clip-path="url(#p24edfa99d5)" style="fill: none; stroke: #808080; stroke-width: 0.8; stroke-linecap: round"/>
    <path d="M 328.431818 119.013336 
L 325.105536 116.024046 
L 329.492737 115.156595 
z
" clip-path="url(#p24edfa99d5)" style="fill: #808080; stroke: #808080; stroke-width: 0.8; stroke-linecap: round"/>
   </g>
   <g id="patch_54">
    <path d="M 354.959973 139.697422 
Q 354.792469 139.580283 355.357941 139.975732 
" clip-path="url(#p24edfa99d5)" style="fill: none; stroke: #808080; stroke-width: 0.8; stroke-linecap: round"/>
    <path d="M 357.489723 143.907081 
L 355.357941 139.975732 
L 359.782089 140.629117 
z
" clip-path="url(#p24edfa99d5)" style="fill: #808080; stroke: #808080; stroke-width: 0.8; stroke-linecap: round"/>
   </g>
   <g id="patch_55">
    <path d="M 347.606252 293.895226 
Q 347.382421 294.024434 347.933218 293.706482 
" clip-path="url(#p24edfa99d5)" style="fill: none; stroke: #808080; stroke-width: 0.8; stroke-linecap: round"/>
    <path d="M 352.397338 293.438839 
L 347.933218 293.706482 
L 350.397575 289.9746 
z
" clip-path="url(#p24edfa99d5)" style="fill: #808080; stroke: #808080; stroke-width: 0.8; stroke-linecap: round"/>
   </g>
   <g id="patch_56">
    <path d="M 339.697828 138.065855 
Q 339.409101 137.932075 339.931919 138.17432 
" clip-path="url(#p24edfa99d5)" style="fill: none; stroke: #808080; stroke-width: 0.8; stroke-linecap: round"/>
    <path d="M 342.720446 141.670621 
L 339.931919 138.17432 
L 344.402076 138.041279 
z
" clip-path="url(#p24edfa99d5)" style="fill: #808080; stroke: #808080; stroke-width: 0.8; stroke-linecap: round"/>
   </g>
   <g id="patch_57">
    <path d="M 331.216092 294.411635 
Q 330.863385 294.536659 331.353708 294.362854 
" clip-path="url(#p24edfa99d5)" style="fill: none; stroke: #808080; stroke-width: 0.8; stroke-linecap: round"/>
    <path d="M 335.79206 294.911516 
L 331.353708 294.362854 
L 334.455649 291.141369 
z
" clip-path="url(#p24edfa99d5)" style="fill: #808080; stroke: #808080; stroke-width: 0.8; stroke-linecap: round"/>
   </g>
   <g id="patch_58">
    <path d="M 331.216092 141.908365 
Q 330.863385 141.783341 331.353708 141.957146 
" clip-path="url(#p24edfa99d5)" style="fill: none; stroke: #808080; stroke-width: 0.8; stroke-linecap: round"/>
    <path d="M 334.455649 145.178631 
L 331.353708 141.957146 
L 335.79206 141.408484 
z
" clip-path="url(#p24edfa99d5)" style="fill: #808080; stroke: #808080; stroke-width: 0.8; stroke-linecap: round"/>
   </g>
   <g id="patch_59">
    <path d="M 355.222157 274.148602 
Q 355.037909 274.271581 355.597595 273.898009 
" clip-path="url(#p24edfa99d5)" style="fill: none; stroke: #808080; stroke-width: 0.8; stroke-linecap: round"/>
    <path d="M 360.034889 273.340848 
L 355.597595 273.898009 
L 357.814243 270.013878 
z
" clip-path="url(#p24edfa99d5)" style="fill: #808080; stroke: #808080; stroke-width: 0.8; stroke-linecap: round"/>
   </g>
   <g id="patch_60">
    <path d="M 349.717657 255.265237 
Q 349.4257 255.399521 349.946338 255.160056 
" clip-path="url(#p24edfa99d5)" style="fill: none; stroke: #808080; stroke-width: 0.8; stroke-linecap: round"/>
    <path d="M 354.416104 255.305621 
L 349.946338 255.160056 
L 352.744649 251.671582 
z
" clip-path="url(#p24edfa99d5)" style="fill: #808080; stroke: #808080; stroke-width: 0.8; stroke-linecap: round"/>
   </g>
   <g id="patch_61">
    <path d="M 355.203648 218.16 
Q 354.725651 218.16 355.142081 218.16 
" clip-path="url(#p24edfa99d5)" style="fill: none; stroke: #808080; stroke-width: 0.8; stroke-linecap: round"/>
    <path d="M 359.142081 220.16 
L 355.142081 218.16 
L 359.142081 216.16 
z
" clip-path="url(#p24edfa99d5)" style="fill: #808080; stroke: #808080; stroke-width: 0.8; stroke-linecap: round"/>
   </g>
   <g id="patch_62">
    <path d="M 349.717657 181.054763 
Q 349.4257 180.920479 349.946338 181.159944 
" clip-path="url(#p24edfa99d5)" style="fill: none; stroke: #808080; stroke-width: 0.8; stroke-linecap: round"/>
    <path d="M 352.744649 184.648418 
L 349.946338 181.159944 
L 354.416104 181.014379 
z
" clip-path="url(#p24edfa99d5)" style="fill: #808080; stroke: #808080; stroke-width: 0.8; stroke-linecap: round"/>
   </g>
   <g id="patch_63">
    <path d="M 355.222157 162.171398 
Q 355.037909 162.048419 355.597595 162.421991 
" clip-path="url(#p24edfa99d5)" style="fill: none; stroke: #808080; stroke-width: 0.8; stroke-linecap: round"/>
    <path d="M 357.814243 166.306122 
L 355.597595 162.421991 
L 360.034889 162.979152 
z
" clip-path="url(#p24edfa99d5)" style="fill: #808080; stroke: #808080; stroke-width: 0.8; stroke-linecap: round"/>
   </g>
   <g id="patch_64">
    <path d="M 348.451613 238.347139 
Q 348.053724 238.454923 348.519147 238.328845 
" clip-path="url(#p24edfa99d5)" style="fill: none; stroke: #808080; stroke-width: 0.8; stroke-linecap: round"/>
    <path d="M 352.90293 239.213408 
L 348.519147 238.328845 
L 351.857067 235.352557 
z
" clip-path="url(#p24edfa99d5)" style="fill: #808080; stroke: #808080; stroke-width: 0.8; stroke-linecap: round"/>
   </g>
   <g id="patch_65">
    <path d="M 348.451613 197.972861 
Q 348.053724 197.865077 348.519147 197.991155 
" clip-path="url(#p24edfa99d5)" style="fill: none; stroke: #808080; stroke-width: 0.8; stroke-linecap: round"/>
    <path d="M 351.857067 200.967443 
L 348.519147 197.991155 
L 352.90293 197.106592 
z
" clip-path="url(#p24edfa99d5)" style="fill: #808080; stroke: #808080; stroke-width: 0.8; stroke-linecap: round"/>
   </g>
   <g id="patch_66">
    <path d="M 331.408563 272.115151 
Q 331.042097 272.235477 331.525422 272.076781 
" clip-path="url(#p24edfa99d5)" style="fill: none; stroke: #808080; stroke-width: 0.8; stroke-linecap: round"/>
    <path d="M 335.949721 272.729142 
L 331.525422 272.076781 
L 334.70189 268.928758 
z
" clip-path="url(#p24edfa99d5)" style="fill: #808080; stroke: #808080; stroke-width: 0.8; stroke-linecap: round"/>
   </g>
   <g id="patch_67">
    <path d="M 346.119621 166.540924 
Q 345.853394 166.406717 346.385851 166.675133 
" clip-path="url(#p24edfa99d5)" style="fill: none; stroke: #808080; stroke-width: 0.8; stroke-linecap: round"/>
    <path d="M 349.057382 170.261624 
L 346.385851 166.675133 
L 350.857963 166.689802 
z
" clip-path="url(#p24edfa99d5)" style="fill: #808080; stroke: #808080; stroke-width: 0.8; stroke-linecap: round"/>
   </g>
   <g id="patch_68">
    <path d="M 335.110232 230.442495 
Q 334.647805 230.496101 335.073855 230.446712 
" clip-path="url(#p24edfa99d5)" style="fill: none; stroke: #808080; stroke-width: 0.8; stroke-linecap: round"/>
    <path d="M 339.277551 231.9728 
L 335.073855 230.446712 
L 338.816942 227.999408 
z
" clip-path="url(#p24edfa99d5)" style="fill: #808080; stroke: #808080; stroke-width: 0.8; stroke-linecap: round"/>
   </g>
   <g id="patch_69">
    <path d="M 335.110232 205.877505 
Q 334.647805 205.823899 335.073855 205.873288 
" clip-path="url(#p24edfa99d5)" style="fill: none; stroke: #808080; stroke-width: 0.8; stroke-linecap: round"/>
    <path d="M 338.816942 208.320592 
L 335.073855 205.873288 
L 339.277551 204.3472 
z
" clip-path="url(#p24edfa99d5)" style="fill: #808080; stroke: #808080; stroke-width: 0.8; stroke-linecap: round"/>
   </g>
   <g id="patch_70">
    <path d="M 331.976896 250.811012 
Q 331.568711 250.912489 332.028532 250.798175 
" clip-path="url(#p24edfa99d5)" style="fill: none; stroke: #808080; stroke-width: 0.8; stroke-linecap: round"/>
    <path d="M 336.392895 251.774051 
L 332.028532 250.798175 
L 335.42785 247.89221 
z
" clip-path="url(#p24edfa99d5)" style="fill: #808080; stroke: #808080; stroke-width: 0.8; stroke-linecap: round"/>
   </g>
   <g id="patch_71">
    <path d="M 325.698235 181.796231 
Q 325.275119 181.705813 325.726682 181.80231 
" clip-path="url(#p24edfa99d5)" style="fill: none; stroke: #808080; stroke-width: 0.8; stroke-linecap: round"/>
    <path d="M 329.220409 184.59406 
L 325.726682 181.80231 
L 330.056319 180.682378 
z
" clip-path="url(#p24edfa99d5)" style="fill: #808080; stroke: #808080; stroke-width: 0.8; stroke-linecap: round"/>
   </g>
   <g id="line2d_19">
    <path d="M 295.2 384.48 
L 295.2 51.84 
" clip-path="url(#p24edfa99d5)" style="fill: none; stroke: #000000; stroke-width: 1.5; stroke-linecap: square"/>
   </g>
   <g id="line2d_20">
    <defs>
     <path id="m638ed38150" d="M 0 3 
C 0.795609 3 1.55874 2.683901 2.12132 2.12132 
C 2.683901 1.55874 3 0.795609 3 0 
C 3 -0.795609 2.683901 -1.55874 2.12132 -2.12132 
C 1.55874 -2.683901 0.795609 -3 0 -3 
C -0.795609 -3 -1.55874 -2.683901 -2.12132 -2.12132 
C -2.683901 -1.55874 -3 -0.795609 -3 0 
C -3 0.795609 -2.683901 1.55874 -2.12132 2.12132 
C -1.55874 2.683901 -0.795609 3 0 3 
z
" style="stroke: #ff0000"/>
    </defs>
    <g clip-path="url(#p24edfa99d5)">
     <use xlink:href="#m638ed38150" x="406.8" y="218.16" style="fill: #ff0000; stroke: #ff0000"/>
    </g>
   </g>
   <g id="line2d_21">
    <defs>
     <path id="md7842b7c57" d="M 0 3 
C 0.795609 3 1.55874 2.683901 2.12132 2.12132 
C 2.683901 1.55874 3 0.795609 3 0 
C 3 -0.795609 2.683901 -1.55874 2.12132 -2.12132 
C 1.55874 -2.683901 0.795609 -3 0 -3 
C -0.795609 -3 -1.55874 -2.683901 -2.12132 -2.12132 
C -2.683901 -1.55874 -3 -0.795609 -3 0 
C -3 0.795609 -2.683901 1.55874 -2.12132 2.12132 
C -1.55874 2.683901 -0.795609 3 0 3 
z
" style="stroke: #0000ff"/>
    </defs>
    <g clip-path="url(#p24edfa99d5)">
     <use xlink:href="#md7842b7c57" x="183.6" y="218.16" style="fill: #0000ff; stroke: #0000ff"/>
    </g>
   </g>
   <g id="patch_72">
    <path d="M 72 384.48 
L 72 51.84 
" style="fill: none; stroke: #000000; stroke-width: 0.8; stroke-linejoin: miter; stroke-linecap: square"/>
   </g>
   <g id="patch_73">
    <path d="M 518.4 384.48 
L 518.4 51.84 
" style="fill: none; stroke: #000000; stroke-width: 0.8; stroke-linejoin: miter; stroke-linecap: square"/>
   </g>
   <g id="patch_74">
    <path d="M 72 384.48 
L 518.4 384.48 
" style="fill: none; stroke: #000000; stroke-width: 0.8; stroke-linejoin: miter; stroke-linecap: square"/>
   </g>
   <g id="patch_75">
    <path d="M 72 51.84 
L 518.4 51.84 
" style="fill: none; stroke: #000000; stroke-width: 0.8; stroke-linejoin: miter; stroke-linecap: square"/>
   </g>
   <g id="text_21">
    <!-- q -->
    <g style="fill: #ff0000" transform="translate(417.96 226.476) scale(0.1 -0.1)">
     <defs>
      <path id="DejaVuSans-71" d="M 947 1747 
Q 947 1113 1208 752 
Q 1469 391 1925 391 
Q 2381 391 2643 752 
Q 2906 1113 2906 1747 
Q 2906 2381 2643 2742 
Q 2381 3103 1925 3103 
Q 1469 3103 1208 2742 
Q 947 2381 947 1747 
z
M 2906 525 
Q 2725 213 2448 61 
Q 2172 -91 1784 -91 
Q 1150 -91 751 415 
Q 353 922 353 1747 
Q 353 2572 751 3078 
Q 1150 3584 1784 3584 
Q 2172 3584 2448 3432 
Q 2725 3281 2906 2969 
L 2906 3500 
L 3481 3500 
L 3481 -1331 
L 2906 -1331 
L 2906 525 
z
" transform="scale(0.015625)"/>
     </defs>
     <use xlink:href="#DejaVuSans-71"/>
    </g>
   </g>
   <g id="text_22">
    <!-- -q -->
    <g style="fill: #0000ff" transform="translate(166.86 226.476) scale(0.1 -0.1)">
     <use xlink:href="#DejaVuSans-2d"/>
     <use xlink:href="#DejaVuSans-71" x="36.083984"/>
    </g>
   </g>
   <g id="text_23">
    <!-- Point Charge Near a Grounded Conducting Plate (Image Charge) -->
    <g transform="translate(101.736562 45.84) scale(0.12 -0.12)">
     <defs>
      <path id="DejaVuSans-50" d="M 1259 4147 
L 1259 2394 
L 2053 2394 
Q 2494 2394 2734 2622 
Q 2975 2850 2975 3272 
Q 2975 3691 2734 3919 
Q 2494 4147 2053 4147 
L 1259 4147 
z
M 628 4666 
L 2053 4666 
Q 2838 4666 3239 4311 
Q 3641 3956 3641 3272 
Q 3641 2581 3239 2228 
Q 2838 1875 2053 1875 
L 1259 1875 
L 1259 0 
L 628 0 
L 628 4666 
z
" transform="scale(0.015625)"/>
      <path id="DejaVuSans-6f" d="M 1959 3097 
Q 1497 3097 1228 2736 
Q 959 2375 959 1747 
Q 959 1119 1226 758 
Q 1494 397 1959 397 
Q 2419 397 2687 759 
Q 2956 1122 2956 1747 
Q 2956 2369 2687 2733 
Q 2419 3097 1959 3097 
z
M 1959 3584 
Q 2709 3584 3137 3096 
Q 3566 2609 3566 1747 
Q 3566 888 3137 398 
Q 2709 -91 1959 -91 
Q 1206 -91 779 398 
Q 353 888 353 1747 
Q 353 2609 779 3096 
Q 1206 3584 1959 3584 
z
" transform="scale(0.015625)"/>
      <path id="DejaVuSans-6e" d="M 3513 2113 
L 3513 0 
L 2938 0 
L 2938 2094 
Q 2938 2591 2744 2837 
Q 2550 3084 2163 3084 
Q 1697 3084 1428 2787 
Q 1159 2491 1159 1978 
L 1159 0 
L 581 0 
L 581 3500 
L 1159 3500 
L 1159 2956 
Q 1366 3272 1645 3428 
Q 1925 3584 2291 3584 
Q 2894 3584 3203 3211 
Q 3513 2838 3513 2113 
z
" transform="scale(0.015625)"/>
      <path id="DejaVuSans-74" d="M 1172 4494 
L 1172 3500 
L 2356 3500 
L 2356 3053 
L 1172 3053 
L 1172 1153 
Q 1172 725 1289 603 
Q 1406 481 1766 481 
L 2356 481 
L 2356 0 
L 1766 0 
Q 1100 0 847 248 
Q 594 497 594 1153 
L 594 3053 
L 172 3053 
L 172 3500 
L 594 3500 
L 594 4494 
L 1172 4494 
z
" transform="scale(0.015625)"/>
      <path id="DejaVuSans-20" transform="scale(0.015625)"/>
      <path id="DejaVuSans-43" d="M 4122 4306 
L 4122 3641 
Q 3803 3938 3442 4084 
Q 3081 4231 2675 4231 
Q 1875 4231 1450 3742 
Q 1025 3253 1025 2328 
Q 1025 1406 1450 917 
Q 1875 428 2675 428 
Q 3081 428 3442 575 
Q 3803 722 4122 1019 
L 4122 359 
Q 3791 134 3420 21 
Q 3050 -91 2638 -91 
Q 1578 -91 968 557 
Q 359 1206 359 2328 
Q 359 3453 968 4101 
Q 1578 4750 2638 4750 
Q 3056 4750 3426 4639 
Q 3797 4528 4122 4306 
z
" transform="scale(0.015625)"/>
      <path id="DejaVuSans-68" d="M 3513 2113 
L 3513 0 
L 2938 0 
L 2938 2094 
Q 2938 2591 2744 2837 
Q 2550 3084 2163 3084 
Q 1697 3084 1428 2787 
Q 1159 2491 1159 1978 
L 1159 0 
L 581 0 
L 581 4863 
L 1159 4863 
L 1159 2956 
Q 1366 3272 1645 3428 
Q 1925 3584 2291 3584 
Q 2894 3584 3203 3211 
Q 3513 2838 3513 2113 
z
" transform="scale(0.015625)"/>
      <path id="DejaVuSans-72" d="M 2631 2963 
Q 2534 3019 2420 3045 
Q 2306 3072 2169 3072 
Q 1681 3072 1420 2755 
Q 1159 2438 1159 1844 
L 1159 0 
L 581 0 
L 581 3500 
L 1159 3500 
L 1159 2956 
Q 1341 3275 1631 3429 
Q 1922 3584 2338 3584 
Q 2397 3584 2469 3576 
Q 2541 3569 2628 3553 
L 2631 2963 
z
" transform="scale(0.015625)"/>
      <path id="DejaVuSans-67" d="M 2906 1791 
Q 2906 2416 2648 2759 
Q 2391 3103 1925 3103 
Q 1463 3103 1205 2759 
Q 947 2416 947 1791 
Q 947 1169 1205 825 
Q 1463 481 1925 481 
Q 2391 481 2648 825 
Q 2906 1169 2906 1791 
z
M 3481 434 
Q 3481 -459 3084 -895 
Q 2688 -1331 1869 -1331 
Q 1566 -1331 1297 -1286 
Q 1028 -1241 775 -1147 
L 775 -588 
Q 1028 -725 1275 -790 
Q 1522 -856 1778 -856 
Q 2344 -856 2625 -561 
Q 2906 -266 2906 331 
L 2906 616 
Q 2728 306 2450 153 
Q 2172 0 1784 0 
Q 1141 0 747 490 
Q 353 981 353 1791 
Q 353 2603 747 3093 
Q 1141 3584 1784 3584 
Q 2172 3584 2450 3431 
Q 2728 3278 2906 2969 
L 2906 3500 
L 3481 3500 
L 3481 434 
z
" transform="scale(0.015625)"/>
      <path id="DejaVuSans-65" d="M 3597 1894 
L 3597 1613 
L 953 1613 
Q 991 1019 1311 708 
Q 1631 397 2203 397 
Q 2534 397 2845 478 
Q 3156 559 3463 722 
L 3463 178 
Q 3153 47 2828 -22 
Q 2503 -91 2169 -91 
Q 1331 -91 842 396 
Q 353 884 353 1716 
Q 353 2575 817 3079 
Q 1281 3584 2069 3584 
Q 2775 3584 3186 3129 
Q 3597 2675 3597 1894 
z
M 3022 2063 
Q 3016 2534 2758 2815 
Q 2500 3097 2075 3097 
Q 1594 3097 1305 2825 
Q 1016 2553 972 2059 
L 3022 2063 
z
" transform="scale(0.015625)"/>
      <path id="DejaVuSans-4e" d="M 628 4666 
L 1478 4666 
L 3547 763 
L 3547 4666 
L 4159 4666 
L 4159 0 
L 3309 0 
L 1241 3903 
L 1241 0 
L 628 0 
L 628 4666 
z
" transform="scale(0.015625)"/>
      <path id="DejaVuSans-47" d="M 3809 666 
L 3809 1919 
L 2778 1919 
L 2778 2438 
L 4434 2438 
L 4434 434 
Q 4069 175 3628 42 
Q 3188 -91 2688 -91 
Q 1594 -91 976 548 
Q 359 1188 359 2328 
Q 359 3472 976 4111 
Q 1594 4750 2688 4750 
Q 3144 4750 3555 4637 
Q 3966 4525 4313 4306 
L 4313 3634 
Q 3963 3931 3569 4081 
Q 3175 4231 2741 4231 
Q 1884 4231 1454 3753 
Q 1025 3275 1025 2328 
Q 1025 1384 1454 906 
Q 1884 428 2741 428 
Q 3075 428 3337 486 
Q 3600 544 3809 666 
z
" transform="scale(0.015625)"/>
      <path id="DejaVuSans-75" d="M 544 1381 
L 544 3500 
L 1119 3500 
L 1119 1403 
Q 1119 906 1312 657 
Q 1506 409 1894 409 
Q 2359 409 2629 706 
Q 2900 1003 2900 1516 
L 2900 3500 
L 3475 3500 
L 3475 0 
L 2900 0 
L 2900 538 
Q 2691 219 2414 64 
Q 2138 -91 1772 -91 
Q 1169 -91 856 284 
Q 544 659 544 1381 
z
M 1991 3584 
L 1991 3584 
z
" transform="scale(0.015625)"/>
      <path id="DejaVuSans-64" d="M 2906 2969 
L 2906 4863 
L 3481 4863 
L 3481 0 
L 2906 0 
L 2906 525 
Q 2725 213 2448 61 
Q 2172 -91 1784 -91 
Q 1150 -91 751 415 
Q 353 922 353 1747 
Q 353 2572 751 3078 
Q 1150 3584 1784 3584 
Q 2172 3584 2448 3432 
Q 2725 3281 2906 2969 
z
M 947 1747 
Q 947 1113 1208 752 
Q 1469 391 1925 391 
Q 2381 391 2643 752 
Q 2906 1113 2906 1747 
Q 2906 2381 2643 2742 
Q 2381 3103 1925 3103 
Q 1469 3103 1208 2742 
Q 947 2381 947 1747 
z
" transform="scale(0.015625)"/>
      <path id="DejaVuSans-63" d="M 3122 3366 
L 3122 2828 
Q 2878 2963 2633 3030 
Q 2388 3097 2138 3097 
Q 1578 3097 1268 2742 
Q 959 2388 959 1747 
Q 959 1106 1268 751 
Q 1578 397 2138 397 
Q 2388 397 2633 464 
Q 2878 531 3122 666 
L 3122 134 
Q 2881 22 2623 -34 
Q 2366 -91 2075 -91 
Q 1284 -91 818 406 
Q 353 903 353 1747 
Q 353 2603 823 3093 
Q 1294 3584 2113 3584 
Q 2378 3584 2631 3529 
Q 2884 3475 3122 3366 
z
" transform="scale(0.015625)"/>
      <path id="DejaVuSans-6c" d="M 603 4863 
L 1178 4863 
L 1178 0 
L 603 0 
L 603 4863 
z
" transform="scale(0.015625)"/>
      <path id="DejaVuSans-28" d="M 1984 4856 
Q 1566 4138 1362 3434 
Q 1159 2731 1159 2009 
Q 1159 1288 1364 580 
Q 1569 -128 1984 -844 
L 1484 -844 
Q 1016 -109 783 600 
Q 550 1309 550 2009 
Q 550 2706 781 3412 
Q 1013 4119 1484 4856 
L 1984 4856 
z
" transform="scale(0.015625)"/>
      <path id="DejaVuSans-49" d="M 628 4666 
L 1259 4666 
L 1259 0 
L 628 0 
L 628 4666 
z
" transform="scale(0.015625)"/>
      <path id="DejaVuSans-6d" d="M 3328 2828 
Q 3544 3216 3844 3400 
Q 4144 3584 4550 3584 
Q 5097 3584 5394 3201 
Q 5691 2819 5691 2113 
L 5691 0 
L 5113 0 
L 5113 2094 
Q 5113 2597 4934 2840 
Q 4756 3084 4391 3084 
Q 3944 3084 3684 2787 
Q 3425 2491 3425 1978 
L 3425 0 
L 2847 0 
L 2847 2094 
Q 2847 2600 2669 2842 
Q 2491 3084 2119 3084 
Q 1678 3084 1418 2786 
Q 1159 2488 1159 1978 
L 1159 0 
L 581 0 
L 581 3500 
L 1159 3500 
L 1159 2956 
Q 1356 3278 1631 3431 
Q 1906 3584 2284 3584 
Q 2666 3584 2933 3390 
Q 3200 3197 3328 2828 
z
" transform="scale(0.015625)"/>
      <path id="DejaVuSans-29" d="M 513 4856 
L 1013 4856 
Q 1481 4119 1714 3412 
Q 1947 2706 1947 2009 
Q 1947 1309 1714 600 
Q 1481 -109 1013 -844 
L 513 -844 
Q 928 -128 1133 580 
Q 1338 1288 1338 2009 
Q 1338 2731 1133 3434 
Q 928 4138 513 4856 
z
" transform="scale(0.015625)"/>
     </defs>
     <use xlink:href="#DejaVuSans-50"/>
     <use xlink:href="#DejaVuSans-6f" x="56.677734"/>
     <use xlink:href="#DejaVuSans-69" x="117.859375"/>
     <use xlink:href="#DejaVuSans-6e" x="145.642578"/>
     <use xlink:href="#DejaVuSans-74" x="209.021484"/>
     <use xlink:href="#DejaVuSans-20" x="248.230469"/>
     <use xlink:href="#DejaVuSans-43" x="280.017578"/>
     <use xlink:href="#DejaVuSans-68" x="349.841797"/>
     <use xlink:href="#DejaVuSans-61" x="413.220703"/>
     <use xlink:href="#DejaVuSans-72" x="474.5"/>
     <use xlink:href="#DejaVuSans-67" x="513.863281"/>
     <use xlink:href="#DejaVuSans-65" x="577.339844"/>
     <use xlink:href="#DejaVuSans-20" x="638.863281"/>
     <use xlink:href="#DejaVuSans-4e" x="670.650391"/>
     <use xlink:href="#DejaVuSans-65" x="745.455078"/>
     <use xlink:href="#DejaVuSans-61" x="806.978516"/>
     <use xlink:href="#DejaVuSans-72" x="868.257812"/>
     <use xlink:href="#DejaVuSans-20" x="909.371094"/>
     <use xlink:href="#DejaVuSans-61" x="941.158203"/>
     <use xlink:href="#DejaVuSans-20" x="1002.4375"/>
     <use xlink:href="#DejaVuSans-47" x="1034.224609"/>
     <use xlink:href="#DejaVuSans-72" x="1111.714844"/>
     <use xlink:href="#DejaVuSans-6f" x="1150.578125"/>
     <use xlink:href="#DejaVuSans-75" x="1211.759766"/>
     <use xlink:href="#DejaVuSans-6e" x="1275.138672"/>
     <use xlink:href="#DejaVuSans-64" x="1338.517578"/>
     <use xlink:href="#DejaVuSans-65" x="1401.994141"/>
     <use xlink:href="#DejaVuSans-64" x="1463.517578"/>
     <use xlink:href="#DejaVuSans-20" x="1526.994141"/>
     <use xlink:href="#DejaVuSans-43" x="1558.78125"/>
     <use xlink:href="#DejaVuSans-6f" x="1628.605469"/>
     <use xlink:href="#DejaVuSans-6e" x="1689.787109"/>
     <use xlink:href="#DejaVuSans-64" x="1753.166016"/>
     <use xlink:href="#DejaVuSans-75" x="1816.642578"/>
     <use xlink:href="#DejaVuSans-63" x="1880.021484"/>
     <use xlink:href="#DejaVuSans-74" x="1935.001953"/>
     <use xlink:href="#DejaVuSans-69" x="1974.210938"/>
     <use xlink:href="#DejaVuSans-6e" x="2001.994141"/>
     <use xlink:href="#DejaVuSans-67" x="2065.373047"/>
     <use xlink:href="#DejaVuSans-20" x="2128.849609"/>
     <use xlink:href="#DejaVuSans-50" x="2160.636719"/>
     <use xlink:href="#DejaVuSans-6c" x="2220.939453"/>
     <use xlink:href="#DejaVuSans-61" x="2248.722656"/>
     <use xlink:href="#DejaVuSans-74" x="2310.001953"/>
     <use xlink:href="#DejaVuSans-65" x="2349.210938"/>
     <use xlink:href="#DejaVuSans-20" x="2410.734375"/>
     <use xlink:href="#DejaVuSans-28" x="2442.521484"/>
     <use xlink:href="#DejaVuSans-49" x="2481.535156"/>
     <use xlink:href="#DejaVuSans-6d" x="2511.027344"/>
     <use xlink:href="#DejaVuSans-61" x="2608.439453"/>
     <use xlink:href="#DejaVuSans-67" x="2669.71875"/>
     <use xlink:href="#DejaVuSans-65" x="2733.195312"/>
     <use xlink:href="#DejaVuSans-20" x="2794.71875"/>
     <use xlink:href="#DejaVuSans-43" x="2826.505859"/>
     <use xlink:href="#DejaVuSans-68" x="2896.330078"/>
     <use xlink:href="#DejaVuSans-61" x="2959.708984"/>
     <use xlink:href="#DejaVuSans-72" x="3020.988281"/>
     <use xlink:href="#DejaVuSans-67" x="3060.351562"/>
     <use xlink:href="#DejaVuSans-65" x="3123.828125"/>
     <use xlink:href="#DejaVuSans-29" x="3185.351562"/>
    </g>
   </g>
  </g>
 </g>
 <defs>
  <clipPath id="p24edfa99d5">
   <rect x="72" y="51.84" width="446.4" height="332.64"/>
  </clipPath>
 </defs>
</svg>
