<?xml version="1.0" encoding="utf-8" standalone="no"?>
<!DOCTYPE svg PUBLIC "-//W3C//DTD SVG 1.1//EN"
  "http://www.w3.org/Graphics/SVG/1.1/DTD/svg11.dtd">
<svg xmlns:xlink="http://www.w3.org/1999/xlink" width="576pt" height="432pt" viewBox="0 0 576 432" xmlns="http://www.w3.org/2000/svg" version="1.1">
 <metadata>
  <rdf:RDF xmlns:dc="http://purl.org/dc/elements/1.1/" xmlns:cc="http://creativecommons.org/ns#" xmlns:rdf="http://www.w3.org/1999/02/22-rdf-syntax-ns#">
   <cc:Work>
    <dc:type rdf:resource="http://purl.org/dc/dcmitype/StillImage"/>
    <dc:date>2025-02-23T17:13:43.148796</dc:date>
    <dc:format>image/svg+xml</dc:format>
    <dc:creator>
     <cc:Agent>
      <dc:title>Matplotlib v3.8.3, https://matplotlib.org/</dc:title>
     </cc:Agent>
    </dc:creator>
   </cc:Work>
  </rdf:RDF>
 </metadata>
 <defs>
  <style type="text/css">*{stroke-linejoin: round; stroke-linecap: butt}</style>
 </defs>
 <g id="figure_1">
  <g id="patch_1">
   <path d="M 0 432 
L 576 432 
L 576 0 
L 0 0 
z
" style="fill: #ffffff"/>
  </g>
  <g id="axes_1">
   <g id="patch_2">
    <path d="M 72 384.48 
L 518.4 384.48 
L 518.4 51.84 
L 72 51.84 
z
" style="fill: #ffffff"/>
   </g>
   <g id="matplotlib.axis_1">
    <g id="xtick_1">
     <g id="line2d_1">
      <path d="M 90.467882 384.48 
L 90.467882 51.84 
" clip-path="url(#p9a972ead3f)" style="fill: none; stroke: #b0b0b0; stroke-width: 0.8; stroke-linecap: square"/>
     </g>
     <g id="line2d_2">
      <defs>
       <path id="ma99320e43c" d="M 0 0 
L 0 3.5 
" style="stroke: #000000; stroke-width: 0.8"/>
      </defs>
      <g>
       <use xlink:href="#ma99320e43c" x="90.467882" y="384.48" style="stroke: #000000; stroke-width: 0.8"/>
      </g>
     </g>
     <g id="text_1">
      <!-- 0 -->
      <g transform="translate(87.286632 399.078438) scale(0.1 -0.1)">
       <defs>
        <path id="DejaVuSans-30" d="M 2034 4250 
Q 1547 4250 1301 3770 
Q 1056 3291 1056 2328 
Q 1056 1369 1301 889 
Q 1547 409 2034 409 
Q 2525 409 2770 889 
Q 3016 1369 3016 2328 
Q 3016 3291 2770 3770 
Q 2525 4250 2034 4250 
z
M 2034 4750 
Q 2819 4750 3233 4129 
Q 3647 3509 3647 2328 
Q 3647 1150 3233 529 
Q 2819 -91 2034 -91 
Q 1250 -91 836 529 
Q 422 1150 422 2328 
Q 422 3509 836 4129 
Q 1250 4750 2034 4750 
z
" transform="scale(0.015625)"/>
       </defs>
       <use xlink:href="#DejaVuSans-30"/>
      </g>
     </g>
    </g>
    <g id="xtick_2">
     <g id="line2d_3">
      <path d="M 163.388958 384.48 
L 163.388958 51.84 
" clip-path="url(#p9a972ead3f)" style="fill: none; stroke: #b0b0b0; stroke-width: 0.8; stroke-linecap: square"/>
     </g>
     <g id="line2d_4">
      <g>
       <use xlink:href="#ma99320e43c" x="163.388958" y="384.48" style="stroke: #000000; stroke-width: 0.8"/>
      </g>
     </g>
     <g id="text_2">
      <!-- 1 -->
      <g transform="translate(160.207708 399.078438) scale(0.1 -0.1)">
       <defs>
        <path id="DejaVuSans-31" d="M 794 531 
L 1825 531 
L 1825 4091 
L 703 3866 
L 703 4441 
L 1819 4666 
L 2450 4666 
L 2450 531 
L 3481 531 
L 3481 0 
L 794 0 
L 794 531 
z
" transform="scale(0.015625)"/>
       </defs>
       <use xlink:href="#DejaVuSans-31"/>
      </g>
     </g>
    </g>
    <g id="xtick_3">
     <g id="line2d_5">
      <path d="M 236.310035 384.48 
L 236.310035 51.84 
" clip-path="url(#p9a972ead3f)" style="fill: none; stroke: #b0b0b0; stroke-width: 0.8; stroke-linecap: square"/>
     </g>
     <g id="line2d_6">
      <g>
       <use xlink:href="#ma99320e43c" x="236.310035" y="384.48" style="stroke: #000000; stroke-width: 0.8"/>
      </g>
     </g>
     <g id="text_3">
      <!-- 2 -->
      <g transform="translate(233.128785 399.078438) scale(0.1 -0.1)">
       <defs>
        <path id="DejaVuSans-32" d="M 1228 531 
L 3431 531 
L 3431 0 
L 469 0 
L 469 531 
Q 828 903 1448 1529 
Q 2069 2156 2228 2338 
Q 2531 2678 2651 2914 
Q 2772 3150 2772 3378 
Q 2772 3750 2511 3984 
Q 2250 4219 1831 4219 
Q 1534 4219 1204 4116 
Q 875 4013 500 3803 
L 500 4441 
Q 881 4594 1212 4672 
Q 1544 4750 1819 4750 
Q 2544 4750 2975 4387 
Q 3406 4025 3406 3419 
Q 3406 3131 3298 2873 
Q 3191 2616 2906 2266 
Q 2828 2175 2409 1742 
Q 1991 1309 1228 531 
z
" transform="scale(0.015625)"/>
       </defs>
       <use xlink:href="#DejaVuSans-32"/>
      </g>
     </g>
    </g>
    <g id="xtick_4">
     <g id="line2d_7">
      <path d="M 309.231111 384.48 
L 309.231111 51.84 
" clip-path="url(#p9a972ead3f)" style="fill: none; stroke: #b0b0b0; stroke-width: 0.8; stroke-linecap: square"/>
     </g>
     <g id="line2d_8">
      <g>
       <use xlink:href="#ma99320e43c" x="309.231111" y="384.48" style="stroke: #000000; stroke-width: 0.8"/>
      </g>
     </g>
     <g id="text_4">
      <!-- 3 -->
      <g transform="translate(306.049861 399.078438) scale(0.1 -0.1)">
       <defs>
        <path id="DejaVuSans-33" d="M 2597 2516 
Q 3050 2419 3304 2112 
Q 3559 1806 3559 1356 
Q 3559 666 3084 287 
Q 2609 -91 1734 -91 
Q 1441 -91 1130 -33 
Q 819 25 488 141 
L 488 750 
Q 750 597 1062 519 
Q 1375 441 1716 441 
Q 2309 441 2620 675 
Q 2931 909 2931 1356 
Q 2931 1769 2642 2001 
Q 2353 2234 1838 2234 
L 1294 2234 
L 1294 2753 
L 1863 2753 
Q 2328 2753 2575 2939 
Q 2822 3125 2822 3475 
Q 2822 3834 2567 4026 
Q 2313 4219 1838 4219 
Q 1578 4219 1281 4162 
Q 984 4106 628 3988 
L 628 4550 
Q 988 4650 1302 4700 
Q 1616 4750 1894 4750 
Q 2613 4750 3031 4423 
Q 3450 4097 3450 3541 
Q 3450 3153 3228 2886 
Q 3006 2619 2597 2516 
z
" transform="scale(0.015625)"/>
       </defs>
       <use xlink:href="#DejaVuSans-33"/>
      </g>
     </g>
    </g>
    <g id="xtick_5">
     <g id="line2d_9">
      <path d="M 382.152187 384.48 
L 382.152187 51.84 
" clip-path="url(#p9a972ead3f)" style="fill: none; stroke: #b0b0b0; stroke-width: 0.8; stroke-linecap: square"/>
     </g>
     <g id="line2d_10">
      <g>
       <use xlink:href="#ma99320e43c" x="382.152187" y="384.48" style="stroke: #000000; stroke-width: 0.8"/>
      </g>
     </g>
     <g id="text_5">
      <!-- 4 -->
      <g transform="translate(378.970937 399.078438) scale(0.1 -0.1)">
       <defs>
        <path id="DejaVuSans-34" d="M 2419 4116 
L 825 1625 
L 2419 1625 
L 2419 4116 
z
M 2253 4666 
L 3047 4666 
L 3047 1625 
L 3713 1625 
L 3713 1100 
L 3047 1100 
L 3047 0 
L 2419 0 
L 2419 1100 
L 313 1100 
L 313 1709 
L 2253 4666 
z
" transform="scale(0.015625)"/>
       </defs>
       <use xlink:href="#DejaVuSans-34"/>
      </g>
     </g>
    </g>
    <g id="xtick_6">
     <g id="line2d_11">
      <path d="M 455.073263 384.48 
L 455.073263 51.84 
" clip-path="url(#p9a972ead3f)" style="fill: none; stroke: #b0b0b0; stroke-width: 0.8; stroke-linecap: square"/>
     </g>
     <g id="line2d_12">
      <g>
       <use xlink:href="#ma99320e43c" x="455.073263" y="384.48" style="stroke: #000000; stroke-width: 0.8"/>
      </g>
     </g>
     <g id="text_6">
      <!-- 5 -->
      <g transform="translate(451.892013 399.078438) scale(0.1 -0.1)">
       <defs>
        <path id="DejaVuSans-35" d="M 691 4666 
L 3169 4666 
L 3169 4134 
L 1269 4134 
L 1269 2991 
Q 1406 3038 1543 3061 
Q 1681 3084 1819 3084 
Q 2600 3084 3056 2656 
Q 3513 2228 3513 1497 
Q 3513 744 3044 326 
Q 2575 -91 1722 -91 
Q 1428 -91 1123 -41 
Q 819 9 494 109 
L 494 744 
Q 775 591 1075 516 
Q 1375 441 1709 441 
Q 2250 441 2565 725 
Q 2881 1009 2881 1497 
Q 2881 1984 2565 2268 
Q 2250 2553 1709 2553 
Q 1456 2553 1204 2497 
Q 953 2441 691 2322 
L 691 4666 
z
" transform="scale(0.015625)"/>
       </defs>
       <use xlink:href="#DejaVuSans-35"/>
      </g>
     </g>
    </g>
    <g id="text_7">
     <!-- r -->
     <g transform="translate(293.144531 412.756563) scale(0.1 -0.1)">
      <defs>
       <path id="DejaVuSans-72" d="M 2631 2963 
Q 2534 3019 2420 3045 
Q 2306 3072 2169 3072 
Q 1681 3072 1420 2755 
Q 1159 2438 1159 1844 
L 1159 0 
L 581 0 
L 581 3500 
L 1159 3500 
L 1159 2956 
Q 1341 3275 1631 3429 
Q 1922 3584 2338 3584 
Q 2397 3584 2469 3576 
Q 2541 3569 2628 3553 
L 2631 2963 
z
" transform="scale(0.015625)"/>
      </defs>
      <use xlink:href="#DejaVuSans-72"/>
     </g>
    </g>
   </g>
   <g id="matplotlib.axis_2">
    <g id="ytick_1">
     <g id="line2d_13">
      <path d="M 72 369.36 
L 518.4 369.36 
" clip-path="url(#p9a972ead3f)" style="fill: none; stroke: #b0b0b0; stroke-width: 0.8; stroke-linecap: square"/>
     </g>
     <g id="line2d_14">
      <defs>
       <path id="m301b442af0" d="M 0 0 
L -3.5 0 
" style="stroke: #000000; stroke-width: 0.8"/>
      </defs>
      <g>
       <use xlink:href="#m301b442af0" x="72" y="369.36" style="stroke: #000000; stroke-width: 0.8"/>
      </g>
     </g>
     <g id="text_8">
      <!-- 0.0 -->
      <g transform="translate(49.096875 373.159219) scale(0.1 -0.1)">
       <defs>
        <path id="DejaVuSans-2e" d="M 684 794 
L 1344 794 
L 1344 0 
L 684 0 
L 684 794 
z
" transform="scale(0.015625)"/>
       </defs>
       <use xlink:href="#DejaVuSans-30"/>
       <use xlink:href="#DejaVuSans-2e" x="63.623047"/>
       <use xlink:href="#DejaVuSans-30" x="95.410156"/>
      </g>
     </g>
    </g>
    <g id="ytick_2">
     <g id="line2d_15">
      <path d="M 72 323.43158 
L 518.4 323.43158 
" clip-path="url(#p9a972ead3f)" style="fill: none; stroke: #b0b0b0; stroke-width: 0.8; stroke-linecap: square"/>
     </g>
     <g id="line2d_16">
      <g>
       <use xlink:href="#m301b442af0" x="72" y="323.43158" style="stroke: #000000; stroke-width: 0.8"/>
      </g>
     </g>
     <g id="text_9">
      <!-- 0.5 -->
      <g transform="translate(49.096875 327.230799) scale(0.1 -0.1)">
       <use xlink:href="#DejaVuSans-30"/>
       <use xlink:href="#DejaVuSans-2e" x="63.623047"/>
       <use xlink:href="#DejaVuSans-35" x="95.410156"/>
      </g>
     </g>
    </g>
    <g id="ytick_3">
     <g id="line2d_17">
      <path d="M 72 277.50316 
L 518.4 277.50316 
" clip-path="url(#p9a972ead3f)" style="fill: none; stroke: #b0b0b0; stroke-width: 0.8; stroke-linecap: square"/>
     </g>
     <g id="line2d_18">
      <g>
       <use xlink:href="#m301b442af0" x="72" y="277.50316" style="stroke: #000000; stroke-width: 0.8"/>
      </g>
     </g>
     <g id="text_10">
      <!-- 1.0 -->
      <g transform="translate(49.096875 281.302379) scale(0.1 -0.1)">
       <use xlink:href="#DejaVuSans-31"/>
       <use xlink:href="#DejaVuSans-2e" x="63.623047"/>
       <use xlink:href="#DejaVuSans-30" x="95.410156"/>
      </g>
     </g>
    </g>
    <g id="ytick_4">
     <g id="line2d_19">
      <path d="M 72 231.57474 
L 518.4 231.57474 
" clip-path="url(#p9a972ead3f)" style="fill: none; stroke: #b0b0b0; stroke-width: 0.8; stroke-linecap: square"/>
     </g>
     <g id="line2d_20">
      <g>
       <use xlink:href="#m301b442af0" x="72" y="231.57474" style="stroke: #000000; stroke-width: 0.8"/>
      </g>
     </g>
     <g id="text_11">
      <!-- 1.5 -->
      <g transform="translate(49.096875 235.373959) scale(0.1 -0.1)">
       <use xlink:href="#DejaVuSans-31"/>
       <use xlink:href="#DejaVuSans-2e" x="63.623047"/>
       <use xlink:href="#DejaVuSans-35" x="95.410156"/>
      </g>
     </g>
    </g>
    <g id="ytick_5">
     <g id="line2d_21">
      <path d="M 72 185.64632 
L 518.4 185.64632 
" clip-path="url(#p9a972ead3f)" style="fill: none; stroke: #b0b0b0; stroke-width: 0.8; stroke-linecap: square"/>
     </g>
     <g id="line2d_22">
      <g>
       <use xlink:href="#m301b442af0" x="72" y="185.64632" style="stroke: #000000; stroke-width: 0.8"/>
      </g>
     </g>
     <g id="text_12">
      <!-- 2.0 -->
      <g transform="translate(49.096875 189.445539) scale(0.1 -0.1)">
       <use xlink:href="#DejaVuSans-32"/>
       <use xlink:href="#DejaVuSans-2e" x="63.623047"/>
       <use xlink:href="#DejaVuSans-30" x="95.410156"/>
      </g>
     </g>
    </g>
    <g id="ytick_6">
     <g id="line2d_23">
      <path d="M 72 139.7179 
L 518.4 139.7179 
" clip-path="url(#p9a972ead3f)" style="fill: none; stroke: #b0b0b0; stroke-width: 0.8; stroke-linecap: square"/>
     </g>
     <g id="line2d_24">
      <g>
       <use xlink:href="#m301b442af0" x="72" y="139.7179" style="stroke: #000000; stroke-width: 0.8"/>
      </g>
     </g>
     <g id="text_13">
      <!-- 2.5 -->
      <g transform="translate(49.096875 143.517119) scale(0.1 -0.1)">
       <use xlink:href="#DejaVuSans-32"/>
       <use xlink:href="#DejaVuSans-2e" x="63.623047"/>
       <use xlink:href="#DejaVuSans-35" x="95.410156"/>
      </g>
     </g>
    </g>
    <g id="ytick_7">
     <g id="line2d_25">
      <path d="M 72 93.78948 
L 518.4 93.78948 
" clip-path="url(#p9a972ead3f)" style="fill: none; stroke: #b0b0b0; stroke-width: 0.8; stroke-linecap: square"/>
     </g>
     <g id="line2d_26">
      <g>
       <use xlink:href="#m301b442af0" x="72" y="93.78948" style="stroke: #000000; stroke-width: 0.8"/>
      </g>
     </g>
     <g id="text_14">
      <!-- 3.0 -->
      <g transform="translate(49.096875 97.588699) scale(0.1 -0.1)">
       <use xlink:href="#DejaVuSans-33"/>
       <use xlink:href="#DejaVuSans-2e" x="63.623047"/>
       <use xlink:href="#DejaVuSans-30" x="95.410156"/>
      </g>
     </g>
    </g>
    <g id="text_15">
     <!-- g(r) -->
     <g transform="translate(43.017187 227.29125) rotate(-90) scale(0.1 -0.1)">
      <defs>
       <path id="DejaVuSans-67" d="M 2906 1791 
Q 2906 2416 2648 2759 
Q 2391 3103 1925 3103 
Q 1463 3103 1205 2759 
Q 947 2416 947 1791 
Q 947 1169 1205 825 
Q 1463 481 1925 481 
Q 2391 481 2648 825 
Q 2906 1169 2906 1791 
z
M 3481 434 
Q 3481 -459 3084 -895 
Q 2688 -1331 1869 -1331 
Q 1566 -1331 1297 -1286 
Q 1028 -1241 775 -1147 
L 775 -588 
Q 1028 -725 1275 -790 
Q 1522 -856 1778 -856 
Q 2344 -856 2625 -561 
Q 2906 -266 2906 331 
L 2906 616 
Q 2728 306 2450 153 
Q 2172 0 1784 0 
Q 1141 0 747 490 
Q 353 981 353 1791 
Q 353 2603 747 3093 
Q 1141 3584 1784 3584 
Q 2172 3584 2450 3431 
Q 2728 3278 2906 2969 
L 2906 3500 
L 3481 3500 
L 3481 434 
z
" transform="scale(0.015625)"/>
       <path id="DejaVuSans-28" d="M 1984 4856 
Q 1566 4138 1362 3434 
Q 1159 2731 1159 2009 
Q 1159 1288 1364 580 
Q 1569 -128 1984 -844 
L 1484 -844 
Q 1016 -109 783 600 
Q 550 1309 550 2009 
Q 550 2706 781 3412 
Q 1013 4119 1484 4856 
L 1984 4856 
z
" transform="scale(0.015625)"/>
       <path id="DejaVuSans-29" d="M 513 4856 
L 1013 4856 
Q 1481 4119 1714 3412 
Q 1947 2706 1947 2009 
Q 1947 1309 1714 600 
Q 1481 -109 1013 -844 
L 513 -844 
Q 928 -128 1133 580 
Q 1338 1288 1338 2009 
Q 1338 2731 1133 3434 
Q 928 4138 513 4856 
z
" transform="scale(0.015625)"/>
      </defs>
      <use xlink:href="#DejaVuSans-67"/>
      <use xlink:href="#DejaVuSans-28" x="63.476562"/>
      <use xlink:href="#DejaVuSans-72" x="102.490234"/>
      <use xlink:href="#DejaVuSans-29" x="143.603516"/>
     </g>
    </g>
   </g>
   <g id="line2d_27">
    <path d="M 92.290909 369.36 
L 95.936963 369.36 
L 99.583017 369.36 
L 103.229071 369.36 
L 106.875124 369.36 
L 110.521178 369.36 
L 114.167232 369.36 
L 117.813286 369.36 
L 121.45934 369.36 
L 125.105393 369.36 
L 128.751447 369.36 
L 132.397501 369.36 
L 136.043555 369.36 
L 139.689609 369.36 
L 143.335662 369.36 
L 146.981716 369.36 
L 150.62777 369.36 
L 154.273824 369.351646 
L 157.919878 358.843464 
L 161.565932 264.353219 
L 165.211985 112.820391 
L 168.858039 66.96 
L 172.504093 102.904887 
L 176.150147 168.397653 
L 179.796201 216.337708 
L 183.442254 254.961213 
L 187.088308 282.97493 
L 190.734362 302.070034 
L 194.380416 311.768521 
L 198.02647 318.399996 
L 201.672523 322.960198 
L 205.318577 325.331725 
L 208.964631 326.449831 
L 212.610685 324.517939 
L 216.256739 320.2318 
L 219.902793 311.040257 
L 223.548846 303.910435 
L 227.1949 292.324359 
L 230.840954 280.741708 
L 234.487008 267.049617 
L 238.133062 248.646494 
L 241.779115 236.124138 
L 245.425169 226.955353 
L 249.071223 229.347822 
L 252.717277 240.853872 
L 256.363331 249.146828 
L 260.009384 262.43351 
L 263.655438 273.910557 
L 267.301492 284.43384 
L 270.947546 293.175726 
L 274.5936 299.598204 
L 278.239654 301.183307 
L 281.885707 303.354067 
L 285.531761 301.770501 
L 289.177815 298.827629 
L 292.823869 293.977271 
L 296.469923 290.732608 
L 300.115976 286.094109 
L 303.76203 280.798499 
L 307.408084 272.418416 
L 311.054138 267.617187 
L 314.700192 262.416793 
L 318.346245 256.463539 
L 321.992299 257.091218 
L 325.638353 258.962828 
L 329.284407 264.126599 
L 332.930461 268.31286 
L 336.576515 271.497917 
L 340.222568 278.288598 
L 343.868622 282.706299 
L 347.514676 284.329014 
L 351.16073 288.404122 
L 354.806784 288.876288 
L 358.452837 287.514438 
L 362.098891 288.501967 
L 365.744945 287.473927 
L 369.390999 285.621204 
L 373.037053 283.986822 
L 376.683106 279.334979 
L 380.32916 275.498956 
L 383.975214 273.206383 
L 387.621268 271.045409 
L 391.267322 269.733184 
L 394.913376 268.53503 
L 398.559429 268.087038 
L 402.205483 270.440048 
L 405.851537 274.281727 
L 409.497591 274.554658 
L 413.143645 277.790247 
L 416.789698 279.770907 
L 420.435752 280.088184 
L 424.081806 280.244184 
L 427.72786 279.922665 
L 431.373914 279.771887 
L 435.019967 282.097388 
L 438.666021 282.138863 
L 442.312075 281.886181 
L 445.958129 281.094087 
L 449.604183 279.977599 
L 453.250237 279.585581 
L 456.89629 277.686467 
L 460.542344 275.246333 
L 464.188398 273.656527 
L 467.834452 272.2192 
L 471.480506 272.583864 
L 475.126559 272.139831 
L 478.772613 274.934421 
L 482.418667 276.332844 
L 486.064721 278.940261 
L 489.710775 278.912609 
L 493.356828 279.805492 
" clip-path="url(#p9a972ead3f)" style="fill: none; stroke: #1f77b4; stroke-width: 1.5; stroke-linecap: square"/>
    <defs>
     <path id="m19f837483b" d="M 0 2 
C 0.530406 2 1.03916 1.789267 1.414214 1.414214 
C 1.789267 1.03916 2 0.530406 2 0 
C 2 -0.530406 1.789267 -1.03916 1.414214 -1.414214 
C 1.03916 -1.789267 0.530406 -2 0 -2 
C -0.530406 -2 -1.03916 -1.789267 -1.414214 -1.414214 
C -1.789267 -1.03916 -2 -0.530406 -2 0 
C -2 0.530406 -1.789267 1.03916 -1.414214 1.414214 
C -1.03916 1.789267 -0.530406 2 0 2 
z
" style="stroke: #1f77b4"/>
    </defs>
    <g clip-path="url(#p9a972ead3f)">
     <use xlink:href="#m19f837483b" x="92.290909" y="369.36" style="fill: #1f77b4; stroke: #1f77b4"/>
     <use xlink:href="#m19f837483b" x="95.936963" y="369.36" style="fill: #1f77b4; stroke: #1f77b4"/>
     <use xlink:href="#m19f837483b" x="99.583017" y="369.36" style="fill: #1f77b4; stroke: #1f77b4"/>
     <use xlink:href="#m19f837483b" x="103.229071" y="369.36" style="fill: #1f77b4; stroke: #1f77b4"/>
     <use xlink:href="#m19f837483b" x="106.875124" y="369.36" style="fill: #1f77b4; stroke: #1f77b4"/>
     <use xlink:href="#m19f837483b" x="110.521178" y="369.36" style="fill: #1f77b4; stroke: #1f77b4"/>
     <use xlink:href="#m19f837483b" x="114.167232" y="369.36" style="fill: #1f77b4; stroke: #1f77b4"/>
     <use xlink:href="#m19f837483b" x="117.813286" y="369.36" style="fill: #1f77b4; stroke: #1f77b4"/>
     <use xlink:href="#m19f837483b" x="121.45934" y="369.36" style="fill: #1f77b4; stroke: #1f77b4"/>
     <use xlink:href="#m19f837483b" x="125.105393" y="369.36" style="fill: #1f77b4; stroke: #1f77b4"/>
     <use xlink:href="#m19f837483b" x="128.751447" y="369.36" style="fill: #1f77b4; stroke: #1f77b4"/>
     <use xlink:href="#m19f837483b" x="132.397501" y="369.36" style="fill: #1f77b4; stroke: #1f77b4"/>
     <use xlink:href="#m19f837483b" x="136.043555" y="369.36" style="fill: #1f77b4; stroke: #1f77b4"/>
     <use xlink:href="#m19f837483b" x="139.689609" y="369.36" style="fill: #1f77b4; stroke: #1f77b4"/>
     <use xlink:href="#m19f837483b" x="143.335662" y="369.36" style="fill: #1f77b4; stroke: #1f77b4"/>
     <use xlink:href="#m19f837483b" x="146.981716" y="369.36" style="fill: #1f77b4; stroke: #1f77b4"/>
     <use xlink:href="#m19f837483b" x="150.62777" y="369.36" style="fill: #1f77b4; stroke: #1f77b4"/>
     <use xlink:href="#m19f837483b" x="154.273824" y="369.351646" style="fill: #1f77b4; stroke: #1f77b4"/>
     <use xlink:href="#m19f837483b" x="157.919878" y="358.843464" style="fill: #1f77b4; stroke: #1f77b4"/>
     <use xlink:href="#m19f837483b" x="161.565932" y="264.353219" style="fill: #1f77b4; stroke: #1f77b4"/>
     <use xlink:href="#m19f837483b" x="165.211985" y="112.820391" style="fill: #1f77b4; stroke: #1f77b4"/>
     <use xlink:href="#m19f837483b" x="168.858039" y="66.96" style="fill: #1f77b4; stroke: #1f77b4"/>
     <use xlink:href="#m19f837483b" x="172.504093" y="102.904887" style="fill: #1f77b4; stroke: #1f77b4"/>
     <use xlink:href="#m19f837483b" x="176.150147" y="168.397653" style="fill: #1f77b4; stroke: #1f77b4"/>
     <use xlink:href="#m19f837483b" x="179.796201" y="216.337708" style="fill: #1f77b4; stroke: #1f77b4"/>
     <use xlink:href="#m19f837483b" x="183.442254" y="254.961213" style="fill: #1f77b4; stroke: #1f77b4"/>
     <use xlink:href="#m19f837483b" x="187.088308" y="282.97493" style="fill: #1f77b4; stroke: #1f77b4"/>
     <use xlink:href="#m19f837483b" x="190.734362" y="302.070034" style="fill: #1f77b4; stroke: #1f77b4"/>
     <use xlink:href="#m19f837483b" x="194.380416" y="311.768521" style="fill: #1f77b4; stroke: #1f77b4"/>
     <use xlink:href="#m19f837483b" x="198.02647" y="318.399996" style="fill: #1f77b4; stroke: #1f77b4"/>
     <use xlink:href="#m19f837483b" x="201.672523" y="322.960198" style="fill: #1f77b4; stroke: #1f77b4"/>
     <use xlink:href="#m19f837483b" x="205.318577" y="325.331725" style="fill: #1f77b4; stroke: #1f77b4"/>
     <use xlink:href="#m19f837483b" x="208.964631" y="326.449831" style="fill: #1f77b4; stroke: #1f77b4"/>
     <use xlink:href="#m19f837483b" x="212.610685" y="324.517939" style="fill: #1f77b4; stroke: #1f77b4"/>
     <use xlink:href="#m19f837483b" x="216.256739" y="320.2318" style="fill: #1f77b4; stroke: #1f77b4"/>
     <use xlink:href="#m19f837483b" x="219.902793" y="311.040257" style="fill: #1f77b4; stroke: #1f77b4"/>
     <use xlink:href="#m19f837483b" x="223.548846" y="303.910435" style="fill: #1f77b4; stroke: #1f77b4"/>
     <use xlink:href="#m19f837483b" x="227.1949" y="292.324359" style="fill: #1f77b4; stroke: #1f77b4"/>
     <use xlink:href="#m19f837483b" x="230.840954" y="280.741708" style="fill: #1f77b4; stroke: #1f77b4"/>
     <use xlink:href="#m19f837483b" x="234.487008" y="267.049617" style="fill: #1f77b4; stroke: #1f77b4"/>
     <use xlink:href="#m19f837483b" x="238.133062" y="248.646494" style="fill: #1f77b4; stroke: #1f77b4"/>
     <use xlink:href="#m19f837483b" x="241.779115" y="236.124138" style="fill: #1f77b4; stroke: #1f77b4"/>
     <use xlink:href="#m19f837483b" x="245.425169" y="226.955353" style="fill: #1f77b4; stroke: #1f77b4"/>
     <use xlink:href="#m19f837483b" x="249.071223" y="229.347822" style="fill: #1f77b4; stroke: #1f77b4"/>
     <use xlink:href="#m19f837483b" x="252.717277" y="240.853872" style="fill: #1f77b4; stroke: #1f77b4"/>
     <use xlink:href="#m19f837483b" x="256.363331" y="249.146828" style="fill: #1f77b4; stroke: #1f77b4"/>
     <use xlink:href="#m19f837483b" x="260.009384" y="262.43351" style="fill: #1f77b4; stroke: #1f77b4"/>
     <use xlink:href="#m19f837483b" x="263.655438" y="273.910557" style="fill: #1f77b4; stroke: #1f77b4"/>
     <use xlink:href="#m19f837483b" x="267.301492" y="284.43384" style="fill: #1f77b4; stroke: #1f77b4"/>
     <use xlink:href="#m19f837483b" x="270.947546" y="293.175726" style="fill: #1f77b4; stroke: #1f77b4"/>
     <use xlink:href="#m19f837483b" x="274.5936" y="299.598204" style="fill: #1f77b4; stroke: #1f77b4"/>
     <use xlink:href="#m19f837483b" x="278.239654" y="301.183307" style="fill: #1f77b4; stroke: #1f77b4"/>
     <use xlink:href="#m19f837483b" x="281.885707" y="303.354067" style="fill: #1f77b4; stroke: #1f77b4"/>
     <use xlink:href="#m19f837483b" x="285.531761" y="301.770501" style="fill: #1f77b4; stroke: #1f77b4"/>
     <use xlink:href="#m19f837483b" x="289.177815" y="298.827629" style="fill: #1f77b4; stroke: #1f77b4"/>
     <use xlink:href="#m19f837483b" x="292.823869" y="293.977271" style="fill: #1f77b4; stroke: #1f77b4"/>
     <use xlink:href="#m19f837483b" x="296.469923" y="290.732608" style="fill: #1f77b4; stroke: #1f77b4"/>
     <use xlink:href="#m19f837483b" x="300.115976" y="286.094109" style="fill: #1f77b4; stroke: #1f77b4"/>
     <use xlink:href="#m19f837483b" x="303.76203" y="280.798499" style="fill: #1f77b4; stroke: #1f77b4"/>
     <use xlink:href="#m19f837483b" x="307.408084" y="272.418416" style="fill: #1f77b4; stroke: #1f77b4"/>
     <use xlink:href="#m19f837483b" x="311.054138" y="267.617187" style="fill: #1f77b4; stroke: #1f77b4"/>
     <use xlink:href="#m19f837483b" x="314.700192" y="262.416793" style="fill: #1f77b4; stroke: #1f77b4"/>
     <use xlink:href="#m19f837483b" x="318.346245" y="256.463539" style="fill: #1f77b4; stroke: #1f77b4"/>
     <use xlink:href="#m19f837483b" x="321.992299" y="257.091218" style="fill: #1f77b4; stroke: #1f77b4"/>
     <use xlink:href="#m19f837483b" x="325.638353" y="258.962828" style="fill: #1f77b4; stroke: #1f77b4"/>
     <use xlink:href="#m19f837483b" x="329.284407" y="264.126599" style="fill: #1f77b4; stroke: #1f77b4"/>
     <use xlink:href="#m19f837483b" x="332.930461" y="268.31286" style="fill: #1f77b4; stroke: #1f77b4"/>
     <use xlink:href="#m19f837483b" x="336.576515" y="271.497917" style="fill: #1f77b4; stroke: #1f77b4"/>
     <use xlink:href="#m19f837483b" x="340.222568" y="278.288598" style="fill: #1f77b4; stroke: #1f77b4"/>
     <use xlink:href="#m19f837483b" x="343.868622" y="282.706299" style="fill: #1f77b4; stroke: #1f77b4"/>
     <use xlink:href="#m19f837483b" x="347.514676" y="284.329014" style="fill: #1f77b4; stroke: #1f77b4"/>
     <use xlink:href="#m19f837483b" x="351.16073" y="288.404122" style="fill: #1f77b4; stroke: #1f77b4"/>
     <use xlink:href="#m19f837483b" x="354.806784" y="288.876288" style="fill: #1f77b4; stroke: #1f77b4"/>
     <use xlink:href="#m19f837483b" x="358.452837" y="287.514438" style="fill: #1f77b4; stroke: #1f77b4"/>
     <use xlink:href="#m19f837483b" x="362.098891" y="288.501967" style="fill: #1f77b4; stroke: #1f77b4"/>
     <use xlink:href="#m19f837483b" x="365.744945" y="287.473927" style="fill: #1f77b4; stroke: #1f77b4"/>
     <use xlink:href="#m19f837483b" x="369.390999" y="285.621204" style="fill: #1f77b4; stroke: #1f77b4"/>
     <use xlink:href="#m19f837483b" x="373.037053" y="283.986822" style="fill: #1f77b4; stroke: #1f77b4"/>
     <use xlink:href="#m19f837483b" x="376.683106" y="279.334979" style="fill: #1f77b4; stroke: #1f77b4"/>
     <use xlink:href="#m19f837483b" x="380.32916" y="275.498956" style="fill: #1f77b4; stroke: #1f77b4"/>
     <use xlink:href="#m19f837483b" x="383.975214" y="273.206383" style="fill: #1f77b4; stroke: #1f77b4"/>
     <use xlink:href="#m19f837483b" x="387.621268" y="271.045409" style="fill: #1f77b4; stroke: #1f77b4"/>
     <use xlink:href="#m19f837483b" x="391.267322" y="269.733184" style="fill: #1f77b4; stroke: #1f77b4"/>
     <use xlink:href="#m19f837483b" x="394.913376" y="268.53503" style="fill: #1f77b4; stroke: #1f77b4"/>
     <use xlink:href="#m19f837483b" x="398.559429" y="268.087038" style="fill: #1f77b4; stroke: #1f77b4"/>
     <use xlink:href="#m19f837483b" x="402.205483" y="270.440048" style="fill: #1f77b4; stroke: #1f77b4"/>
     <use xlink:href="#m19f837483b" x="405.851537" y="274.281727" style="fill: #1f77b4; stroke: #1f77b4"/>
     <use xlink:href="#m19f837483b" x="409.497591" y="274.554658" style="fill: #1f77b4; stroke: #1f77b4"/>
     <use xlink:href="#m19f837483b" x="413.143645" y="277.790247" style="fill: #1f77b4; stroke: #1f77b4"/>
     <use xlink:href="#m19f837483b" x="416.789698" y="279.770907" style="fill: #1f77b4; stroke: #1f77b4"/>
     <use xlink:href="#m19f837483b" x="420.435752" y="280.088184" style="fill: #1f77b4; stroke: #1f77b4"/>
     <use xlink:href="#m19f837483b" x="424.081806" y="280.244184" style="fill: #1f77b4; stroke: #1f77b4"/>
     <use xlink:href="#m19f837483b" x="427.72786" y="279.922665" style="fill: #1f77b4; stroke: #1f77b4"/>
     <use xlink:href="#m19f837483b" x="431.373914" y="279.771887" style="fill: #1f77b4; stroke: #1f77b4"/>
     <use xlink:href="#m19f837483b" x="435.019967" y="282.097388" style="fill: #1f77b4; stroke: #1f77b4"/>
     <use xlink:href="#m19f837483b" x="438.666021" y="282.138863" style="fill: #1f77b4; stroke: #1f77b4"/>
     <use xlink:href="#m19f837483b" x="442.312075" y="281.886181" style="fill: #1f77b4; stroke: #1f77b4"/>
     <use xlink:href="#m19f837483b" x="445.958129" y="281.094087" style="fill: #1f77b4; stroke: #1f77b4"/>
     <use xlink:href="#m19f837483b" x="449.604183" y="279.977599" style="fill: #1f77b4; stroke: #1f77b4"/>
     <use xlink:href="#m19f837483b" x="453.250237" y="279.585581" style="fill: #1f77b4; stroke: #1f77b4"/>
     <use xlink:href="#m19f837483b" x="456.89629" y="277.686467" style="fill: #1f77b4; stroke: #1f77b4"/>
     <use xlink:href="#m19f837483b" x="460.542344" y="275.246333" style="fill: #1f77b4; stroke: #1f77b4"/>
     <use xlink:href="#m19f837483b" x="464.188398" y="273.656527" style="fill: #1f77b4; stroke: #1f77b4"/>
     <use xlink:href="#m19f837483b" x="467.834452" y="272.2192" style="fill: #1f77b4; stroke: #1f77b4"/>
     <use xlink:href="#m19f837483b" x="471.480506" y="272.583864" style="fill: #1f77b4; stroke: #1f77b4"/>
     <use xlink:href="#m19f837483b" x="475.126559" y="272.139831" style="fill: #1f77b4; stroke: #1f77b4"/>
     <use xlink:href="#m19f837483b" x="478.772613" y="274.934421" style="fill: #1f77b4; stroke: #1f77b4"/>
     <use xlink:href="#m19f837483b" x="482.418667" y="276.332844" style="fill: #1f77b4; stroke: #1f77b4"/>
     <use xlink:href="#m19f837483b" x="486.064721" y="278.940261" style="fill: #1f77b4; stroke: #1f77b4"/>
     <use xlink:href="#m19f837483b" x="489.710775" y="278.912609" style="fill: #1f77b4; stroke: #1f77b4"/>
     <use xlink:href="#m19f837483b" x="493.356828" y="279.805492" style="fill: #1f77b4; stroke: #1f77b4"/>
    </g>
   </g>
   <g id="line2d_28">
    <path d="M 156.096851 369.241424 
L 157.815505 367.60286 
L 159.53416 358.669232 
L 161.252814 333.836362 
L 162.971469 291.196806 
L 164.690123 239.547653 
L 166.408778 191.409875 
L 168.127432 155.26715 
L 169.846087 133.539774 
L 171.564741 124.508547 
L 173.283396 124.8372 
L 175.00205 131.196656 
L 176.720704 140.940728 
L 183.595322 185.647467 
L 185.313977 195.293652 
L 187.032631 203.999827 
L 188.751286 211.790339 
L 190.46994 218.725484 
L 192.188595 224.881415 
L 193.907249 230.338499 
L 195.625904 235.174908 
L 197.344558 239.463374 
L 199.063213 243.269794 
L 200.781867 246.652892 
L 202.500522 249.66446 
L 204.219176 252.349879 
L 205.937831 254.74875 
L 207.656485 256.895565 
L 209.375139 258.820333 
L 211.093794 260.549165 
L 212.812448 262.104794 
L 216.249757 264.773171 
L 219.687066 266.95573 
L 223.124375 268.752329 
L 226.561684 270.240075 
L 229.998993 271.478963 
L 233.436302 272.516026 
L 238.592266 273.772309 
L 243.748229 274.751324 
L 248.904192 275.521402 
L 255.77881 276.307251 
L 264.372083 277.014302 
L 272.965355 277.50316 
L 498.109091 277.50316 
L 498.109091 277.50316 
" clip-path="url(#p9a972ead3f)" style="fill: none; stroke-dasharray: 5.55,2.4; stroke-dashoffset: 0; stroke: #ff7f0e; stroke-width: 1.5"/>
   </g>
   <g id="patch_3">
    <path d="M 72 384.48 
L 72 51.84 
" style="fill: none; stroke: #000000; stroke-width: 0.8; stroke-linejoin: miter; stroke-linecap: square"/>
   </g>
   <g id="patch_4">
    <path d="M 518.4 384.48 
L 518.4 51.84 
" style="fill: none; stroke: #000000; stroke-width: 0.8; stroke-linejoin: miter; stroke-linecap: square"/>
   </g>
   <g id="patch_5">
    <path d="M 72 384.48 
L 518.4 384.48 
" style="fill: none; stroke: #000000; stroke-width: 0.8; stroke-linejoin: miter; stroke-linecap: square"/>
   </g>
   <g id="patch_6">
    <path d="M 72 51.84 
L 518.4 51.84 
" style="fill: none; stroke: #000000; stroke-width: 0.8; stroke-linejoin: miter; stroke-linecap: square"/>
   </g>
   <g id="text_16">
    <!-- Lennard-Jones Fluid: Simulation vs. Theoretical Pair Correlation Function -->
    <g transform="translate(78.67125 45.84) scale(0.12 -0.12)">
     <defs>
      <path id="DejaVuSans-4c" d="M 628 4666 
L 1259 4666 
L 1259 531 
L 3531 531 
L 3531 0 
L 628 0 
L 628 4666 
z
" transform="scale(0.015625)"/>
      <path id="DejaVuSans-65" d="M 3597 1894 
L 3597 1613 
L 953 1613 
Q 991 1019 1311 708 
Q 1631 397 2203 397 
Q 2534 397 2845 478 
Q 3156 559 3463 722 
L 3463 178 
Q 3153 47 2828 -22 
Q 2503 -91 2169 -91 
Q 1331 -91 842 396 
Q 353 884 353 1716 
Q 353 2575 817 3079 
Q 1281 3584 2069 3584 
Q 2775 3584 3186 3129 
Q 3597 2675 3597 1894 
z
M 3022 2063 
Q 3016 2534 2758 2815 
Q 2500 3097 2075 3097 
Q 1594 3097 1305 2825 
Q 1016 2553 972 2059 
L 3022 2063 
z
" transform="scale(0.015625)"/>
      <path id="DejaVuSans-6e" d="M 3513 2113 
L 3513 0 
L 2938 0 
L 2938 2094 
Q 2938 2591 2744 2837 
Q 2550 3084 2163 3084 
Q 1697 3084 1428 2787 
Q 1159 2491 1159 1978 
L 1159 0 
L 581 0 
L 581 3500 
L 1159 3500 
L 1159 2956 
Q 1366 3272 1645 3428 
Q 1925 3584 2291 3584 
Q 2894 3584 3203 3211 
Q 3513 2838 3513 2113 
z
" transform="scale(0.015625)"/>
      <path id="DejaVuSans-61" d="M 2194 1759 
Q 1497 1759 1228 1600 
Q 959 1441 959 1056 
Q 959 750 1161 570 
Q 1363 391 1709 391 
Q 2188 391 2477 730 
Q 2766 1069 2766 1631 
L 2766 1759 
L 2194 1759 
z
M 3341 1997 
L 3341 0 
L 2766 0 
L 2766 531 
Q 2569 213 2275 61 
Q 1981 -91 1556 -91 
Q 1019 -91 701 211 
Q 384 513 384 1019 
Q 384 1609 779 1909 
Q 1175 2209 1959 2209 
L 2766 2209 
L 2766 2266 
Q 2766 2663 2505 2880 
Q 2244 3097 1772 3097 
Q 1472 3097 1187 3025 
Q 903 2953 641 2809 
L 641 3341 
Q 956 3463 1253 3523 
Q 1550 3584 1831 3584 
Q 2591 3584 2966 3190 
Q 3341 2797 3341 1997 
z
" transform="scale(0.015625)"/>
      <path id="DejaVuSans-64" d="M 2906 2969 
L 2906 4863 
L 3481 4863 
L 3481 0 
L 2906 0 
L 2906 525 
Q 2725 213 2448 61 
Q 2172 -91 1784 -91 
Q 1150 -91 751 415 
Q 353 922 353 1747 
Q 353 2572 751 3078 
Q 1150 3584 1784 3584 
Q 2172 3584 2448 3432 
Q 2725 3281 2906 2969 
z
M 947 1747 
Q 947 1113 1208 752 
Q 1469 391 1925 391 
Q 2381 391 2643 752 
Q 2906 1113 2906 1747 
Q 2906 2381 2643 2742 
Q 2381 3103 1925 3103 
Q 1469 3103 1208 2742 
Q 947 2381 947 1747 
z
" transform="scale(0.015625)"/>
      <path id="DejaVuSans-2d" d="M 313 2009 
L 1997 2009 
L 1997 1497 
L 313 1497 
L 313 2009 
z
" transform="scale(0.015625)"/>
      <path id="DejaVuSans-4a" d="M 628 4666 
L 1259 4666 
L 1259 325 
Q 1259 -519 939 -900 
Q 619 -1281 -91 -1281 
L -331 -1281 
L -331 -750 
L -134 -750 
Q 284 -750 456 -515 
Q 628 -281 628 325 
L 628 4666 
z
" transform="scale(0.015625)"/>
      <path id="DejaVuSans-6f" d="M 1959 3097 
Q 1497 3097 1228 2736 
Q 959 2375 959 1747 
Q 959 1119 1226 758 
Q 1494 397 1959 397 
Q 2419 397 2687 759 
Q 2956 1122 2956 1747 
Q 2956 2369 2687 2733 
Q 2419 3097 1959 3097 
z
M 1959 3584 
Q 2709 3584 3137 3096 
Q 3566 2609 3566 1747 
Q 3566 888 3137 398 
Q 2709 -91 1959 -91 
Q 1206 -91 779 398 
Q 353 888 353 1747 
Q 353 2609 779 3096 
Q 1206 3584 1959 3584 
z
" transform="scale(0.015625)"/>
      <path id="DejaVuSans-73" d="M 2834 3397 
L 2834 2853 
Q 2591 2978 2328 3040 
Q 2066 3103 1784 3103 
Q 1356 3103 1142 2972 
Q 928 2841 928 2578 
Q 928 2378 1081 2264 
Q 1234 2150 1697 2047 
L 1894 2003 
Q 2506 1872 2764 1633 
Q 3022 1394 3022 966 
Q 3022 478 2636 193 
Q 2250 -91 1575 -91 
Q 1294 -91 989 -36 
Q 684 19 347 128 
L 347 722 
Q 666 556 975 473 
Q 1284 391 1588 391 
Q 1994 391 2212 530 
Q 2431 669 2431 922 
Q 2431 1156 2273 1281 
Q 2116 1406 1581 1522 
L 1381 1569 
Q 847 1681 609 1914 
Q 372 2147 372 2553 
Q 372 3047 722 3315 
Q 1072 3584 1716 3584 
Q 2034 3584 2315 3537 
Q 2597 3491 2834 3397 
z
" transform="scale(0.015625)"/>
      <path id="DejaVuSans-20" transform="scale(0.015625)"/>
      <path id="DejaVuSans-46" d="M 628 4666 
L 3309 4666 
L 3309 4134 
L 1259 4134 
L 1259 2759 
L 3109 2759 
L 3109 2228 
L 1259 2228 
L 1259 0 
L 628 0 
L 628 4666 
z
" transform="scale(0.015625)"/>
      <path id="DejaVuSans-6c" d="M 603 4863 
L 1178 4863 
L 1178 0 
L 603 0 
L 603 4863 
z
" transform="scale(0.015625)"/>
      <path id="DejaVuSans-75" d="M 544 1381 
L 544 3500 
L 1119 3500 
L 1119 1403 
Q 1119 906 1312 657 
Q 1506 409 1894 409 
Q 2359 409 2629 706 
Q 2900 1003 2900 1516 
L 2900 3500 
L 3475 3500 
L 3475 0 
L 2900 0 
L 2900 538 
Q 2691 219 2414 64 
Q 2138 -91 1772 -91 
Q 1169 -91 856 284 
Q 544 659 544 1381 
z
M 1991 3584 
L 1991 3584 
z
" transform="scale(0.015625)"/>
      <path id="DejaVuSans-69" d="M 603 3500 
L 1178 3500 
L 1178 0 
L 603 0 
L 603 3500 
z
M 603 4863 
L 1178 4863 
L 1178 4134 
L 603 4134 
L 603 4863 
z
" transform="scale(0.015625)"/>
      <path id="DejaVuSans-3a" d="M 750 794 
L 1409 794 
L 1409 0 
L 750 0 
L 750 794 
z
M 750 3309 
L 1409 3309 
L 1409 2516 
L 750 2516 
L 750 3309 
z
" transform="scale(0.015625)"/>
      <path id="DejaVuSans-53" d="M 3425 4513 
L 3425 3897 
Q 3066 4069 2747 4153 
Q 2428 4238 2131 4238 
Q 1616 4238 1336 4038 
Q 1056 3838 1056 3469 
Q 1056 3159 1242 3001 
Q 1428 2844 1947 2747 
L 2328 2669 
Q 3034 2534 3370 2195 
Q 3706 1856 3706 1288 
Q 3706 609 3251 259 
Q 2797 -91 1919 -91 
Q 1588 -91 1214 -16 
Q 841 59 441 206 
L 441 856 
Q 825 641 1194 531 
Q 1563 422 1919 422 
Q 2459 422 2753 634 
Q 3047 847 3047 1241 
Q 3047 1584 2836 1778 
Q 2625 1972 2144 2069 
L 1759 2144 
Q 1053 2284 737 2584 
Q 422 2884 422 3419 
Q 422 4038 858 4394 
Q 1294 4750 2059 4750 
Q 2388 4750 2728 4690 
Q 3069 4631 3425 4513 
z
" transform="scale(0.015625)"/>
      <path id="DejaVuSans-6d" d="M 3328 2828 
Q 3544 3216 3844 3400 
Q 4144 3584 4550 3584 
Q 5097 3584 5394 3201 
Q 5691 2819 5691 2113 
L 5691 0 
L 5113 0 
L 5113 2094 
Q 5113 2597 4934 2840 
Q 4756 3084 4391 3084 
Q 3944 3084 3684 2787 
Q 3425 2491 3425 1978 
L 3425 0 
L 2847 0 
L 2847 2094 
Q 2847 2600 2669 2842 
Q 2491 3084 2119 3084 
Q 1678 3084 1418 2786 
Q 1159 2488 1159 1978 
L 1159 0 
L 581 0 
L 581 3500 
L 1159 3500 
L 1159 2956 
Q 1356 3278 1631 3431 
Q 1906 3584 2284 3584 
Q 2666 3584 2933 3390 
Q 3200 3197 3328 2828 
z
" transform="scale(0.015625)"/>
      <path id="DejaVuSans-74" d="M 1172 4494 
L 1172 3500 
L 2356 3500 
L 2356 3053 
L 1172 3053 
L 1172 1153 
Q 1172 725 1289 603 
Q 1406 481 1766 481 
L 2356 481 
L 2356 0 
L 1766 0 
Q 1100 0 847 248 
Q 594 497 594 1153 
L 594 3053 
L 172 3053 
L 172 3500 
L 594 3500 
L 594 4494 
L 1172 4494 
z
" transform="scale(0.015625)"/>
      <path id="DejaVuSans-76" d="M 191 3500 
L 800 3500 
L 1894 563 
L 2988 3500 
L 3597 3500 
L 2284 0 
L 1503 0 
L 191 3500 
z
" transform="scale(0.015625)"/>
      <path id="DejaVuSans-54" d="M -19 4666 
L 3928 4666 
L 3928 4134 
L 2272 4134 
L 2272 0 
L 1638 0 
L 1638 4134 
L -19 4134 
L -19 4666 
z
" transform="scale(0.015625)"/>
      <path id="DejaVuSans-68" d="M 3513 2113 
L 3513 0 
L 2938 0 
L 2938 2094 
Q 2938 2591 2744 2837 
Q 2550 3084 2163 3084 
Q 1697 3084 1428 2787 
Q 1159 2491 1159 1978 
L 1159 0 
L 581 0 
L 581 4863 
L 1159 4863 
L 1159 2956 
Q 1366 3272 1645 3428 
Q 1925 3584 2291 3584 
Q 2894 3584 3203 3211 
Q 3513 2838 3513 2113 
z
" transform="scale(0.015625)"/>
      <path id="DejaVuSans-63" d="M 3122 3366 
L 3122 2828 
Q 2878 2963 2633 3030 
Q 2388 3097 2138 3097 
Q 1578 3097 1268 2742 
Q 959 2388 959 1747 
Q 959 1106 1268 751 
Q 1578 397 2138 397 
Q 2388 397 2633 464 
Q 2878 531 3122 666 
L 3122 134 
Q 2881 22 2623 -34 
Q 2366 -91 2075 -91 
Q 1284 -91 818 406 
Q 353 903 353 1747 
Q 353 2603 823 3093 
Q 1294 3584 2113 3584 
Q 2378 3584 2631 3529 
Q 2884 3475 3122 3366 
z
" transform="scale(0.015625)"/>
      <path id="DejaVuSans-50" d="M 1259 4147 
L 1259 2394 
L 2053 2394 
Q 2494 2394 2734 2622 
Q 2975 2850 2975 3272 
Q 2975 3691 2734 3919 
Q 2494 4147 2053 4147 
L 1259 4147 
z
M 628 4666 
L 2053 4666 
Q 2838 4666 3239 4311 
Q 3641 3956 3641 3272 
Q 3641 2581 3239 2228 
Q 2838 1875 2053 1875 
L 1259 1875 
L 1259 0 
L 628 0 
L 628 4666 
z
" transform="scale(0.015625)"/>
      <path id="DejaVuSans-43" d="M 4122 4306 
L 4122 3641 
Q 3803 3938 3442 4084 
Q 3081 4231 2675 4231 
Q 1875 4231 1450 3742 
Q 1025 3253 1025 2328 
Q 1025 1406 1450 917 
Q 1875 428 2675 428 
Q 3081 428 3442 575 
Q 3803 722 4122 1019 
L 4122 359 
Q 3791 134 3420 21 
Q 3050 -91 2638 -91 
Q 1578 -91 968 557 
Q 359 1206 359 2328 
Q 359 3453 968 4101 
Q 1578 4750 2638 4750 
Q 3056 4750 3426 4639 
Q 3797 4528 4122 4306 
z
" transform="scale(0.015625)"/>
     </defs>
     <use xlink:href="#DejaVuSans-4c"/>
     <use xlink:href="#DejaVuSans-65" x="53.962891"/>
     <use xlink:href="#DejaVuSans-6e" x="115.486328"/>
     <use xlink:href="#DejaVuSans-6e" x="178.865234"/>
     <use xlink:href="#DejaVuSans-61" x="242.244141"/>
     <use xlink:href="#DejaVuSans-72" x="303.523438"/>
     <use xlink:href="#DejaVuSans-64" x="342.886719"/>
     <use xlink:href="#DejaVuSans-2d" x="406.363281"/>
     <use xlink:href="#DejaVuSans-4a" x="448.072266"/>
     <use xlink:href="#DejaVuSans-6f" x="477.564453"/>
     <use xlink:href="#DejaVuSans-6e" x="538.746094"/>
     <use xlink:href="#DejaVuSans-65" x="602.125"/>
     <use xlink:href="#DejaVuSans-73" x="663.648438"/>
     <use xlink:href="#DejaVuSans-20" x="715.748047"/>
     <use xlink:href="#DejaVuSans-46" x="747.535156"/>
     <use xlink:href="#DejaVuSans-6c" x="805.054688"/>
     <use xlink:href="#DejaVuSans-75" x="832.837891"/>
     <use xlink:href="#DejaVuSans-69" x="896.216797"/>
     <use xlink:href="#DejaVuSans-64" x="924"/>
     <use xlink:href="#DejaVuSans-3a" x="987.476562"/>
     <use xlink:href="#DejaVuSans-20" x="1021.167969"/>
     <use xlink:href="#DejaVuSans-53" x="1052.955078"/>
     <use xlink:href="#DejaVuSans-69" x="1116.431641"/>
     <use xlink:href="#DejaVuSans-6d" x="1144.214844"/>
     <use xlink:href="#DejaVuSans-75" x="1241.626953"/>
     <use xlink:href="#DejaVuSans-6c" x="1305.005859"/>
     <use xlink:href="#DejaVuSans-61" x="1332.789062"/>
     <use xlink:href="#DejaVuSans-74" x="1394.068359"/>
     <use xlink:href="#DejaVuSans-69" x="1433.277344"/>
     <use xlink:href="#DejaVuSans-6f" x="1461.060547"/>
     <use xlink:href="#DejaVuSans-6e" x="1522.242188"/>
     <use xlink:href="#DejaVuSans-20" x="1585.621094"/>
     <use xlink:href="#DejaVuSans-76" x="1617.408203"/>
     <use xlink:href="#DejaVuSans-73" x="1676.587891"/>
     <use xlink:href="#DejaVuSans-2e" x="1728.6875"/>
     <use xlink:href="#DejaVuSans-20" x="1760.474609"/>
     <use xlink:href="#DejaVuSans-54" x="1792.261719"/>
     <use xlink:href="#DejaVuSans-68" x="1853.345703"/>
     <use xlink:href="#DejaVuSans-65" x="1916.724609"/>
     <use xlink:href="#DejaVuSans-6f" x="1978.248047"/>
     <use xlink:href="#DejaVuSans-72" x="2039.429688"/>
     <use xlink:href="#DejaVuSans-65" x="2078.292969"/>
     <use xlink:href="#DejaVuSans-74" x="2139.816406"/>
     <use xlink:href="#DejaVuSans-69" x="2179.025391"/>
     <use xlink:href="#DejaVuSans-63" x="2206.808594"/>
     <use xlink:href="#DejaVuSans-61" x="2261.789062"/>
     <use xlink:href="#DejaVuSans-6c" x="2323.068359"/>
     <use xlink:href="#DejaVuSans-20" x="2350.851562"/>
     <use xlink:href="#DejaVuSans-50" x="2382.638672"/>
     <use xlink:href="#DejaVuSans-61" x="2438.441406"/>
     <use xlink:href="#DejaVuSans-69" x="2499.720703"/>
     <use xlink:href="#DejaVuSans-72" x="2527.503906"/>
     <use xlink:href="#DejaVuSans-20" x="2568.617188"/>
     <use xlink:href="#DejaVuSans-43" x="2600.404297"/>
     <use xlink:href="#DejaVuSans-6f" x="2670.228516"/>
     <use xlink:href="#DejaVuSans-72" x="2731.410156"/>
     <use xlink:href="#DejaVuSans-72" x="2770.773438"/>
     <use xlink:href="#DejaVuSans-65" x="2809.636719"/>
     <use xlink:href="#DejaVuSans-6c" x="2871.160156"/>
     <use xlink:href="#DejaVuSans-61" x="2898.943359"/>
     <use xlink:href="#DejaVuSans-74" x="2960.222656"/>
     <use xlink:href="#DejaVuSans-69" x="2999.431641"/>
     <use xlink:href="#DejaVuSans-6f" x="3027.214844"/>
     <use xlink:href="#DejaVuSans-6e" x="3088.396484"/>
     <use xlink:href="#DejaVuSans-20" x="3151.775391"/>
     <use xlink:href="#DejaVuSans-46" x="3183.5625"/>
     <use xlink:href="#DejaVuSans-75" x="3235.582031"/>
     <use xlink:href="#DejaVuSans-6e" x="3298.960938"/>
     <use xlink:href="#DejaVuSans-63" x="3362.339844"/>
     <use xlink:href="#DejaVuSans-74" x="3417.320312"/>
     <use xlink:href="#DejaVuSans-69" x="3456.529297"/>
     <use xlink:href="#DejaVuSans-6f" x="3484.3125"/>
     <use xlink:href="#DejaVuSans-6e" x="3545.494141"/>
    </g>
   </g>
   <g id="legend_1">
    <g id="patch_7">
     <path d="M 333.770312 89.19625 
L 511.4 89.19625 
Q 513.4 89.19625 513.4 87.19625 
L 513.4 58.84 
Q 513.4 56.84 511.4 56.84 
L 333.770312 56.84 
Q 331.770312 56.84 331.770312 58.84 
L 331.770312 87.19625 
Q 331.770312 89.19625 333.770312 89.19625 
z
" style="fill: #ffffff; opacity: 0.8; stroke: #cccccc; stroke-linejoin: miter"/>
    </g>
    <g id="line2d_29">
     <path d="M 335.770312 64.938437 
L 345.770312 64.938437 
L 355.770312 64.938437 
" style="fill: none; stroke: #1f77b4; stroke-width: 1.5; stroke-linecap: square"/>
     <g>
      <use xlink:href="#m19f837483b" x="345.770312" y="64.938437" style="fill: #1f77b4; stroke: #1f77b4"/>
     </g>
    </g>
    <g id="text_17">
     <!-- Simulation g(r) -->
     <g transform="translate(363.770312 68.438437) scale(0.1 -0.1)">
      <use xlink:href="#DejaVuSans-53"/>
      <use xlink:href="#DejaVuSans-69" x="63.476562"/>
      <use xlink:href="#DejaVuSans-6d" x="91.259766"/>
      <use xlink:href="#DejaVuSans-75" x="188.671875"/>
      <use xlink:href="#DejaVuSans-6c" x="252.050781"/>
      <use xlink:href="#DejaVuSans-61" x="279.833984"/>
      <use xlink:href="#DejaVuSans-74" x="341.113281"/>
      <use xlink:href="#DejaVuSans-69" x="380.322266"/>
      <use xlink:href="#DejaVuSans-6f" x="408.105469"/>
      <use xlink:href="#DejaVuSans-6e" x="469.287109"/>
      <use xlink:href="#DejaVuSans-20" x="532.666016"/>
      <use xlink:href="#DejaVuSans-67" x="564.453125"/>
      <use xlink:href="#DejaVuSans-28" x="627.929688"/>
      <use xlink:href="#DejaVuSans-72" x="666.943359"/>
      <use xlink:href="#DejaVuSans-29" x="708.056641"/>
     </g>
    </g>
    <g id="line2d_30">
     <path d="M 335.770312 79.616562 
L 345.770312 79.616562 
L 355.770312 79.616562 
" style="fill: none; stroke-dasharray: 5.55,2.4; stroke-dashoffset: 0; stroke: #ff7f0e; stroke-width: 1.5"/>
    </g>
    <g id="text_18">
     <!-- Theoretical g(r) [low-density] -->
     <g transform="translate(363.770312 83.116562) scale(0.1 -0.1)">
      <defs>
       <path id="DejaVuSans-5b" d="M 550 4863 
L 1875 4863 
L 1875 4416 
L 1125 4416 
L 1125 -397 
L 1875 -397 
L 1875 -844 
L 550 -844 
L 550 4863 
z
" transform="scale(0.015625)"/>
       <path id="DejaVuSans-77" d="M 269 3500 
L 844 3500 
L 1563 769 
L 2278 3500 
L 2956 3500 
L 3675 769 
L 4391 3500 
L 4966 3500 
L 4050 0 
L 3372 0 
L 2619 2869 
L 1863 0 
L 1184 0 
L 269 3500 
z
" transform="scale(0.015625)"/>
       <path id="DejaVuSans-79" d="M 2059 -325 
Q 1816 -950 1584 -1140 
Q 1353 -1331 966 -1331 
L 506 -1331 
L 506 -850 
L 844 -850 
Q 1081 -850 1212 -737 
Q 1344 -625 1503 -206 
L 1606 56 
L 191 3500 
L 800 3500 
L 1894 763 
L 2988 3500 
L 3597 3500 
L 2059 -325 
z
" transform="scale(0.015625)"/>
       <path id="DejaVuSans-5d" d="M 1947 4863 
L 1947 -844 
L 622 -844 
L 622 -397 
L 1369 -397 
L 1369 4416 
L 622 4416 
L 622 4863 
L 1947 4863 
z
" transform="scale(0.015625)"/>
      </defs>
      <use xlink:href="#DejaVuSans-54"/>
      <use xlink:href="#DejaVuSans-68" x="61.083984"/>
      <use xlink:href="#DejaVuSans-65" x="124.462891"/>
      <use xlink:href="#DejaVuSans-6f" x="185.986328"/>
      <use xlink:href="#DejaVuSans-72" x="247.167969"/>
      <use xlink:href="#DejaVuSans-65" x="286.03125"/>
      <use xlink:href="#DejaVuSans-74" x="347.554688"/>
      <use xlink:href="#DejaVuSans-69" x="386.763672"/>
      <use xlink:href="#DejaVuSans-63" x="414.546875"/>
      <use xlink:href="#DejaVuSans-61" x="469.527344"/>
      <use xlink:href="#DejaVuSans-6c" x="530.806641"/>
      <use xlink:href="#DejaVuSans-20" x="558.589844"/>
      <use xlink:href="#DejaVuSans-67" x="590.376953"/>
      <use xlink:href="#DejaVuSans-28" x="653.853516"/>
      <use xlink:href="#DejaVuSans-72" x="692.867188"/>
      <use xlink:href="#DejaVuSans-29" x="733.980469"/>
      <use xlink:href="#DejaVuSans-20" x="772.994141"/>
      <use xlink:href="#DejaVuSans-5b" x="804.78125"/>
      <use xlink:href="#DejaVuSans-6c" x="843.794922"/>
      <use xlink:href="#DejaVuSans-6f" x="871.578125"/>
      <use xlink:href="#DejaVuSans-77" x="932.759766"/>
      <use xlink:href="#DejaVuSans-2d" x="1014.546875"/>
      <use xlink:href="#DejaVuSans-64" x="1050.630859"/>
      <use xlink:href="#DejaVuSans-65" x="1114.107422"/>
      <use xlink:href="#DejaVuSans-6e" x="1175.630859"/>
      <use xlink:href="#DejaVuSans-73" x="1239.009766"/>
      <use xlink:href="#DejaVuSans-69" x="1291.109375"/>
      <use xlink:href="#DejaVuSans-74" x="1318.892578"/>
      <use xlink:href="#DejaVuSans-79" x="1358.101562"/>
      <use xlink:href="#DejaVuSans-5d" x="1417.28125"/>
     </g>
    </g>
   </g>
  </g>
 </g>
 <defs>
  <clipPath id="p9a972ead3f">
   <rect x="72" y="51.84" width="446.4" height="332.64"/>
  </clipPath>
 </defs>
</svg>
