<?xml version="1.0" encoding="UTF-8" standalone="no"?>
<svg
   width="1199.9309"
   height="230.49486"
   version="1.1"
   id="svg128"
   sodipodi:docname="SodiumEmissionSpectra.svg"
   inkscape:version="1.4 (86a8ad7, 2024-10-11)"
   xmlns:inkscape="http://www.inkscape.org/namespaces/inkscape"
   xmlns:sodipodi="http://sodipodi.sourceforge.net/DTD/sodipodi-0.dtd"
   xmlns="http://www.w3.org/2000/svg"
   xmlns:svg="http://www.w3.org/2000/svg">
  <defs
     id="defs128" />
  <sodipodi:namedview
     id="namedview128"
     pagecolor="#ffffff"
     bordercolor="#000000"
     borderopacity="0.25"
     inkscape:showpageshadow="2"
     inkscape:pageopacity="0.0"
     inkscape:pagecheckerboard="0"
     inkscape:deskcolor="#d1d1d1"
     inkscape:zoom="2.1189633"
     inkscape:cx="564.89888"
     inkscape:cy="112.08311"
     inkscape:window-width="1920"
     inkscape:window-height="1009"
     inkscape:window-x="-8"
     inkscape:window-y="-8"
     inkscape:window-maximized="1"
     inkscape:current-layer="svg128" />
  <rect
     width="1200"
     height="230.49486"
     fill="#000000"
     id="rect1"
     x="0"
     y="-1.4210855e-14"
     style="stroke-width:0.876536" />
  <rect
     x="1025.0699"
     y="-0.0055610025"
     width="2"
     height="180"
     fill="#ffff00"
     opacity="1"
     id="rect2" />
  <rect
     x="1022.15"
     y="-0.0055610025"
     width="2"
     height="180"
     fill="#ffff00"
     opacity="0.55"
     id="rect3" />
  <rect
     x="1154.79"
     y="-0.0055610025"
     width="2"
     height="180"
     fill="#ff4200"
     opacity="0.123"
     id="rect4" />
  <rect
     x="1151.59"
     y="-0.0055610025"
     width="2"
     height="180"
     fill="#ff4700"
     opacity="0.118"
     id="rect5" />
  <rect
     x="1090.7"
     y="-0.0055610025"
     width="2"
     height="180"
     fill="#ffa300"
     opacity="0.111"
     id="rect6" />
  <rect
     x="1086.92"
     y="-0.0055610025"
     width="2"
     height="180"
     fill="#ffa900"
     opacity="0.109"
     id="rect7" />
  <rect
     x="1069.05"
     y="-0.0055610025"
     width="2"
     height="180"
     fill="#ffc400"
     opacity="0.107"
     id="rect8" />
  <rect
     x="1064.05"
     y="-0.0055610025"
     width="2"
     height="180"
     fill="#ffcc00"
     opacity="0.105"
     id="rect9" />
  <rect
     x="1048.52"
     y="-0.0055610025"
     width="2"
     height="180"
     fill="#ffe300"
     opacity="0.105"
     id="rect10" />
  <rect
     x="1046.37"
     y="-0.0055610025"
     width="2"
     height="180"
     fill="#ffe600"
     opacity="0.104"
     id="rect11" />
  <rect
     x="1037.85"
     y="-0.0055610025"
     width="2"
     height="180"
     fill="#fff300"
     opacity="0.103"
     id="rect12" />
  <rect
     x="1027.0699"
     y="-0.0055610025"
     width="2"
     height="180"
     fill="#ffff00"
     opacity="0.102"
     id="rect13" />
  <rect
     x="1003.81"
     y="-0.0055610025"
     width="2"
     height="180"
     fill="#ffff00"
     opacity="0.102"
     id="rect14" />
  <rect
     x="978.09003"
     y="-0.0055610025"
     width="2"
     height="180"
     fill="#ffff00"
     opacity="0.101"
     id="rect15" />
  <rect
     x="953.59998"
     y="-0.0055610025"
     width="2"
     height="180"
     fill="#ffff00"
     opacity="0.101"
     id="rect16" />
  <rect
     x="923.34003"
     y="-0.0055610025"
     width="2"
     height="180"
     fill="#f7ff07"
     opacity="0.145"
     id="rect17" />
  <rect
     x="920.59998"
     y="-0.0055610025"
     width="2"
     height="180"
     fill="#f5ff09"
     opacity="0.127"
     id="rect18" />
  <rect
     x="904.62"
     y="-0.0055610025"
     width="2"
     height="180"
     fill="#eaff14"
     opacity="0.101"
     id="rect19" />
  <rect
     x="880.13"
     y="-0.0055610025"
     width="2"
     height="180"
     fill="#d9ff25"
     opacity="0.101"
     id="rect20" />
  <rect
     x="855.64001"
     y="-0.0055610025"
     width="2"
     height="180"
     fill="#c8ff36"
     opacity="0.1"
     id="rect21" />
  <rect
     x="831.15002"
     y="-0.0055610025"
     width="2"
     height="180"
     fill="#b8ff46"
     opacity="0.1"
     id="rect22" />
  <rect
     x="806.65997"
     y="-0.0055610025"
     width="2"
     height="180"
     fill="#a7ff57"
     opacity="0.1"
     id="rect23" />
  <rect
     x="782.16998"
     y="-0.0055610025"
     width="2"
     height="180"
     fill="#96ff68"
     opacity="0.1"
     id="rect24" />
  <rect
     x="757.67999"
     y="-0.0055610025"
     width="2"
     height="180"
     fill="#85ff79"
     opacity="0.1"
     id="rect25" />
  <rect
     x="733.19"
     y="-0.0055610025"
     width="2"
     height="180"
     fill="#75ff89"
     opacity="0.1"
     id="rect26" />
  <rect
     x="708.70001"
     y="-0.0055610025"
     width="2"
     height="180"
     fill="#64ff9a"
     opacity="0.1"
     id="rect27" />
  <rect
     x="684.21002"
     y="-0.0055610025"
     width="2"
     height="180"
     fill="#53ffab"
     opacity="0.1"
     id="rect28" />
  <rect
     x="659.71997"
     y="-0.0055610025"
     width="2"
     height="180"
     fill="#42ffbc"
     opacity="0.1"
     id="rect29" />
  <rect
     x="635.22998"
     y="-0.0055610025"
     width="2"
     height="180"
     fill="#31ffcd"
     opacity="0.1"
     id="rect30" />
  <rect
     x="610.73999"
     y="-0.0055610025"
     width="2"
     height="180"
     fill="#21ffdd"
     opacity="0.1"
     id="rect31" />
  <rect
     x="577.84998"
     y="-0.0055610025"
     width="2"
     height="180"
     fill="#0afff4"
     opacity="0.118"
     id="rect32" />
  <rect
     x="586.26001"
     y="-0.0055610025"
     width="2"
     height="180"
     fill="#10ffee"
     opacity="0.1"
     id="rect33" />
  <rect
     x="561.77002"
     y="-0.0055610025"
     width="2"
     height="180"
     fill="#00feff"
     opacity="0.1"
     id="rect34" />
  <rect
     x="537.28003"
     y="-0.0055610025"
     width="2"
     height="180"
     fill="#00e4ff"
     opacity="0.1"
     id="rect35" />
  <rect
     x="512.78998"
     y="-0.0055610025"
     width="2"
     height="180"
     fill="#00caff"
     opacity="0.1"
     id="rect36" />
  <rect
     x="488.29999"
     y="-0.0055610025"
     width="2"
     height="180"
     fill="#00b0ff"
     opacity="0.1"
     id="rect37" />
  <rect
     x="463.81"
     y="-0.0055610025"
     width="2"
     height="180"
     fill="#0096ff"
     opacity="0.1"
     id="rect38" />
  <rect
     x="439.32001"
     y="-0.0055610025"
     width="2"
     height="180"
     fill="#007cff"
     opacity="0.1"
     id="rect39" />
  <rect
     x="423.92001"
     y="-0.0055610025"
     width="2"
     height="180"
     fill="#006bff"
     opacity="0.114"
     id="rect40" />
  <rect
     x="414.82999"
     y="-0.0055610025"
     width="2"
     height="180"
     fill="#0062ff"
     opacity="0.1"
     id="rect41" />
  <rect
     x="390.34"
     y="-0.0055610025"
     width="2"
     height="180"
     fill="#0048ff"
     opacity="0.1"
     id="rect42" />
  <rect
     x="365.85001"
     y="-0.0055610025"
     width="2"
     height="180"
     fill="#002eff"
     opacity="0.1"
     id="rect43" />
  <rect
     x="341.35999"
     y="-0.0055610025"
     width="2"
     height="180"
     fill="#0014ff"
     opacity="0.1"
     id="rect44" />
  <rect
     x="339.94"
     y="-0.0055610025"
     width="2"
     height="180"
     fill="#0012ff"
     opacity="0.109"
     id="rect45" />
  <rect
     x="338.57001"
     y="-0.0055610025"
     width="2"
     height="180"
     fill="#0011ff"
     opacity="0.107"
     id="rect46" />
  <rect
     x="317.25"
     y="-0.0055610025"
     width="2"
     height="180"
     fill="#fc00ff"
     opacity="0.105"
     id="rect47" />
  <rect
     x="316.87"
     y="-0.0055610025"
     width="2"
     height="180"
     fill="#fc00ff"
     opacity="0.1"
     id="rect48" />
  <rect
     x="292.38"
     y="-0.0055610025"
     width="2"
     height="180"
     fill="#f300ff"
     opacity="0.1"
     id="rect49" />
  <rect
     x="288.97"
     y="-0.0055610025"
     width="2"
     height="180"
     fill="#f100ff"
     opacity="0.104"
     id="rect50" />
  <rect
     x="267.89001"
     y="-0.0055610025"
     width="2"
     height="180"
     fill="#e900ff"
     opacity="0.1"
     id="rect51" />
  <rect
     x="267"
     y="-0.0055610025"
     width="2"
     height="180"
     fill="#e900ff"
     opacity="0.103"
     id="rect52" />
  <rect
     x="252.53999"
     y="-0.0055610025"
     width="2"
     height="180"
     fill="#e300ff"
     opacity="0.102"
     id="rect53" />
  <rect
     x="243.39999"
     y="-0.0055610025"
     width="2"
     height="180"
     fill="#df00ff"
     opacity="0.1"
     id="rect54" />
  <rect
     x="235.06"
     y="-0.0055610025"
     width="2"
     height="180"
     fill="#dc00ff"
     opacity="0.101"
     id="rect55" />
  <rect
     x="223.48"
     y="-0.0055610025"
     width="2"
     height="180"
     fill="#d800ff"
     opacity="0.101"
     id="rect56" />
  <rect
     x="218.91"
     y="-0.0055610025"
     width="2"
     height="180"
     fill="#d600ff"
     opacity="0.1"
     id="rect57" />
  <rect
     x="210.69"
     y="-0.0055610025"
     width="2"
     height="180"
     fill="#d300ff"
     opacity="0.101"
     id="rect58" />
  <rect
     x="199"
     y="-0.0055610025"
     width="2"
     height="180"
     fill="#ce00ff"
     opacity="0.101"
     id="rect59" />
  <rect
     x="194.42"
     y="-0.0055610025"
     width="2"
     height="180"
     fill="#cc00ff"
     opacity="0.1"
     id="rect60" />
  <rect
     x="187.86"
     y="-0.0055610025"
     width="2"
     height="180"
     fill="#ca00ff"
     opacity="0.101"
     id="rect61" />
  <rect
     x="178.73"
     y="-0.0055610025"
     width="2"
     height="180"
     fill="#c600ff"
     opacity="0.1"
     id="rect62" />
  <rect
     x="169.92999"
     y="-0.0055610025"
     width="2"
     height="180"
     fill="#c200ff"
     opacity="0.1"
     id="rect63" />
  <rect
     x="166.62"
     y="-0.0055610025"
     width="2"
     height="180"
     fill="#c100ff"
     opacity="0.1"
     id="rect64" />
  <rect
     x="155.72"
     y="-0.0055610025"
     width="2"
     height="180"
     fill="#bd00ff"
     opacity="0.1"
     id="rect65" />
  <rect
     x="146.61"
     y="-0.0055610025"
     width="2"
     height="180"
     fill="#b900ff"
     opacity="0.1"
     id="rect66" />
  <rect
     x="145.44"
     y="-0.0055610025"
     width="2"
     height="180"
     fill="#b900ff"
     opacity="0.1"
     id="rect67" />
  <rect
     x="137.25999"
     y="-0.0055610025"
     width="2"
     height="180"
     fill="#b600ff"
     opacity="0.1"
     id="rect68" />
  <rect
     x="129.62"
     y="-0.0055610025"
     width="2"
     height="180"
     fill="#b300ff"
     opacity="0.1"
     id="rect69" />
  <rect
     x="120.95"
     y="-0.0055610025"
     width="2"
     height="180"
     fill="#af00ff"
     opacity="0.1"
     id="rect70" />
  <rect
     x="118.08"
     y="-0.0055610025"
     width="2"
     height="180"
     fill="#ae00ff"
     opacity="0.1"
     id="rect71" />
  <rect
     x="109.83"
     y="-0.0055610025"
     width="2"
     height="180"
     fill="#ab00ff"
     opacity="0.1"
     id="rect72" />
  <rect
     x="101.34"
     y="-0.0055610025"
     width="2"
     height="180"
     fill="#a700ff"
     opacity="0.1"
     id="rect73" />
  <rect
     x="96.459999"
     y="-0.0055610025"
     width="2"
     height="180"
     fill="#a600ff"
     opacity="0.1"
     id="rect74" />
  <rect
     x="94.160004"
     y="-0.0055610025"
     width="2"
     height="180"
     fill="#a500ff"
     opacity="0.1"
     id="rect75" />
  <rect
     x="83.230003"
     y="-0.0055610025"
     width="2"
     height="180"
     fill="#a000ff"
     opacity="0.1"
     id="rect76" />
  <rect
     x="75.889999"
     y="-0.0055610025"
     width="2"
     height="180"
     fill="#9d00ff"
     opacity="0.1"
     id="rect77" />
  <rect
     x="71.970001"
     y="-0.0055610025"
     width="2"
     height="180"
     fill="#9c00ff"
     opacity="0.1"
     id="rect78" />
  <rect
     x="67.809998"
     y="-0.0055610025"
     width="2"
     height="180"
     fill="#9a00ff"
     opacity="0.1"
     id="rect79" />
  <rect
     x="61.490002"
     y="-0.0055610025"
     width="2"
     height="180"
     fill="#9800ff"
     opacity="0.1"
     id="rect80" />
  <rect
     x="55.02"
     y="-0.0055610025"
     width="2"
     height="180"
     fill="#9500ff"
     opacity="0.1"
     id="rect81" />
  <rect
     x="48.950001"
     y="-0.0055610025"
     width="2"
     height="180"
     fill="#9300ff"
     opacity="0.1"
     id="rect82" />
  <rect
     x="47.48"
     y="-0.0055610025"
     width="2"
     height="180"
     fill="#9200ff"
     opacity="0.1"
     id="rect83" />
  <rect
     x="42.580002"
     y="-0.0055610025"
     width="2"
     height="180"
     fill="#9000ff"
     opacity="0.1"
     id="rect84" />
  <rect
     x="36.700001"
     y="-0.0055610025"
     width="2"
     height="180"
     fill="#8e00ff"
     opacity="0.1"
     id="rect85" />
  <rect
     x="31.32"
     y="-0.0055610025"
     width="2"
     height="180"
     fill="#8c00ff"
     opacity="0.1"
     id="rect86" />
  <rect
     x="25.440001"
     y="-0.0055610025"
     width="2"
     height="180"
     fill="#8a00ff"
     opacity="0.1"
     id="rect87" />
  <rect
     x="22.99"
     y="-0.0055610025"
     width="2"
     height="180"
     fill="#8900ff"
     opacity="0.1"
     id="rect88" />
  <rect
     x="19.07"
     y="-0.0055610025"
     width="2"
     height="180"
     fill="#8700ff"
     opacity="0.1"
     id="rect89" />
  <rect
     x="14.17"
     y="-0.0055610025"
     width="2"
     height="180"
     fill="#8500ff"
     opacity="0.1"
     id="rect90" />
  <rect
     x="8.3000002"
     y="-0.0055610025"
     width="2"
     height="180"
     fill="#8300ff"
     opacity="0.1"
     id="rect91" />
  <rect
     x="2.4200001"
     y="-0.0055610025"
     width="2"
     height="180"
     fill="#8100ff"
     opacity="0.1"
     id="rect92" />
  <rect
     x="-1.5"
     y="-0.0055610025"
     width="2"
     height="180"
     fill="#7f00ff"
     opacity="0.1"
     id="rect93" />
  <line
     x1="0"
     y1="184.99445"
     x2="1200"
     y2="184.99445"
     stroke="#ffffff"
     stroke-width="1"
     id="line93" />
  <line
     x1="0"
     y1="184.99445"
     x2="0"
     y2="188.99445"
     stroke="#ffffff"
     stroke-width="1"
     id="line94" />
  <line
     x1="48.98"
     y1="184.99445"
     x2="48.98"
     y2="188.99445"
     stroke="#ffffff"
     stroke-width="1"
     id="line95" />
  <line
     x1="97.959999"
     y1="184.99445"
     x2="97.959999"
     y2="188.99445"
     stroke="#ffffff"
     stroke-width="1"
     id="line96" />
  <line
     x1="146.94"
     y1="184.99445"
     x2="146.94"
     y2="188.99445"
     stroke="#ffffff"
     stroke-width="1"
     id="line97" />
  <line
     x1="195.92"
     y1="184.99445"
     x2="195.92"
     y2="188.99445"
     stroke="#ffffff"
     stroke-width="1"
     id="line98" />
  <line
     x1="244.89999"
     y1="184.99445"
     x2="244.89999"
     y2="188.99445"
     stroke="#ffffff"
     stroke-width="1"
     id="line99" />
  <line
     x1="293.88"
     y1="184.99445"
     x2="293.88"
     y2="188.99445"
     stroke="#ffffff"
     stroke-width="1"
     id="line100" />
  <line
     x1="342.85999"
     y1="184.99445"
     x2="342.85999"
     y2="188.99445"
     stroke="#ffffff"
     stroke-width="1"
     id="line101" />
  <line
     x1="391.84"
     y1="184.99445"
     x2="391.84"
     y2="188.99445"
     stroke="#ffffff"
     stroke-width="1"
     id="line102" />
  <line
     x1="440.82001"
     y1="184.99445"
     x2="440.82001"
     y2="188.99445"
     stroke="#ffffff"
     stroke-width="1"
     id="line103" />
  <line
     x1="489.79999"
     y1="184.99445"
     x2="489.79999"
     y2="188.99445"
     stroke="#ffffff"
     stroke-width="1"
     id="line104" />
  <line
     x1="538.78003"
     y1="184.99445"
     x2="538.78003"
     y2="188.99445"
     stroke="#ffffff"
     stroke-width="1"
     id="line105" />
  <line
     x1="587.76001"
     y1="184.99445"
     x2="587.76001"
     y2="188.99445"
     stroke="#ffffff"
     stroke-width="1"
     id="line106" />
  <line
     x1="636.72998"
     y1="184.99445"
     x2="636.72998"
     y2="188.99445"
     stroke="#ffffff"
     stroke-width="1"
     id="line107" />
  <line
     x1="685.71002"
     y1="184.99445"
     x2="685.71002"
     y2="188.99445"
     stroke="#ffffff"
     stroke-width="1"
     id="line108" />
  <line
     x1="734.69"
     y1="184.99445"
     x2="734.69"
     y2="188.99445"
     stroke="#ffffff"
     stroke-width="1"
     id="line109" />
  <line
     x1="783.66998"
     y1="184.99445"
     x2="783.66998"
     y2="188.99445"
     stroke="#ffffff"
     stroke-width="1"
     id="line110" />
  <line
     x1="832.65002"
     y1="184.99445"
     x2="832.65002"
     y2="188.99445"
     stroke="#ffffff"
     stroke-width="1"
     id="line111" />
  <line
     x1="881.63"
     y1="184.99445"
     x2="881.63"
     y2="188.99445"
     stroke="#ffffff"
     stroke-width="1"
     id="line112" />
  <line
     x1="930.60999"
     y1="184.99445"
     x2="930.60999"
     y2="188.99445"
     stroke="#ffffff"
     stroke-width="1"
     id="line113" />
  <line
     x1="979.59003"
     y1="184.99445"
     x2="979.59003"
     y2="188.99445"
     stroke="#ffffff"
     stroke-width="1"
     id="line114" />
  <line
     x1="1028.5699"
     y1="184.99445"
     x2="1028.5699"
     y2="188.99445"
     stroke="#ffffff"
     stroke-width="1"
     id="line115" />
  <line
     x1="1077.55"
     y1="184.99445"
     x2="1077.55"
     y2="188.99445"
     stroke="#ffffff"
     stroke-width="1"
     id="line116" />
  <line
     x1="1126.53"
     y1="184.99445"
     x2="1126.53"
     y2="188.99445"
     stroke="#ffffff"
     stroke-width="1"
     id="line117" />
  <line
     x1="1175.51"
     y1="184.99445"
     x2="1175.51"
     y2="188.99445"
     stroke="#ffffff"
     stroke-width="1"
     id="line118" />
  <line
     x1="0"
     y1="184.99445"
     x2="0"
     y2="192.99445"
     stroke="#ffffff"
     stroke-width="1.5"
     id="line119" />
  <line
     x1="97.959999"
     y1="184.99445"
     x2="97.959999"
     y2="192.99445"
     stroke="#ffffff"
     stroke-width="1.5"
     id="line120" />
  <text
     x="97.959999"
     y="204.99445"
     fill="#ffffff"
     font-size="12px"
     font-family="Arial, sans-serif"
     text-anchor="middle"
     id="text120">400 nm</text>
  <line
     x1="342.85999"
     y1="184.99445"
     x2="342.85999"
     y2="192.99445"
     stroke="#ffffff"
     stroke-width="1.5"
     id="line121" />
  <text
     x="342.85999"
     y="204.99445"
     fill="#ffffff"
     font-size="12px"
     font-family="Arial, sans-serif"
     text-anchor="middle"
     id="text121">450 nm</text>
  <line
     x1="587.76001"
     y1="184.99445"
     x2="587.76001"
     y2="192.99445"
     stroke="#ffffff"
     stroke-width="1.5"
     id="line122" />
  <text
     x="587.76001"
     y="204.99445"
     fill="#ffffff"
     font-size="12px"
     font-family="Arial, sans-serif"
     text-anchor="middle"
     id="text122">500 nm</text>
  <line
     x1="832.65002"
     y1="184.99445"
     x2="832.65002"
     y2="192.99445"
     stroke="#ffffff"
     stroke-width="1.5"
     id="line123" />
  <text
     x="832.65002"
     y="204.99445"
     fill="#ffffff"
     font-size="12px"
     font-family="Arial, sans-serif"
     text-anchor="middle"
     id="text123">550 nm</text>
  <line
     x1="1077.55"
     y1="184.99445"
     x2="1077.55"
     y2="192.99445"
     stroke="#ffffff"
     stroke-width="1.5"
     id="line124" />
  <text
     x="1077.55"
     y="204.99445"
     fill="#ffffff"
     font-size="12px"
     font-family="Arial, sans-serif"
     text-anchor="middle"
     id="text124">600 nm</text>
  <line
     x1="1200"
     y1="184.99445"
     x2="1200"
     y2="192.99445"
     stroke="#ffffff"
     stroke-width="1.5"
     id="line125" />
  <text
     x="600"
     y="221.99196"
     fill="#ffffff"
     font-size="14px"
     font-family="Arial, sans-serif"
     text-anchor="middle"
     font-weight="bold"
     id="text126">Wavelength (nm)</text>
</svg>
